<?xml version="1.0" standalone="no"?><!DOCTYPE svg PUBLIC "-//W3C//DTD SVG 1.1//EN" "http://www.w3.org/Graphics/SVG/1.1/DTD/svg11.dtd"><svg t="1722438529596" class="icon" viewBox="0 0 1046 1024" version="1.1" xmlns="http://www.w3.org/2000/svg" p-id="41674" id="mx_n_1722438529596" xmlns:xlink="http://www.w3.org/1999/xlink" width="204.296875" height="200"><path d="M14.848 0m512 0l0 0q512 0 512 512l0 0q0 512-512 512l0 0q-512 0-512-512l0 0q0-512 512-512Z" fill="#20D298" p-id="41675"></path><path d="M526.959304 267.130435a245.047652 245.047652 0 0 1 240.061218 197.142261 244.780522 244.780522 0 0 1-146.409739 273.92 245.069913 245.069913 0 0 1-216.153044-14.024348 14.825739 14.825739 0 0 0-7.346087-1.446957c-4.051478 0-8.904348 0.868174-14.180174 2.137044l-8.102956 2.159304-12.577392 3.628522c-8.303304 2.359652-16.294957 4.318609-22.461217 4.318609a13.111652 13.111652 0 0 1-8.815304-2.582261c-4.830609-4.34087-4.296348-14.625391-2.470957-26.312348l2.960696-16.784696c2.226087-12.777739 3.739826-24.754087-0.489739-30.363826A244.802783 244.802783 0 0 1 526.959304 267.130435z m-0.044521 40.069565a204.955826 204.955826 0 0 0-183.229218 113.218783 204.710957 204.710957 0 0 0 14.870261 208.250434l4.452174 6.166261c11.085913 14.758957 12.822261 26.646261 10.150957 47.104l-0.601044 4.185044 0.957217-0.222609c7.41287-1.825391 13.55687-2.893913 19.812174-3.161043l3.784348-0.089044h2.359652c6.233043 0.155826 12.399304 1.380174 18.231653 3.628522l4.296347 1.869913 2.448696 1.313391a204.978087 204.978087 0 0 0 300.232348-124.482782 204.710957 204.710957 0 0 0-107.186087-236.610783 204.978087 204.978087 0 0 0-82.743652-21.014261l-7.835826-0.155826z" fill="#FFFFFF" p-id="41676"></path><path d="M486.043826 430.035478m20.368696 0l40.893217 0q20.368696 0 20.368696 20.368696l0 0q0 20.368696-20.368696 20.368696l-40.893217 0q-20.368696 0-20.368696-20.368696l0 0q0-20.368696 20.368696-20.368696Z" fill="#FFFFFF" p-id="41677"></path><path d="M496.239304 592.940522m20.368696 0l20.48 0q20.368696 0 20.368696 20.368695l0 0q0 20.368696-20.368696 20.368696l-20.48 0q-20.368696 0-20.368696-20.368696l0 0q0-20.368696 20.368696-20.368695Z" fill="#FFFFFF" p-id="41678"></path><path d="M445.217391 511.488m20.368696 0l122.501565 0q20.368696 0 20.368696 20.368696l0 0q0 20.368696-20.368696 20.368695l-122.501565 0q-20.368696 0-20.368696-20.368695l0 0q0-20.368696 20.368696-20.368696Z" fill="#FFFFFF" p-id="41679"></path></svg>