<?xml version="1.0" standalone="no"?><!DOCTYPE svg PUBLIC "-//W3C//DTD SVG 1.1//EN" "http://www.w3.org/Graphics/SVG/1.1/DTD/svg11.dtd"><svg class="icon" width="200px" height="200.00px" viewBox="0 0 1024 1024" version="1.1" xmlns="http://www.w3.org/2000/svg"><path fill="#e6e6e6" d="M243.809523 920.380951C311.135665 920.380951 365.714285 865.802332 365.714285 798.47619 365.714285 731.15005 311.135665 676.571428 243.809523 676.571428 176.483383 676.571428 121.904762 731.15005 121.904762 798.47619 121.904762 865.802332 176.483383 920.380951 243.809523 920.380951L243.809523 920.380951ZM243.809523 871.619049C203.413839 871.619049 170.666667 838.871874 170.666667 798.47619 170.666667 758.080506 203.413839 725.333333 243.809523 725.333333 284.205207 725.333333 316.952382 758.080506 316.952382 798.47619 316.952382 838.871874 284.205207 871.619049 243.809523 871.619049L243.809523 871.619049Z"  /><path fill="#e6e6e6" d="M804.571428 920.380951C871.89757 920.380951 926.47619 865.802332 926.47619 798.47619 926.47619 731.15005 871.89757 676.571428 804.571428 676.571428 737.245289 676.571428 682.666667 731.15005 682.666667 798.47619 682.666667 865.802332 737.245289 920.380951 804.571428 920.380951L804.571428 920.380951ZM804.571428 871.619049C764.175744 871.619049 731.428572 838.871874 731.428572 798.47619 731.428572 758.080506 764.175744 725.333333 804.571428 725.333333 844.967113 725.333333 877.714285 758.080506 877.714285 798.47619 877.714285 838.871874 844.967113 871.619049 804.571428 871.619049L804.571428 871.619049Z"  /><path fill="#e6e6e6" d="M1011.809523 810.666667 1011.809523 578.894285C1011.809523 511.523072 957.296806 456.822276 890.130281 456.822276L36.489124 456.822276C23.023896 456.822276 12.108172 467.738001 12.108172 481.20323L12.108172 701.322112C12.108172 768.56387 66.730801 823.199588 133.826317 823.199588 147.291545 823.199588 158.207269 812.283863 158.207269 798.818635 158.207269 785.353408 147.291545 774.437683 133.826317 774.437683 93.663873 774.437683 60.870076 741.63603 60.870076 701.322112L60.870076 481.20323 36.489124 505.584181 890.130281 505.584181C930.328683 505.584181 963.047618 538.416004 963.047618 578.894285L963.047618 810.666667C963.047618 824.131895 973.963343 835.047618 987.428572 835.047618 1000.893801 835.047618 1011.809523 824.131895 1011.809523 810.666667L1011.809523 810.666667ZM359.909427 823.199588 694.774837 823.199588C708.240066 823.199588 719.155791 812.283863 719.155791 798.818635 719.155791 785.353408 708.240066 774.437683 694.774837 774.437683L359.909427 774.437683C346.444198 774.437683 335.528474 785.353408 335.528474 798.818635 335.528474 812.283863 346.444198 823.199588 359.909427 823.199588L359.909427 823.199588Z"  /><path fill="#e6e6e6" d="M288.80963 241.582246 268.190477 252.952381 621.924403 252.952381 604.684467 245.811365 836.513681 477.640578 895.999964 473.411465 639.164341 211.331492 632.023326 204.190476 621.924403 204.190476 268.190477 204.190476 254.74595 204.190476 247.571324 215.560611 85.333333 473.411465 142.523915 473.411465 288.80963 241.582246Z"  /><path fill="#e6e6e6" d="M463.238095 228.571428 463.238095 472.685523 512 472.685523 512 228.571428 463.238095 228.571428 463.238095 228.571428Z"  /></svg>