<?xml version="1.0" standalone="no"?><!DOCTYPE svg PUBLIC "-//W3C//DTD SVG 1.1//EN" "http://www.w3.org/Graphics/SVG/1.1/DTD/svg11.dtd"><svg t="1723213352706" class="icon" viewBox="0 0 1024 1024" version="1.1" xmlns="http://www.w3.org/2000/svg" p-id="36190" xmlns:xlink="http://www.w3.org/1999/xlink" width="200" height="200"><path d="M512 60.8l118.4 243.2 19.2 41.6 48 6.4 265.6 38.4-195.2 192-32 32 6.4 44.8 44.8 268.8-233.6-124.8L512 787.2l-41.6 22.4-233.6 124.8 44.8-268.8L288 620.8l-32-32-195.2-192 265.6-38.4 48-6.4 19.2-41.6L512 60.8M512 0c-28.8 0-54.4 16-67.2 41.6l-115.2 240L64 323.2c-28.8 3.2-51.2 22.4-57.6 48-9.6 25.6-3.2 54.4 16 73.6L217.6 640l-44.8 272c-3.2 28.8 6.4 54.4 28.8 70.4C214.4 988.8 230.4 992 243.2 992c12.8 0 25.6-3.2 35.2-9.6l233.6-124.8 233.6 124.8c9.6 6.4 22.4 9.6 35.2 9.6 16 0 28.8-3.2 41.6-12.8 22.4-16 35.2-44.8 28.8-70.4L806.4 640l195.2-195.2c19.2-19.2 25.6-48 16-73.6-9.6-25.6-32-44.8-57.6-48l-265.6-38.4-115.2-240C566.4 16 540.8 0 512 0L512 0z" p-id="36191"></path></svg>