<?xml version="1.0" standalone="no"?><!DOCTYPE svg PUBLIC "-//W3C//DTD SVG 1.1//EN" "http://www.w3.org/Graphics/SVG/1.1/DTD/svg11.dtd"><svg class="icon" width="200px" height="200.00px" viewBox="0 0 1024 1024" version="1.1" xmlns="http://www.w3.org/2000/svg"><path fill="#e6e6e6" d="M522.666667 843.340951 522.666667 843.340951C640.39033 843.340951 731.078095 775.325129 731.078095 699.565715 731.078095 623.8063 640.39033 555.790477 522.666667 555.790477 404.943004 555.790477 314.255238 623.8063 314.255238 699.565715 314.255238 775.325129 404.943004 843.340951 522.666667 843.340951L522.666667 843.340951ZM522.666667 893.474285 522.666667 893.474285C379.876337 893.474285 264.121905 806.658462 264.121905 699.565715 264.121905 592.472966 379.876337 505.657143 522.666667 505.657143 665.456996 505.657143 781.211428 592.472966 781.211428 699.565715 781.211428 806.658462 665.456996 893.474285 522.666667 893.474285L522.666667 893.474285Z"  /><path fill="#e6e6e6" d="M328.758095 498.405715C378.299616 498.405715 418.460951 458.244378 418.460951 408.702857 418.460951 359.161338 378.299616 319 328.758095 319 279.216576 319 239.055238 359.161338 239.055238 408.702857 239.055238 458.244378 279.216576 498.405715 328.758095 498.405715L328.758095 498.405715ZM328.758095 448.272382C306.90445 448.272382 289.188572 430.556501 289.188572 408.702857 289.188572 386.849212 306.90445 369.133333 328.758095 369.133333 350.61174 369.133333 368.327618 386.849212 368.327618 408.702857 368.327618 430.556501 350.61174 448.272382 328.758095 448.272382L328.758095 448.272382Z"  /><path fill="#e6e6e6" d="M716.575238 498.405715C766.116757 498.405715 806.278095 458.244378 806.278095 408.702857 806.278095 359.161338 766.116757 319 716.575238 319 667.033717 319 626.872382 359.161338 626.872382 408.702857 626.872382 458.244378 667.033717 498.405715 716.575238 498.405715L716.575238 498.405715ZM716.575238 448.272382C694.721594 448.272382 677.005715 430.556501 677.005715 408.702857 677.005715 386.849212 694.721594 369.133333 716.575238 369.133333 738.428883 369.133333 756.144762 386.849212 756.144762 408.702857 756.144762 430.556501 738.428883 448.272382 716.575238 448.272382L716.575238 448.272382Z"  /><path fill="#e6e6e6" d="M932.149018 767.159371C976.421003 698.533801 1000.186667 619.863132 1000.186667 537.975238 1000.186667 291.664954 785.995691 92.773333 522.666667 92.773333 259.337643 92.773333 45.146667 291.664954 45.146667 537.975238 45.146667 784.285523 259.337643 983.177143 522.666667 983.177143 644.527081 983.177143 759.341054 940.422944 847.029762 864.729043 857.509376 855.682921 858.67145 839.854187 849.625327 829.374573 840.579204 818.894961 824.75047 817.732885 814.270857 826.779008 735.681237 894.618468 632.492169 933.04381 522.666667 933.04381 286.229538 933.04381 95.28 755.733523 95.28 537.975238 95.28 320.216954 286.229538 142.906667 522.666667 142.906667 759.103795 142.906667 950.053333 320.216954 950.053333 537.975238 950.053333 610.099727 929.130844 679.358735 890.021425 739.981858 882.516563 751.615072 885.863251 767.129549 897.496465 774.634411 909.129679 782.139273 924.644154 778.792585 932.149018 767.159371L932.149018 767.159371Z"  /><path fill="#e6e6e6" d="M933.297446 341.144591C975.279191 307.223305 1000.186667 256.222566 1000.186667 201.186667 1000.186667 101.856413 919.663586 21.333333 820.333333 21.333333 747.438752 21.333333 682.608077 65.107606 654.660928 131.084833L700.82362 150.638785C720.985726 103.040372 767.747089 71.466667 820.333333 71.466667 891.975712 71.466667 950.053333 129.544289 950.053333 201.186667 950.053333 240.914944 932.114135 277.647383 901.789532 302.14969L933.297446 341.144591 933.297446 341.144591Z"  /><path fill="#e6e6e6" d="M131.926076 302.14969C101.601472 277.647383 83.662274 240.914944 83.662274 201.186667 83.662274 129.544289 141.739897 71.466667 213.382274 71.466667 265.968518 71.466667 312.729882 103.040372 332.891987 150.638785L379.054679 131.084833C351.107531 65.107606 286.276855 21.333333 213.382274 21.333333 114.052021 21.333333 33.528941 101.856413 33.528941 201.186667 33.528941 256.222566 58.436416 307.223305 100.418161 341.144591L131.926076 302.14969 131.926076 302.14969Z"  /><path fill="#e6e6e6" d="M534.522306 692.21223C572.762722 692.21223 603.762705 661.212245 603.762705 622.971829 603.762705 584.731411 572.762722 553.731428 534.522306 553.731428 496.281888 553.731428 465.281905 584.731411 465.281905 622.971829 465.281905 661.212245 496.281888 692.21223 534.522306 692.21223L534.522306 692.21223ZM534.522306 642.078897C523.969764 642.078897 515.415238 633.524371 515.415238 622.971829 515.415238 612.419287 523.969764 603.864762 534.522306 603.864762 545.074848 603.864762 553.629372 612.419287 553.629372 622.971829 553.629372 633.524371 545.074848 642.078897 534.522306 642.078897L534.522306 642.078897Z"  /></svg>