<?xml version="1.0" standalone="no"?><!DOCTYPE svg PUBLIC "-//W3C//DTD SVG 1.1//EN" "http://www.w3.org/Graphics/SVG/1.1/DTD/svg11.dtd"><svg class="icon" width="200px" height="200.00px" viewBox="0 0 1024 1024" version="1.1" xmlns="http://www.w3.org/2000/svg"><path d="M548.906667 472.170667c-3.349333-3.029333-7.296-5.482667-11.584-7.232l-140.117333-87.36 88.597333 139.370667c1.770667 4.266667 4.266667 8.149333 7.296 11.477333l1.109333 1.792 0.32-0.32c7.210667 7.146667 17.130667 11.52 28.074667 11.477333 21.930667-0.064 39.594667-17.941333 39.488-39.829333-0.042667-10.965333-4.501333-20.864-11.712-27.989333l0.256-0.256L548.906667 472.170667z" fill="#272635" /><path d="M521.088 196.8l-0.170667 0-12.501333 0.064 0.682667 151.68 0.106667 0c0.554667 13.76 11.861333 24.746667 25.770667 24.746667 14.250667 0 25.813333-11.562667 25.813333-25.792 0-0.533333-0.042667-1.045333-0.085333-1.578667l1.173333-95.488c129.088 17.984 217.344 117.141333 217.898667 251.285333 0.661333 147.136-110.144 256-257.301333 256.618667-147.157333 0.661333-254.656-109.482667-255.296-256.618667-0.341333-74.688 27.797333-141.312 77.077333-189.909333l-0.021333-0.021333c0.789333-0.618667 1.536-1.322667 2.24-2.090667 6.976-7.722667 3.84-20.266667-4.117333-27.456-7.232-6.528-24.277333-5.930667-31.402667-0.128l-0.021333-0.042667c-0.128 0.128-0.256 0.256-0.384 0.384-0.576 0.490667-1.130667 1.002667-1.642667 1.578667-0.042667 0.064-0.085333 0.128-0.128 0.170667-56.618667 55.658667-91.605333 133.184-91.242667 218.837333 0.768 168.426667 137.877333 304.32 306.304 303.573333 168.384-0.789333 304.298667-137.877333 303.552-306.282667C826.624 331.968 689.493333 196.053333 521.088 196.8z" fill="#272635" /><path d="M511.978667 11.114667C235.370667 11.114667 11.093333 235.370667 11.093333 511.978667c0 276.778667 224.277333 500.885333 500.885333 500.885333 114.88 0 223.872-38.784 311.914667-108.885333 10.517333-8.362667 12.266667-23.765333 3.904-34.304-8.448-10.538667-23.786667-12.288-34.368-3.882667-79.424 63.296-177.664 98.282667-281.408 98.282667-249.642667 0-451.989333-202.410667-451.989333-452.096 0-249.6 202.325333-451.989333 451.989333-451.989333 249.685333 0 452.032 202.389333 452.032 451.989333 0 85.589333-23.786667 167.637333-68.074667 238.72-7.082667 11.413333-3.584 26.538667 7.850667 33.664 11.434667 7.168 26.474667 3.584 33.6-7.829333 49.152-78.741333 75.498667-169.706667 75.498667-264.554667C1012.906667 235.370667 788.672 11.114667 511.978667 11.114667z" fill="#262535" /></svg>