<?xml version="1.0" standalone="no"?><!DOCTYPE svg PUBLIC "-//W3C//DTD SVG 1.1//EN" "http://www.w3.org/Graphics/SVG/1.1/DTD/svg11.dtd"><svg class="icon" width="200px" height="200.00px" viewBox="0 0 1024 1024" version="1.1" xmlns="http://www.w3.org/2000/svg"><path fill="#e6e6e6" d="M917.333333 759.466667a21.333333 21.333333 0 0 0 21.333334-21.333334V328.085333a104.384 104.384 0 0 0-104.256-104.256h-114.282667l-52.821333-106.666666H349.226667l-55.914667 106.666666H85.333333v563.648a104.362667 104.362667 0 0 0 104.234667 104.234667H917.333333a21.333333 21.333333 0 1 0 0-42.666667H189.568A61.653333 61.653333 0 0 1 128 787.477333v-520.96h191.146667l55.914666-106.666666H640.853333l52.821334 106.666666h140.757333a61.653333 61.653333 0 0 1 61.589333 61.589334V738.133333a21.290667 21.290667 0 0 0 21.312 21.333334zM637.589333 369.408A211.669333 211.669333 0 0 0 512 328.533333c-117.632 0-213.333333 95.701333-213.333333 213.333334s95.701333 213.333333 213.333333 213.333333 213.333333-95.701333 213.333333-213.333333a214.186667 214.186667 0 0 0-87.744-172.458667zM512 712.533333c-94.101333 0-170.666667-76.565333-170.666667-170.666666s76.565333-170.666667 170.666667-170.666667c36.416 0 71.146667 11.285333 100.437333 32.661333A171.370667 171.370667 0 0 1 682.666667 541.866667c0 94.101333-76.565333 170.666667-170.666667 170.666666z" /></svg>