<?xml version="1.0" standalone="no"?><!DOCTYPE svg PUBLIC "-//W3C//DTD SVG 1.1//EN" "http://www.w3.org/Graphics/SVG/1.1/DTD/svg11.dtd"><svg class="icon" width="200px" height="200.00px" viewBox="0 0 1024 1024" version="1.1" xmlns="http://www.w3.org/2000/svg"><path fill="#e6e6e6" d="M1024 506.453333v452.288H120.469333A120.533333 120.533333 0 0 1 0 838.208V85.333333h903.530667A120.597333 120.597333 0 0 1 1024 205.994667v225.216L691.413333 681.493333l-244.010666-152.533333-257.877334 257.92a30.122667 30.122667 0 0 0 42.602667 42.581333l224-224 237.866667 148.650667L1024 506.453333z m-798.122667-59.712a105.408 105.408 0 1 0 0-210.816 105.408 105.408 0 0 0 0 210.816z m0-60.224a45.184 45.184 0 1 0 0-90.368 45.184 45.184 0 0 0 0 90.368z"  /></svg>