<?xml version="1.0" standalone="no"?><!DOCTYPE svg PUBLIC "-//W3C//DTD SVG 1.1//EN" "http://www.w3.org/Graphics/SVG/1.1/DTD/svg11.dtd"><svg t="1723043556424" class="icon" viewBox="0 0 1024 1024" version="1.1" xmlns="http://www.w3.org/2000/svg" p-id="11127" xmlns:xlink="http://www.w3.org/1999/xlink" width="200" height="200"><path d="M944.12 345.193333c-23.773333-50.853333-57.76-96.486667-101.026667-135.626666-43.093333-39-93.266667-69.606667-149.093333-90.973334C636.333333 96.526667 575.093333 85.333333 512 85.333333s-124.333333 11.193333-182 33.26c-55.82 21.366667-106 52-149.093333 90.973334-43.26 39.14-77.246667 84.773333-101.02 135.626666A391.093333 391.093333 0 0 0 42.666667 512c0 119.68 54.806667 232.9 151.1 313.64-30.666667 40.166667-74.926667 76.58-140.74 116.066667A21.333333 21.333333 0 0 0 64 981.333333c64.953333 0 124.666667-6.46 177.486667-19.206666 45.026667-10.86 85.226667-26.313333 119.68-46A511.086667 511.086667 0 0 0 512 938.666667c63.093333 0 124.333333-11.193333 182-33.26 55.82-21.333333 106-52 149.086667-90.973334 43.266667-39.14 77.253333-84.773333 101.026666-135.626666a392.46 392.46 0 0 0 0-333.613334zM298.666667 554.666667a42.666667 42.666667 0 1 1 42.666666-42.666667 42.666667 42.666667 0 0 1-42.666666 42.666667z m213.333333 0a42.666667 42.666667 0 1 1 42.666667-42.666667 42.666667 42.666667 0 0 1-42.666667 42.666667z m213.333333 0a42.666667 42.666667 0 1 1 42.666667-42.666667 42.666667 42.666667 0 0 1-42.666667 42.666667z" fill="#5C5C66" p-id="11128"></path></svg>