<?xml version="1.0" standalone="no"?><!DOCTYPE svg PUBLIC "-//W3C//DTD SVG 1.1//EN" "http://www.w3.org/Graphics/SVG/1.1/DTD/svg11.dtd"><svg t="1723124831657" class="icon" viewBox="0 0 1024 1024" version="1.1" xmlns="http://www.w3.org/2000/svg" p-id="4275" xmlns:xlink="http://www.w3.org/1999/xlink" width="200" height="200"><path d="M512 625.777778c-62.577778 0-113.777778-51.2-113.777778-113.777778s51.2-113.777778 113.777778-113.777778 113.777778 51.2 113.777778 113.777778-51.2 113.777778-113.777778 113.777778z m398.222222 0c-62.577778 0-113.777778-51.2-113.777778-113.777778s51.2-113.777778 113.777778-113.777778 113.777778 51.2 113.777778 113.777778-51.2 113.777778-113.777778 113.777778zM113.777778 625.777778c-62.577778 0-113.777778-51.2-113.777778-113.777778s51.2-113.777778 113.777778-113.777778 113.777778 51.2 113.777778 113.777778-51.2 113.777778-113.777778 113.777778z" opacity=".8" p-id="4276"></path></svg>