<?xml version="1.0" standalone="no"?><!DOCTYPE svg PUBLIC "-//W3C//DTD SVG 1.1//EN" "http://www.w3.org/Graphics/SVG/1.1/DTD/svg11.dtd"><svg class="icon" width="200px" height="200.00px" viewBox="0 0 1024 1024" version="1.1" xmlns="http://www.w3.org/2000/svg"><path fill="#e6e6e6" d="M393.383795 974.048781 159.97786 974.048781C111.196085 974.048781 71.284553 932.770882 71.284553 881.485869L71.284553 24.97561 46.308943 49.951219 781.65338 49.951219C830.474699 49.951219 870.504064 91.403498 870.504064 142.743289L870.504064 490.133325C870.504064 503.926972 881.686027 515.108934 895.479676 515.108934 909.273323 515.108934 920.455285 503.926972 920.455285 490.133325L920.455285 142.743289C920.455285 64.199067 858.459947 0 781.65338 0L46.308943 0 21.333333 0 21.333333 24.97561 21.333333 881.485869C21.333333 959.988932 83.22553 1024 159.97786 1024L393.383795 1024C407.177444 1024 418.359405 1012.818039 418.359405 999.02439 418.359405 985.230741 407.177444 974.048781 393.383795 974.048781L393.383795 974.048781Z"  /><path fill="#e6e6e6" d="M197.162104 374.634146 768.260691 374.634146C782.05434 374.634146 793.236301 363.452186 793.236301 349.658537 793.236301 335.864887 782.05434 324.682927 768.260691 324.682927L197.162104 324.682927C183.368455 324.682927 172.186494 335.864887 172.186494 349.658537 172.186494 363.452186 183.368455 374.634146 197.162104 374.634146L197.162104 374.634146Z"  /><path fill="#e6e6e6" d="M199.955658 224.780489 771.054246 224.780489C784.847893 224.780489 796.029856 213.598526 796.029856 199.804878 796.029856 186.01123 784.847893 174.829268 771.054246 174.829268L199.955658 174.829268C186.16201 174.829268 174.980048 186.01123 174.980048 199.804878 174.980048 213.598526 186.16201 224.780489 199.955658 224.780489L199.955658 224.780489Z"  /><path fill="#e6e6e6" d="M970.406505 798.458935 970.406505 999.02439 995.382114 974.048781 565.935198 974.048781C551.735753 974.048781 540.46042 963.003313 540.46042 949.570613L540.46042 603.814846 515.484811 628.790455 944.931725 628.790455C959.111287 628.790455 970.406505 639.844066 970.406505 653.168102L970.406505 684.232055C970.406505 698.025705 981.588465 709.207665 995.382114 709.207665 1009.175763 709.207665 1020.357724 698.025705 1020.357724 684.232055L1020.357724 653.168102C1020.357724 612.012141 986.459738 578.839236 944.931725 578.839236L515.484811 578.839236 490.509199 578.839236 490.509199 603.814846 490.509199 949.570613C490.509199 990.823518 524.376117 1024 565.935198 1024L995.382114 1024 1020.357724 1024 1020.357724 999.02439 1020.357724 798.458935C1020.357724 784.665289 1009.175763 773.483326 995.382114 773.483326 981.588465 773.483326 970.406505 784.665289 970.406505 798.458935L970.406505 798.458935Z"  /><path fill="#e6e6e6" d="M613.935418 711.683334 768.879164 821.778995C776.680484 827.322242 786.96339 827.920196 795.354639 823.318551L1001.262532 710.40154C1013.356979 703.769114 1017.784823 688.587983 1011.152397 676.493536 1004.51997 664.399087 989.338839 659.971245 977.244393 666.603671L771.336499 779.520683 797.811974 781.060241 642.868228 670.96458C631.624053 662.975006 616.032021 665.613378 608.042447 676.857553 600.05287 688.101726 602.691245 703.693758 613.935418 711.683334L613.935418 711.683334Z"  /></svg>