<?xml version="1.0" standalone="no"?><!DOCTYPE svg PUBLIC "-//W3C//DTD SVG 1.1//EN" "http://www.w3.org/Graphics/SVG/1.1/DTD/svg11.dtd"><svg t="1723213387732" class="icon" viewBox="0 0 1024 1024" version="1.1" xmlns="http://www.w3.org/2000/svg" p-id="39077" xmlns:xlink="http://www.w3.org/1999/xlink" width="200" height="200"><path d="M674.261333 766.805333l-533.333333 169.813334a42.666667 42.666667 0 0 1-53.205333-54.741334L272.768 354.176a42.666667 42.666667 0 0 1 70.826667-15.658667l348.330666 357.888a42.666667 42.666667 0 0 1-17.664 70.4z m-343.765333-319.402666l252.117333 259.029333-386.048 122.965333 133.973334-381.994666zM648.832 119.168q47.104 47.061333 38.741333 105.514667-7.338667 51.413333-60.074666 104.149333l-106.666667 106.666667a42.666667 42.666667 0 1 1-60.330667-60.330667l106.666667-106.666667q32.597333-32.597333 35.925333-55.893333 2.304-16.213333-14.592-33.109333a42.666667 42.666667 0 0 1 60.330667-60.330667zM908.501333 456.832q-40.832-40.832-76.501333-40.832t-76.501333 40.832l-106.666667 106.666667a42.666667 42.666667 0 1 1-60.330667-60.330667l106.666667-106.666667Q761.002667 330.666667 832 330.666667t136.832 65.834666a42.666667 42.666667 0 0 1-60.330667 60.330667z" p-id="39078"></path><path d="M469.333333 106.666667q0 4.181333-0.853333 8.32-0.768 4.138667-2.389333 8.021333-1.621333 3.84-3.968 7.381333-2.304 3.456-5.290667 6.442667-2.986667 2.986667-6.442667 5.290667-3.498667 2.346667-7.381333 3.968-3.882667 1.621333-8.021333 2.432-4.138667 0.810667-8.32 0.810666t-8.32-0.853333q-4.138667-0.768-8.021334-2.389333-3.84-1.621333-7.381333-3.968-3.456-2.304-6.442667-5.290667-2.986667-2.986667-5.290666-6.442667-2.346667-3.498667-3.968-7.381333-1.621333-3.882667-2.432-8.021333Q384 110.848 384 106.666667t0.853333-8.32q0.768-4.138667 2.389334-8.021334 1.621333-3.84 3.968-7.381333 2.304-3.456 5.290666-6.442667 2.986667-2.986667 6.442667-5.290666 3.498667-2.346667 7.381333-3.968 3.882667-1.621333 8.021334-2.432Q422.485333 64 426.666667 64t8.32 0.853333q4.138667 0.768 8.021333 2.389334 3.84 1.621333 7.381333 3.968 3.456 2.304 6.442667 5.290666 2.986667 2.986667 5.290667 6.442667 2.346667 3.498667 3.968 7.381333 1.621333 3.882667 2.432 8.021334 0.810667 4.138667 0.810666 8.32zM938.666667 85.333333q0 4.181333-0.853334 8.32-0.768 4.138667-2.389333 8.021334-1.621333 3.84-3.968 7.381333-2.304 3.456-5.290667 6.442667-2.986667 2.986667-6.442666 5.290666-3.498667 2.346667-7.381334 3.968-3.882667 1.621333-8.021333 2.432Q900.181333 128 896 128t-8.32-0.853333q-4.138667-0.768-8.021333-2.389334-3.84-1.621333-7.381334-3.968-3.456-2.304-6.442666-5.290666-2.986667-2.986667-5.290667-6.442667-2.346667-3.498667-3.968-7.381333-1.621333-3.882667-2.432-8.021334Q853.333333 89.514667 853.333333 85.333333t0.853334-8.32q0.768-4.138667 2.389333-8.021333 1.621333-3.84 3.968-7.381333 2.304-3.456 5.290667-6.442667 2.986667-2.986667 6.442666-5.290667 3.498667-2.346667 7.381334-3.968 3.882667-1.621333 8.021333-2.432Q891.818667 42.666667 896 42.666667t8.32 0.853333q4.138667 0.768 8.021333 2.389333 3.84 1.621333 7.381334 3.968 3.456 2.304 6.442666 5.290667 2.986667 2.986667 5.290667 6.442667 2.346667 3.498667 3.968 7.381333 1.621333 3.882667 2.432 8.021333Q938.666667 81.152 938.666667 85.333333zM938.666667 576q0 4.181333-0.853334 8.32-0.768 4.138667-2.389333 8.021333-1.621333 3.84-3.968 7.381334-2.304 3.456-5.290667 6.442666-2.986667 2.986667-6.442666 5.290667-3.498667 2.346667-7.381334 3.968-3.882667 1.621333-8.021333 2.432-4.138667 0.810667-8.32 0.810667t-8.32-0.853334q-4.138667-0.768-8.021333-2.389333-3.84-1.621333-7.381334-3.968-3.456-2.304-6.442666-5.290667-2.986667-2.986667-5.290667-6.442666-2.346667-3.498667-3.968-7.381334-1.621333-3.882667-2.432-8.021333Q853.333333 580.181333 853.333333 576t0.853334-8.32q0.768-4.138667 2.389333-8.021333 1.621333-3.84 3.968-7.381334 2.304-3.456 5.290667-6.442666 2.986667-2.986667 6.442666-5.290667 3.498667-2.346667 7.381334-3.968 3.882667-1.621333 8.021333-2.432 4.138667-0.810667 8.32-0.810667t8.32 0.853334q4.138667 0.768 8.021333 2.389333 3.84 1.621333 7.381334 3.968 3.456 2.304 6.442666 5.290667 2.986667 2.986667 5.290667 6.442666 2.346667 3.498667 3.968 7.381334 1.621333 3.882667 2.432 8.021333 0.810667 4.138667 0.810667 8.32zM874.666667 768q0 4.181333-0.853334 8.32-0.768 4.138667-2.389333 8.021333-1.621333 3.84-3.968 7.381334-2.304 3.456-5.290667 6.442666-2.986667 2.986667-6.442666 5.290667-3.498667 2.346667-7.381334 3.968-3.882667 1.621333-8.021333 2.432-4.138667 0.810667-8.32 0.810667t-8.32-0.853334q-4.138667-0.768-8.021333-2.389333-3.84-1.621333-7.381334-3.968-3.456-2.304-6.442666-5.290667-2.986667-2.986667-5.290667-6.442666-2.346667-3.498667-3.968-7.381334-1.621333-3.882667-2.432-8.021333-0.810667-4.138667-0.810667-8.32t0.853334-8.32q0.768-4.138667 2.389333-8.021333 1.621333-3.84 3.968-7.381334 2.304-3.456 5.290667-6.442666 2.986667-2.986667 6.442666-5.290667 3.498667-2.346667 7.381334-3.968 3.882667-1.621333 8.021333-2.432 4.138667-0.810667 8.32-0.810667t8.32 0.853334q4.138667 0.768 8.021333 2.389333 3.84 1.621333 7.381334 3.968 3.456 2.304 6.442666 5.290667 2.986667 2.986667 5.290667 6.442666 2.346667 3.498667 3.968 7.381334 1.621333 3.882667 2.432 8.021333 0.810667 4.138667 0.810667 8.32z" p-id="39079"></path></svg>