<?xml version="1.0" standalone="no"?><!DOCTYPE svg PUBLIC "-//W3C//DTD SVG 1.1//EN" "http://www.w3.org/Graphics/SVG/1.1/DTD/svg11.dtd"><svg class="icon" width="200px" height="200.00px" viewBox="0 0 1024 1024" version="1.1" xmlns="http://www.w3.org/2000/svg"><path fill="#e6e6e6" d="M512.469333 493.781333c289.130667 0 507.136-93.333333 507.136-217.173333S801.6 59.392 512.469333 59.392C223.338667 59.392 5.333333 152.768 5.333333 276.608S223.338667 493.781333 512.469333 493.781333M512.469333 114.218667c266.581333 0 452.330667 85.589333 452.330667 162.389333 0 76.8-185.749333 162.368-452.330667 162.368-266.602667 0-452.352-85.589333-452.352-162.368C60.138667 199.786667 245.888 114.218667 512.469333 114.218667M512.469333 723.904c288.341333 0 505.749333-92.8 505.749333-215.829333 0-32.490667-15.68-62.698667-43.328-89.856-0.192-0.170667-0.362667-0.405333-0.512-0.554667-0.213333-0.170667-0.341333-0.426667-0.533333-0.597333l-0.128 0.149333c-4.458667-4.074667-10.261333-6.698667-16.746667-6.698667-13.824 0-25.024 11.2-25.024 25.002667 0 7.338667 3.264 13.76 8.277333 18.282667l-0.085333 0.128c16.661333 16.746667 26.090667 37.248 26.090667 54.165333 0 77.504-186.346667 163.797333-453.738667 163.797333-267.392 0-453.738667-86.293333-453.738667-163.797333 0-19.285333 5.418667-35.818667 26.709333-54.634667 0.256-0.213333 0.512-0.448 0.768-0.682667 0.170667-0.149333 0.277333-0.277333 0.448-0.448l-0.106667-0.106667c4.096-4.416 6.72-10.261333 6.72-16.768 0-13.802667-11.178667-25.002667-25.002667-25.002667-6.912 0-13.141333 2.794667-17.664 7.338667l-0.149333-0.170667c-28.010667 27.285333-43.776 57.749333-43.776 90.453333C6.698667 631.104 224.149333 723.904 512.469333 723.904M974.634667 646.72c-0.170667-0.213333-0.341333-0.426667-0.490667-0.576l-0.170667 0.128c-4.416-4.074667-10.261333-6.698667-16.746667-6.698667-13.824 0-25.024 11.157333-25.024 24.96 0 7.338667 3.264 13.781333 8.298667 18.325333l-0.128 0.085333c16.682667 16.789333 26.112 37.290667 26.112 54.165333 0 77.504-186.346667 163.797333-453.738667 163.797333-267.392 0-453.738667-86.293333-453.738667-163.797333 0-19.242667 5.44-35.797333 26.688-54.592 0.277333-0.256 0.512-0.448 0.768-0.704 0.170667-0.128 0.298667-0.298667 0.448-0.426667L86.826667 681.322667c4.074667-4.458667 6.72-10.282667 6.72-16.832 0-13.781333-11.2-24.96-24.981333-24.96-6.890667 0-13.141333 2.794667-17.685333 7.338667l-0.128-0.170667c-28.010667 27.242667-43.754667 57.706667-43.754667 90.410667 0 123.050667 217.429333 215.872 505.749333 215.872 288.341333 0 505.749333-92.842667 505.749333-215.872 0-32.448-15.68-62.698667-43.306667-89.792C974.997333 647.104 974.826667 646.933333 974.634667 646.72"  /></svg>