<?xml version="1.0" standalone="no"?><!DOCTYPE svg PUBLIC "-//W3C//DTD SVG 1.1//EN" "http://www.w3.org/Graphics/SVG/1.1/DTD/svg11.dtd"><svg class="icon" width="200px" height="200.00px" viewBox="0 0 1024 1024" version="1.1" xmlns="http://www.w3.org/2000/svg"><path fill="#e6e6e6" d="M537.676629 572.777016C667.27978 572.777016 772.259879 466.772722 772.259879 336.112332 772.259879 205.451942 667.27978 99.447648 537.676629 99.447648 408.073477 99.447648 303.093381 205.451942 303.093381 336.112332 303.093381 466.772722 408.073477 572.777016 537.676629 572.777016L537.676629 572.777016ZM537.676629 530.304582C431.623156 530.304582 345.565814 443.407655 345.565814 336.112332 345.565814 228.817008 431.623156 141.920082 537.676629 141.920082 643.730103 141.920082 729.787446 228.817008 729.787446 336.112332 729.787446 443.407655 643.730103 530.304582 537.676629 530.304582L537.676629 530.304582Z"  /><path fill="#e6e6e6" d="M1001.664066 1024.000004C1001.664066 751.431228 782.755985 530.387459 512.615542 530.387459 242.4751 530.387459 23.567019 751.431228 23.567019 1024.000004L66.039452 1024.000004C66.039452 774.796294 266.024779 572.859892 512.615542 572.859892 759.206306 572.859892 959.191633 774.796294 959.191633 1024.000004L1001.664066 1024.000004 1001.664066 1024.000004Z"  /><path fill="#e6e6e6" d="M233.809816 572.859892C281.846495 572.859892 320.7039 533.623389 320.7039 485.325241 320.7039 437.027096 281.846495 397.790593 233.809816 397.790593 185.773138 397.790593 146.915732 437.027096 146.915732 485.325241 146.915732 533.623389 185.773138 572.859892 233.809816 572.859892L233.809816 572.859892ZM233.809816 530.387459C209.322817 530.387459 189.388166 510.258322 189.388166 485.325241 189.388166 460.392163 209.322817 440.263026 233.809816 440.263026 258.296816 440.263026 278.231467 460.392163 278.231467 485.325241 278.231467 510.258322 258.296816 530.387459 233.809816 530.387459L233.809816 530.387459Z"  /><path fill="#e6e6e6" d="M830.543236 520.287306C838.435011 517.213408 856.420583 512.250861 869.738118 507.413846 871.10678 506.916965 871.10678 506.916965 872.477119 506.42035 883.299946 502.499785 894.907365 498.352896 906.516385 494.244034 913.482439 491.778488 918.897025 489.874927 921.981649 488.795985L936.206384 483.820443 936.206384 468.750633 936.206384 282.286293 936.206384 269.008648 924.26945 263.194403C922.053561 262.115087 918.144366 260.19565 913.109699 257.697247 904.720115 253.534 896.333421 249.310732 888.525544 245.293116 886.929012 244.470731 886.929012 244.470731 885.338411 243.647696 876.494909 239.066281 869.177034 235.138507 863.892556 232.110649 861.160872 230.54547 859.071734 229.275744 857.78666 228.410362 859.888255 229.825599 860.115079 230.016911 862.214218 234.916219 804.257697 99.647907 670.564953 0 531.990097 0 337.403916 0 179.744666 159.197389 179.744666 355.474788 179.744666 378.590106 181.933686 401.433919 186.246239 423.785122L227.949506 415.738687C224.147939 396.035838 222.2171 375.886294 222.2171 355.474788 222.2171 182.562455 360.953596 42.472433 531.990097 42.472433 652.531844 42.472433 771.567984 131.196039 823.17426 251.643123 827.282349 261.231249 830.445679 263.043749 865.801418 281.359942 867.446153 282.210985 867.446153 282.210985 869.092686 283.059126 877.10527 287.182075 885.669071 291.494531 894.229978 295.742796 899.365609 298.291301 903.366644 300.255832 905.670886 301.378183L893.733951 282.286293 893.733951 468.750633 907.958689 448.705284C904.827575 449.800489 899.364613 451.721059 892.345253 454.205469 880.645251 458.346535 868.943646 462.527074 858.011386 466.48728 856.62458 466.989862 856.62458 466.989862 855.238611 467.493025 841.640096 472.432095 830.384497 476.618365 822.125588 479.835263 817.286018 481.720307 813.48815 483.267063 810.712137 484.49784 808.902954 485.299962 807.434242 486.005276 806.123281 486.734668 804.750891 487.504549 804.750891 487.504549 802.39627 489.219923 797.915841 491.325505 788.070803 499.05109 795.378771 512.767063 802.686739 526.483036 826.258515 521.956233 830.543236 520.287306Z"  /></svg>