<?xml version="1.0" standalone="no"?><!DOCTYPE svg PUBLIC "-//W3C//DTD SVG 1.1//EN" "http://www.w3.org/Graphics/SVG/1.1/DTD/svg11.dtd"><svg class="icon" width="200px" height="200.00px" viewBox="0 0 1024 1024" version="1.1" xmlns="http://www.w3.org/2000/svg"><path fill="#e6e6e6" d="M1023.999996 243.058404 1023.999996 192.457355C1023.999996 133.350934 976.054238 85.333333 916.910148 85.333333L5.333333 85.333333 5.333333 835.815684C5.333333 895.199398 53.279091 943.15789 112.423181 943.15789L1023.999996 943.15789 1023.999996 446.546103 1023.999996 298.302321 543.765807 562.266963C534.759245 567.206035 523.722317 566.564235 515.348943 560.614513L150.648242 301.475533C138.579558 292.900098 135.747719 276.164736 144.323152 264.096051 152.898585 252.027366 169.633949 249.195529 181.702633 257.770961L532.052621 507.75001C532.052621 507.75001 538.767125 504.064926 542.12438 502.222385 691.83606 420.056992 1008.43715 251.349911 1024 243.058402Z"  /></svg>