<?xml version="1.0" standalone="no"?><!DOCTYPE svg PUBLIC "-//W3C//DTD SVG 1.1//EN" "http://www.w3.org/Graphics/SVG/1.1/DTD/svg11.dtd"><svg class="icon" width="200px" height="200.00px" viewBox="0 0 1024 1024" version="1.1" xmlns="http://www.w3.org/2000/svg"><path fill="#e6e6e6" d="M731.499531 47.014558C770.629127 47.014558 802.392705 78.618418 802.392705 117.545505L802.392744 446.638311 412.872048 846.262065 423.917326 846.262039 139.970966 846.262039C100.8091 846.262039 69.096657 814.801393 69.096657 775.971075L69.096655 47.014558 45.441945 47.014558 731.499531 47.014558ZM21.787234 0 21.787234 23.507279 21.787234 775.971075C21.787234 840.784929 74.69902 893.276596 139.970966 893.276596L423.917326 893.276596 433.836385 893.276596 440.788839 886.246008 842.918932 479.596694 849.702128 472.737265 849.702128 463.120003 849.702128 117.545505C849.702128 52.665733 796.770234 0 731.499531 0L45.441945 0 21.787234 0Z"  /><path fill="#e6e6e6" d="M778.22803 636.420841 866.898308 725.091119 885.125447 744.577647 982.593479 646.374481 855.512968 518.560378 759.89601 618.825996 778.22803 636.420841ZM917.371009 643.055851 882.031912 678.622341 822.728724 621.430852 856.902924 584.309841 917.371009 643.055851Z"  /><path fill="#e6e6e6" d="M772.341518 604.741944 515.869818 861.213644 510.878071 866.205391 509.49361 873.127701 486.177999 989.705748 479.319149 1024 513.613401 1017.14115 630.191448 993.825539 637.113758 992.441078 642.105505 987.449331 898.577205 730.977631 915.06383 714.491006 898.577205 698.00438 805.314769 604.741944 788.828143 588.255319 772.341518 604.741944 772.341518 604.741944 772.341518 604.741944ZM788.548057 654.71881 849.238319 714.613627 613.059177 948.099878 537.423434 964.538791 556.253326 886.787689 788.548057 654.71881Z"  /><path fill="#e6e6e6" d="M154.380179 392.170213 695.321949 392.170213C708.387226 392.170213 718.978723 382.415735 718.978723 370.382979 718.978723 358.350223 708.387226 348.595745 695.321949 348.595745L154.380179 348.595745C141.314903 348.595745 130.723404 358.350223 130.723404 370.382979 130.723404 382.415735 141.314903 392.170213 154.380179 392.170213L154.380179 392.170213 154.380179 392.170213Z"  /><path fill="#e6e6e6" d="M154.380179 239.659574 695.321949 239.659574C708.387226 239.659574 718.978723 229.905096 718.978723 217.87234 718.978723 205.839583 708.387226 196.085106 695.321949 196.085106L154.380179 196.085106C141.314903 196.085106 130.723404 205.839583 130.723404 217.87234 130.723404 229.905096 141.314903 239.659574 154.380179 239.659574L154.380179 239.659574 154.380179 239.659574Z"  /></svg>