<?xml version="1.0" standalone="no"?><!DOCTYPE svg PUBLIC "-//W3C//DTD SVG 1.1//EN" "http://www.w3.org/Graphics/SVG/1.1/DTD/svg11.dtd"><svg class="icon" width="200px" height="200.00px" viewBox="0 0 1024 1024" version="1.1" xmlns="http://www.w3.org/2000/svg"><path fill="#e6e6e6" d="M49.770667 199.104H658.773333c19.925333 5.674667 33.493333 14.336 42.24 25.024 8.448 10.24 11.157333 20.117333 11.157334 25.066667v214.250666l262.357333-168.682666v414.826666l-262.357333-168.661333v148.096a24.896 24.896 0 1 0 49.770666 0v-62.442667l262.378667 174.186667V203.605333L761.92 372.266667v-123.093334c0-15.488-5.696-36.266667-22.464-56.661333-16-19.477333-39.573333-34.133333-71.104-42.368L665.258667 149.333333H0v608.96l0.768 3.029334c2.986667 11.669333 9.173333 27.989333 19.690667 44.629333 18.730667 29.653333 44.906667 48.725333 79.146666 49.066667h637.44a24.896 24.896 0 0 0 0-49.770667H99.84c-14.4-0.149333-26.752-9.130667-37.333333-25.877333a120.213333 120.213333 0 0 1-12.757334-27.690667V199.104z"  /><path fill="#e6e6e6" d="M205.909333 324.48a46.506667 46.506667 0 1 1-92.992-0.042667 46.506667 46.506667 0 0 1 92.992 0.021334z"  /></svg>