<?xml version="1.0" standalone="no"?><!DOCTYPE svg PUBLIC "-//W3C//DTD SVG 1.1//EN" "http://www.w3.org/Graphics/SVG/1.1/DTD/svg11.dtd"><svg class="icon" width="200px" height="200.00px" viewBox="0 0 1024 1024" version="1.1" xmlns="http://www.w3.org/2000/svg"><path fill="#e6e6e6" d="M242.084 343.356a26.256 26.256 0 0 1 35.971 38.23 340.256 340.256 0 0 0-107.388 248.568c0 188.521 152.812 341.333 341.332 341.333s341.333-152.812 341.333-341.333c0-32.164-4.463-63.698-13.102-93.997a341.202 341.202 0 0 0-93.262-153.6 26.256 26.256 0 0 1 36.155-38.072A393.714 393.714 0 0 1 890.72 521.742c9.978 34.973 15.124 71.391 15.124 108.412 0 217.508-176.338 393.846-393.846 393.846-217.507 0-393.845-176.338-393.845-393.846 0-110.014 45.37-212.86 123.93-286.798z"  /><path fill="#e6e6e6" d="M347.897 52.514l-91.635 152.051L515.02 464.897l252.849-260.122-91.766-152.26H347.897zM333.062 0.002h357.875a26.256 26.256 0 0 1 22.475 12.708l109.883 182.298a26.256 26.256 0 0 1-3.65 31.849l-285.59 293.808a26.256 26.256 0 0 1-37.442 0.21L204.537 227.067a26.256 26.256 0 0 1-3.86-32.06L310.588 12.71A26.256 26.256 0 0 1 333.062 0.002zM223.18 236.519a26.256 26.256 0 1 1 0-52.513h551.384a26.256 26.256 0 0 1 0 52.513H223.18z m164.759-16.437a26.256 26.256 0 0 1-40.697-33.188L491.65 9.664a26.256 26.256 0 0 1 40.697 33.188l-144.41 177.23z m104.448-176.39a26.256 26.256 0 0 1 39.227-34.868l157.538 177.23a26.256 26.256 0 0 1-39.227 34.869L492.386 43.693zM345.193 236.86a26.256 26.256 0 0 1 44.793-27.359l144.41 236.307a26.256 26.256 0 1 1-44.793 27.36L345.193 236.86z m301.974-47.13a26.256 26.256 0 1 1 44.741 27.517l-157.538 256a26.256 26.256 0 1 1-44.741-27.517l157.538-256z"  /></svg>