<?xml version="1.0" standalone="no"?><!DOCTYPE svg PUBLIC "-//W3C//DTD SVG 1.1//EN" "http://www.w3.org/Graphics/SVG/1.1/DTD/svg11.dtd"><svg class="icon" width="200px" height="200.00px" viewBox="0 0 1024 1024" version="1.1" xmlns="http://www.w3.org/2000/svg"><path fill="#e6e6e6" d="M66.133333 153.6 864.120998 153.6C902.909732 153.6 934.4 185.131266 934.4 223.964112L934.4 763.733333 957.866667 740.266667 159.879001 740.266667C121.090268 740.266667 89.6 708.735401 89.6 669.902556L89.6 130.133333 66.133333 153.6 66.133333 153.6ZM66.133333 106.666667 42.666667 106.666667 42.666667 130.133333 42.666667 669.902556C42.666667 734.642304 95.156023 787.2 159.879001 787.2L957.866667 787.2 981.333333 787.2 981.333333 763.733333 981.333333 223.964112C981.333333 159.224362 928.843977 106.666667 864.120998 106.666667L66.133333 106.666667 66.133333 106.666667Z"  /><path fill="#e6e6e6" d="M408.297397 766.222694 337.897397 930.489361C332.792092 942.401739 338.310315 956.197297 350.222694 961.302603 362.135072 966.407908 375.93063 960.889685 381.035936 948.977306L451.435936 784.710639C456.541242 772.798261 451.023019 759.002703 439.110639 753.897397 427.198261 748.792092 413.402703 754.310315 408.297397 766.222694L408.297397 766.222694Z"  /><path fill="#e6e6e6" d="M587.343202 848.540474 669.476535 954.140474C677.433378 964.370701 692.176913 966.213643 702.40714 958.256798 712.637367 950.299955 714.480309 935.55642 706.523465 925.326193L624.390131 819.726193C616.433289 809.495966 601.689754 807.653024 591.459526 815.609869 581.229299 823.566711 579.386357 838.310246 587.343202 848.540474L587.343202 848.540474Z"  /><path fill="#e6e6e6" d="M242.133333 974.933333 805.455541 974.933333C818.415825 974.933333 828.922208 964.426948 828.922208 951.466667 828.922208 938.506385 818.415825 928 805.455541 928L242.133333 928C229.173051 928 218.666667 938.506385 218.666667 951.466667 218.666667 964.426948 229.173051 974.933333 242.133333 974.933333L242.133333 974.933333Z"  /></svg>