<?xml version="1.0" standalone="no"?><!DOCTYPE svg PUBLIC "-//W3C//DTD SVG 1.1//EN" "http://www.w3.org/Graphics/SVG/1.1/DTD/svg11.dtd"><svg class="icon" width="200px" height="200.00px" viewBox="0 0 1024 1024" version="1.1" xmlns="http://www.w3.org/2000/svg"><path fill="#e6e6e6" d="M524.8 21.504C361.984 21.504 230.4 153.6 230.4 316.928c0 111.616 61.952 209.408 153.088 259.584C166.912 628.224 0 804.352 0 998.4c0 0 0 25.6 26.624 25.6s24.576-25.6 24.576-25.6c0-200.704 212.48-385.536 460.8-385.536h12.8c162.816 0 294.4-132.608 294.4-295.936S687.616 21.504 524.8 21.504z m0 539.648C390.656 561.152 281.6 452.096 281.6 316.928c0-134.656 109.056-244.224 243.2-244.224S768 182.272 768 316.928c0 135.168-109.056 244.224-243.2 244.224zM1024.512 809.984c0 13.312-10.752 24.576-24.576 24.576h-163.84v163.84c0 13.312-10.752 24.576-24.576 24.576s-24.576-11.264-24.576-24.576v-163.84h-163.84c-13.312 0-24.576-11.264-24.576-24.576 0-13.312 11.264-24.576 24.576-24.576h163.84v-163.84c0-13.312 11.264-24.576 24.576-24.576s24.576 11.264 24.576 24.576v163.84h163.84c13.824 0 24.576 11.264 24.576 24.576z" /></svg>