<?xml version="1.0" standalone="no"?><!DOCTYPE svg PUBLIC "-//W3C//DTD SVG 1.1//EN" "http://www.w3.org/Graphics/SVG/1.1/DTD/svg11.dtd"><svg class="icon" width="200px" height="200.00px" viewBox="0 0 1024 1024" version="1.1" xmlns="http://www.w3.org/2000/svg"><path fill="#e6e6e6" d="M219.429 146.286v755.81a73.143 73.143 0 0 0 73.142 73.142h512v-755.81a73.143 73.143 0 0 0-73.142-73.142h-512z m170.666-48.762V56.88C390.095 27.063 408.137 0 436.151 0h151.698c28.038 0 46.056 27.063 46.056 56.88v40.644h97.524a121.905 121.905 0 0 1 121.904 121.905V1024H292.571a121.905 121.905 0 0 1-121.904-121.905V97.524h219.428z m48.762 0h146.286V56.88a20.431 20.431 0 0 0-1.536-8.12H440.393a20.431 20.431 0 0 0-1.536 8.12v40.643z m-48.762 482.06h208.799L462.019 790.016a24.381 24.381 0 0 0 40.863 26.575l161.401-248.076a24.381 24.381 0 0 0-20.455-37.693H433.664l123.49-201.118a24.381 24.381 0 1 0-41.546-25.503l-146.285 238.25a24.381 24.381 0 0 0 20.772 37.133z"  /></svg>