<?xml version="1.0" standalone="no"?><!DOCTYPE svg PUBLIC "-//W3C//DTD SVG 1.1//EN" "http://www.w3.org/Graphics/SVG/1.1/DTD/svg11.dtd"><svg t="1723213053247" class="icon" viewBox="0 0 1214 1024" version="1.1" xmlns="http://www.w3.org/2000/svg" p-id="1493" xmlns:xlink="http://www.w3.org/1999/xlink" width="237.109375" height="200"><path d="M1129.997232 175.209957l-45.420428 84.362537-45.354791-84.362537-84.27721-45.420428 84.27721-45.426992L1084.576804 0l45.420428 84.362537L1214.274442 129.789529z m-18.181298-72.679249l-27.23913-50.618835-27.239129 50.618835-50.540071 27.258821 50.540071 27.252256 27.239129 50.618836 27.23913-50.618836 50.605708-27.252256z m-38.988055 184.707552V480.45886a65.511747 65.511747 0 0 1-22.250759 49.155143c0.984547 12.26089 1.640911 24.613671 1.640911 37.130543a456.750972 456.750972 0 0 1-854.521025 224.955827l-22.644577 12.201817-45.354791 84.362537-45.420428-84.362537L0 758.448944l84.27721-45.426992 45.420428-84.355973 19.559664 36.36916a457.794592 457.794592 0 0 1-10.698743-98.316848c0-10.626542 0.459455-21.134939 1.181457-31.577699a65.400165 65.400165 0 0 1-21.85694-48.807269V293.138978a65.636456 65.636456 0 0 1 65.636456-65.636457h105.609058a456.219317 456.219317 0 0 1 605.693219-5.907281h112.369613a65.636456 65.636456 0 0 1 65.636457 65.64302zM172.426971 739.552208l-15.490204-8.355521-27.239129-50.618835-27.23913 50.618835-50.605707 27.252257 50.605707 27.25882 27.23913 50.618835 27.239129-50.618835 29.208223-15.752749q-7.384101-14.912603-13.718019-30.402807z m13.3242-187.582428c-0.131273 4.903043-0.328182 9.799523-0.328182 14.748511a408.63945 408.63945 0 0 0 37.872235 172.302262l36.034415 19.428391-20.347301 10.987543a409.886543 409.886543 0 0 0 766.371264-202.718196c0-6.924646-0.196909-13.783656-0.525092-20.649229h-279.020576a65.636456 65.636456 0 0 1-65.636456-65.636456V362.122893a132.441242 132.441242 0 0 0-59.204084-16.632278 170.464441 170.464441 0 0 0-70.493554 18.739208v122.083809a65.636456 65.636456 0 0 1-65.636456 65.636457H185.751171zM479.146131 341.309573V269.109471h-26.254582v72.200102h26.254582z m116.242164-184.904461a407.602394 407.602394 0 0 0-230.646507 71.097409h100.095596a65.636456 65.636456 0 0 1 65.636456 65.636457v12.891a259.966313 259.966313 0 0 1 70.493554-13.639256 206.754837 206.754837 0 0 1 59.204084 12.470927v-17.649643a65.636456 65.636456 0 0 1 65.636456-65.636457h91.169038a407.602394 407.602394 0 0 0-221.588677-65.170437zM984.546845 269.109471h-98.454684v72.200102h98.454684V269.109471z m13.127291 72.200102h26.254583V269.109471h-26.254583v72.200102z m-292.738595 231.270054h28.092403A129.848602 129.848602 0 0 1 607.137221 678.09023a124.558303 124.558303 0 0 1-35.37805-5.159025v-34.583849a96.643118 96.643118 0 0 0 37.544053 7.626956 100.423778 100.423778 0 0 0 95.632317-73.394685z" fill="" p-id="1494"></path></svg>