<?xml version="1.0" standalone="no"?><!DOCTYPE svg PUBLIC "-//W3C//DTD SVG 1.1//EN" "http://www.w3.org/Graphics/SVG/1.1/DTD/svg11.dtd"><svg class="icon" width="200px" height="200.00px" viewBox="0 0 1024 1024" version="1.1" xmlns="http://www.w3.org/2000/svg"><path fill="#e6e6e6" d="M743.619048 511.999998 743.619048 999.619045 767.999999 975.238091 402.436749 975.238091C361.966454 975.238091 329.142858 942.460515 329.142858 902.114008L329.142858 511.999998 304.761906 536.380949 572.952382 536.380949C586.417608 536.380949 597.333333 525.465227 597.333333 511.999998 597.333333 498.534769 586.417608 487.619047 572.952382 487.619047L304.761906 487.619047 280.380953 487.619047 280.380953 511.999998 280.380953 902.114008C280.380953 969.406298 335.051301 1023.999996 402.436749 1023.999996L767.999999 1023.999996 792.38095 1023.999996 792.38095 999.619045 792.38095 511.999998C792.38095 498.534769 781.465228 487.619047 767.999999 487.619047 754.53477 487.619047 743.619048 498.534769 743.619048 511.999998L743.619048 511.999998Z"  /><path fill="#e6e6e6" d="M670.476189 390.095237 670.476189 121.904761C669.24573 106.724361 665.564723 88.343325 657.506525 69.449458 641.134018 31.061232 612.120891 7.41427 570.10368 12.357471 565.389728 12.912054 560.65841 13.832954 555.912998 15.100715 526.12375 23.059059 496.579123 44.100961 467.116168 74.125843 454.583228 86.897815 442.894214 100.499022 432.311201 114.099062 425.929992 122.299438 421.280327 128.756187 418.664001 132.623069L414.476191 138.812577 414.476191 146.285714 414.476191 402.575798 463.238095 402.575798 463.238095 146.285714 459.050285 159.948358C461.092638 156.929797 465.120136 151.33702 470.794381 144.04515 480.303791 131.824778 490.805099 119.605573 501.920188 108.278494 525.80899 83.934076 548.994795 67.420975 568.498592 62.210439 571.02992 61.534183 573.465015 61.060217 575.801081 60.785386 592.608825 58.808004 603.871353 67.987456 612.653661 88.579122 615.935464 96.273886 618.404081 104.764223 620.111257 113.288988 621.128998 118.371054 621.64641 122.186165 621.806333 124.021357L621.714284 390.095237 670.476189 390.095237 670.476189 390.095237Z"  /><path fill="#e6e6e6" d="M774.15806 483.754552 688.824727 386.230744C684.195073 380.939713 677.506745 377.90476 670.476189 377.90476L390.095239 377.90476C382.57151 377.90476 375.469202 381.378384 370.85008 387.317255L285.516747 497.031541C277.249896 507.660348 279.164641 522.978306 289.793449 531.245156 300.422256 539.512006 315.740214 537.597263 324.007064 526.968454L409.340397 417.25417 390.095239 426.666665 670.476189 426.666665 652.127654 418.340683 737.460987 515.864491C746.327901 525.998108 761.730875 527.024973 771.864492 518.158059 781.998109 509.291143 783.024974 493.888169 774.15806 483.754552L774.15806 483.754552Z"  /></svg>