<?xml version="1.0" standalone="no"?><!DOCTYPE svg PUBLIC "-//W3C//DTD SVG 1.1//EN" "http://www.w3.org/Graphics/SVG/1.1/DTD/svg11.dtd"><svg class="icon" width="200px" height="200.00px" viewBox="0 0 1024 1024" version="1.1" xmlns="http://www.w3.org/2000/svg"><path fill="#e6e6e6" d="M472.153474 119.228972 92.638513 517.750743C-3.525822 618.731164-2.288327 780.624077 95.536728 880.163189L99.321659 884.014438C197.267042 983.675987 357.082027 984.489975 455.906639 885.911622L955.925037 387.139215C1034.944759 308.316403 1036.587465 179.168202 959.634413 98.61339L941.34458 116.085449 923.054748 133.557508 927.277389 137.977788 945.567221 120.505729 963.857054 103.03367C886.268179 21.813275 760.692811 22.649855 683.951435 104.944905L209.92702 613.273856C171.75695 654.206246 173.954266 718.232602 214.90487 756.419659L226.383979 767.1241C267.274317 805.254957 331.360614 803.034336 369.461105 762.176561L738.140738 366.81606C747.66794 356.599386 747.109013 340.593813 736.892339 331.066609 726.675665 321.539407 710.670091 322.098334 701.142889 332.315008L332.463258 727.675509C313.421342 748.095465 281.346492 749.206871 260.88503 730.126253L249.405922 719.421811C228.898628 700.298449 227.799923 668.2839 246.924868 647.774908L720.949284 139.445957C777.863249 78.413202 869.791012 77.800782 927.277389 137.977788 950.573468 162.364232 987.153133 127.420114 963.857054 103.03367L959.634413 98.61339C936.338334 74.226946 899.758669 109.171065 923.054748 133.557508 980.99271 194.207237 979.749843 291.920378 920.198449 351.323377L420.180051 850.095785C341.242127 928.837003 213.662948 928.187202 135.402204 848.5552L131.617273 844.703949C52.922438 764.630251 51.922852 633.86137 129.272687 552.637713L508.787648 154.115942C518.421419 143.999694 518.030293 127.989141 507.914046 118.35537 497.797798 108.7216 481.787245 109.112724 472.153474 119.228972L472.153474 119.228972Z"  /></svg>