<?xml version="1.0" standalone="no"?><!DOCTYPE svg PUBLIC "-//W3C//DTD SVG 1.1//EN" "http://www.w3.org/Graphics/SVG/1.1/DTD/svg11.dtd"><svg class="icon" width="200px" height="200.00px" viewBox="0 0 1024 1024" version="1.1" xmlns="http://www.w3.org/2000/svg"><path fill="#e6e6e6" d="M797.970974 491.89619 761.457982 491.073534 951.72983 727.092303 970.333549 688.354662 850.968469 688.354662 827.095452 688.354662 827.095452 712.168617 827.095452 976.372094 850.968471 952.55814 683.857357 952.558118 707.73037 976.372073 707.73037 809.674398C707.73037 796.522315 697.042057 785.860444 683.857355 785.860444 670.672651 785.860444 659.984337 796.522315 659.984337 809.674398L659.984337 976.372073 659.984337 1000.186022 683.85735 1000.186025 850.968465 1000.186046 874.841485 1000.18605 874.841485 976.372094 874.841485 712.168617 850.968469 735.982569 970.333549 735.982569 1020.166487 735.982569 988.937265 697.244928 798.665419 461.226157 780.898613 439.187693 762.152427 460.403501 552.503424 697.671663C543.785389 707.53821 544.736282 722.586507 554.6273 731.282974 564.518319 739.979439 579.603938 739.030899 588.321973 729.164352L797.970974 491.89619Z"  /><path fill="#e6e6e6" d="M153.857145 928.744186C107.228929 928.744186 69.079365 889.386191 69.079365 840.486526L69.079365 23.813953 45.206349 47.627907 748.087665 47.627907C794.753677 47.627907 833.015872 87.152172 833.015872 136.104066L833.015872 562.592239 880.761905 562.592239 880.761905 136.104066C880.761905 61.213064 821.503465 0 748.087665 0L45.206349 0 21.333333 0 21.333333 23.813953 21.333333 840.486526C21.333333 915.338285 80.493186 976.372094 153.857145 976.372094L687.308156 976.372094 687.308156 928.744186 153.857145 928.744186Z"  /><path fill="#e6e6e6" d="M735.286219 381.023255C748.470923 381.023255 759.159236 370.361387 759.159236 357.209301 759.159236 344.057218 748.470923 333.395349 735.286219 333.395349L189.399822 333.395349C176.215119 333.395349 165.526806 344.057218 165.526806 357.209301 165.526806 370.361387 176.215119 381.023255 189.399822 381.023255L735.286219 381.023255Z"  /><path fill="#e6e6e6" d="M737.956448 238.139535C751.14115 238.139535 761.829463 227.477664 761.829463 214.325581 761.829463 201.173498 751.14115 190.511628 737.956448 190.511628L192.070049 190.511628C178.885347 190.511628 168.197034 201.173498 168.197034 214.325581 168.197034 227.477664 178.885347 238.139535 192.070049 238.139535L737.956448 238.139535Z"  /></svg>