<?xml version="1.0" standalone="no"?><!DOCTYPE svg PUBLIC "-//W3C//DTD SVG 1.1//EN" "http://www.w3.org/Graphics/SVG/1.1/DTD/svg11.dtd"><svg class="icon" width="200px" height="200.00px" viewBox="0 0 1024 1024" version="1.1" xmlns="http://www.w3.org/2000/svg"><path fill="#e6e6e6" d="M786.731708 648C807.42218 648 824.195121 603.109084 824.195121 547.733333 824.195121 492.357583 807.42218 447.466667 786.731708 447.466667 766.041235 447.466667 749.268292 492.357583 749.268292 547.733333 749.268292 603.109084 766.041235 648 786.731708 648ZM462.048781 698.133333C482.739253 698.133333 499.512194 658.853781 499.512194 610.4 499.512194 561.946217 482.739253 522.666667 462.048781 522.666667 441.358308 522.666667 424.585365 561.946217 424.585365 610.4 424.585365 658.853781 441.358308 698.133333 462.048781 698.133333ZM0 572.8C0 822.813926 229.933961 1024 512 1024 794.066039 1024 1024 822.813926 1024 572.8 1024 322.786074 794.066039 121.599999 512 121.599999 515.649685 121.599999 516.946722 122.183253 516.866057 122.124053 514.736119 120.560928 512.302005 118.428984 505.789668 112.472612 487.675081 95.904489 476.340222 86.603485 458.812092 75.393661 404.94781 40.945655 334.29571 21.333333 237.268292 21.333333 223.474645 21.333333 212.292683 32.556062 212.292683 46.4 212.292683 60.243938 223.474645 71.466667 237.268292 71.466667 325.013274 71.466667 386.336418 88.489363 431.969129 117.673005 444.078925 125.417623 494.717728 171.733333 512 171.733333 767.886246 171.733333 974.048781 352.120043 974.048781 572.8 974.048781 793.479955 767.886246 973.866667 512 973.866667 256.113754 973.866667 49.951219 793.479955 49.951219 572.8 49.951219 427.029845 140.536466 294.462295 284.745583 223.557118 297.132651 217.466607 302.254953 202.450961 296.186566 190.018733 290.11818 177.586505 275.157079 172.445527 262.770012 178.536038 102.138268 257.515945 0 406.990833 0 572.8Z"  /></svg>