<?xml version="1.0" standalone="no"?><!DOCTYPE svg PUBLIC "-//W3C//DTD SVG 1.1//EN" "http://www.w3.org/Graphics/SVG/1.1/DTD/svg11.dtd"><svg class="icon" width="200px" height="200.00px" viewBox="0 0 1024 1024" version="1.1" xmlns="http://www.w3.org/2000/svg"><path fill="#e6e6e6" d="M370.99187 770.601626 670.699187 770.601626 645.723578 745.626016 645.723578 845.528454 670.699187 820.552845 370.99187 820.552845 395.967479 845.528454 395.967479 745.626016 370.99187 770.601626 370.99187 770.601626ZM370.99187 720.650406 346.01626 720.650406 346.01626 745.626016 346.01626 845.528454 346.01626 870.504064 370.99187 870.504064 670.699187 870.504064 695.674797 870.504064 695.674797 845.528454 695.674797 745.626016 695.674797 720.650406 670.699187 720.650406 370.99187 720.650406 370.99187 720.650406Z"  /><path fill="#e6e6e6" d="M271.089431 246.113822 271.089431 46.308943 246.113822 71.284553 395.967479 71.284553 370.99187 46.308943 370.99187 246.113822 420.943089 246.113822 420.943089 46.308943 420.943089 21.333333 395.967479 21.333333 246.113822 21.333333 221.138211 21.333333 221.138211 46.308943 221.138211 246.113822 271.089431 246.113822 271.089431 246.113822Z"  /><path fill="#e6e6e6" d="M670.699187 246.113822 670.699187 46.308943 645.723578 71.284553 795.577235 71.284553 770.601626 46.308943 770.601626 246.113822 820.552845 246.113822 820.552845 46.308943 820.552845 21.333333 795.577235 21.333333 645.723578 21.333333 620.747968 21.333333 620.747968 46.308943 620.747968 246.113822 670.699187 246.113822 670.699187 246.113822Z"  /><path fill="#e6e6e6" d="M518.451452 283.577235 920.455262 283.577235 923.213357 283.424478C937.807279 281.802931 941.097152 283.844623 942.987091 291.362852 945.984582 303.286959 943.254669 324.456107 934.89696 351.4887 921.442901 395.00519 893.19792 452.711247 874.363055 482.533118 860.952322 503.766778 840.537295 529.450351 814.418007 558.432548 802.468169 571.692196 789.457762 585.494204 775.552122 599.715902 749.051078 626.819283 720.601165 654.146697 692.145451 680.300023 682.182899 689.456493 672.935959 697.80781 664.645611 705.181888 659.693062 709.587066 656.176173 712.673604 654.335411 714.270039L670.699187 708.162603 520.845527 708.162603 520.845527 758.113822 670.699187 758.113822 680.020811 758.113822 687.062963 752.006383C689.056909 750.277097 692.730099 747.053385 697.843661 742.504988 706.330161 734.956439 715.777427 726.424196 725.947095 717.07737 755.012011 690.364132 784.082726 662.440407 811.267603 634.637653 825.625463 619.953455 839.095669 605.663674 851.523968 591.873122 879.378679 560.965282 901.420233 533.235424 916.596256 509.20672 937.611232 475.933007 967.7329 414.392777 982.619403 366.243119 993.455917 331.192945 997.202187 302.142458 991.43111 279.184954 983.167678 246.312789 956.096139 229.512221 917.697167 233.778774L920.455262 233.626016 518.451452 233.626016 518.451452 283.577235 518.451452 283.577235Z"  /><path fill="#e6e6e6" d="M519.564585 233.626016 117.560772 233.626016 120.318867 233.778774C81.919896 229.512221 54.848356 246.312789 46.584924 279.184954 40.813847 302.142458 44.560117 331.192945 55.396632 366.243119 70.283135 414.392777 100.404802 475.933007 121.419778 509.20672 136.595803 533.235424 158.637355 560.965282 186.492066 591.873122 198.920365 605.663674 212.39057 619.953455 226.748431 634.637653 253.933308 662.440407 283.004023 690.364132 312.068939 717.07737 322.238607 726.424196 331.685873 734.956439 340.172373 742.504988 345.285937 747.053385 348.959125 750.277097 350.953073 752.006383L357.995223 758.113822 367.316847 758.113822 542.146116 758.113822 542.146116 708.162603 367.316847 708.162603 383.680623 714.270039C381.839861 712.673604 378.322972 709.587066 373.370423 705.181888 365.080075 697.80781 355.833135 689.456493 345.870583 680.300023 317.414869 654.146697 288.964958 626.819283 262.463913 599.715902 248.558272 585.494204 235.547866 571.692196 223.598028 558.432548 197.47874 529.450351 177.063713 503.766778 163.65298 482.533118 144.818114 452.711247 116.573134 395.00519 103.119074 351.4887 94.761367 324.456107 92.031452 303.286959 95.028944 291.362852 96.918883 283.844623 100.208756 281.802931 114.802678 283.424478L117.560772 283.577235 519.564585 283.577235 519.564585 233.626016 519.564585 233.626016Z"  /><path fill="#e6e6e6" d="M395.967479 858.01626 395.967479 995.382114C395.967479 1009.175763 407.14944 1020.357724 420.943089 1020.357724 434.736738 1020.357724 445.918699 1009.175763 445.918699 995.382114L445.918699 858.01626C445.918699 844.222611 434.736738 833.040651 420.943089 833.040651 407.14944 833.040651 395.967479 844.222611 395.967479 858.01626L395.967479 858.01626Z"  /><path fill="#e6e6e6" d="M595.772358 858.01626 595.772358 995.382114C595.772358 1009.175763 606.954319 1020.357724 620.747968 1020.357724 634.541615 1020.357724 645.723578 1009.175763 645.723578 995.382114L645.723578 858.01626C645.723578 844.222611 634.541615 833.040651 620.747968 833.040651 606.954319 833.040651 595.772358 844.222611 595.772358 858.01626L595.772358 858.01626Z"  /></svg>