<?xml version="1.0" standalone="no"?><!DOCTYPE svg PUBLIC "-//W3C//DTD SVG 1.1//EN" "http://www.w3.org/Graphics/SVG/1.1/DTD/svg11.dtd"><svg t="1723213132184" class="icon" viewBox="0 0 1024 1024" version="1.1" xmlns="http://www.w3.org/2000/svg" p-id="18404" xmlns:xlink="http://www.w3.org/1999/xlink" width="200" height="200"><path d="M633.93364 409.682862c-74.875242-27.948244-152.389913-30.062073-230.430185-6.855661-51.680256 11.071892-104.411714 39.020136-151.864312 80.679702l-3.702057 2.102402-2.113829 3.16503a471.726592 471.726592 0 0 0-83.844731 101.772285c-59.061518 94.916623-81.730903 203.007542-60.63832 288.966101 13.185721 53.782659 42.710767 95.442224 84.370332 120.225438 27.422643 16.339325 59.061518 24.257613 92.277194 24.257613 34.803905 0 71.710212-8.443889 108.627945-25.845841 15.288124-7.381261 30.050646-15.288124 43.761968-24.783214 59.587118-24.783214 118.648636-11.071892 158.194373 5.278859 38.494535 24.257613 79.617074 39.545737 118.648636 43.761968 43.236367 5.278859 84.358906-2.639429 118.111609-22.669385 41.659565-24.783214 71.184611-66.442779 84.370332-120.225438 21.092583-85.95856-1.588228-194.049478-60.63832-288.966101-54.83386-89.112164-133.399733-154.503742-215.130635-180.863758zM220.343051 465.053749c22.09808-28.69094 34.278304-67.242606 34.278304-107.211109s-12.225928-78.063124-34.278304-107.211108c-23.994813-31.033291-57.838925-48.435243-92.631403-48.435243-35.260949 0-68.648017 17.870422-92.631403 48.903713-22.09808 28.679514-34.278304 66.774136-34.278304 106.742638s12.225928 78.520168 34.278304 107.211109c23.994813 31.033291 57.370455 48.903714 92.631403 48.903714 34.792478 0 68.648017-17.870422 92.631403-48.903714zM658.911097 312.229644c34.803905 0 68.659443-17.870422 92.64283-48.903713 22.09808-28.679514 34.278304-67.242606 34.278304-107.211109s-12.225928-78.520168-34.278304-107.211108C727.559114 17.870422 694.183472 0 658.911097 0s-68.648017 17.870422-92.631403 48.903714c-22.09808 28.69094-34.278304 67.242606-34.278304 107.211108s12.225928 78.051698 34.278304 107.211109c23.514916 31.033291 57.370455 48.903714 92.631403 48.903713zM364.848954 312.229644c35.260949 0 68.648017-17.870422 92.631404-48.903713 22.09808-28.679514 34.278304-67.242606 34.278304-107.211109s-12.225928-78.520168-34.278304-107.211108C433.496971 17.870422 399.641433 0.434192 364.848954 0.434192s-68.659443 17.401952-92.642829 48.435243c-22.09808 28.69094-34.278304 67.242606-34.278304 107.211109s12.225928 78.051698 34.278304 107.211108c23.983387 31.067569 57.370455 48.937992 92.642829 48.937992zM988.919755 250.66581c-23.994813-31.033291-57.838925-48.435243-92.631403-48.435243-35.272375 0-68.659443 17.870422-92.642829 48.903713-22.09808 28.679514-34.278304 66.774136-34.278304 106.742639s12.225928 78.520168 34.278304 107.211108c23.994813 31.033291 57.370455 48.903714 92.642829 48.903714 34.792478 0 68.648017-17.870422 92.631403-48.903714 22.09808-28.69094 34.278304-67.242606 34.278304-107.211108s-12.180224-78.097402-34.278304-107.211109z" p-id="18405"></path></svg>