<?xml version="1.0" standalone="no"?><!DOCTYPE svg PUBLIC "-//W3C//DTD SVG 1.1//EN" "http://www.w3.org/Graphics/SVG/1.1/DTD/svg11.dtd"><svg t="1723213295295" class="icon" viewBox="0 0 1024 1024" version="1.1" xmlns="http://www.w3.org/2000/svg" p-id="33087" xmlns:xlink="http://www.w3.org/1999/xlink" width="200" height="200"><path d="M347.2 243.2c-8.8 0-16-7.2-16-16V116c0-8.8 7.2-16 16-16s16 7.2 16 16v111.2c0 8.8-6.4 16-16 16zM512 243.2c-8.8 0-16-7.2-16-16V20c0-8.8 7.2-16 16-16s16 7.2 16 16v207.2c0 8.8-7.2 16-16 16zM676.8 243.2c-8.8 0-16-7.2-16-16V116c0-8.8 7.2-16 16-16s16 7.2 16 16v111.2c0 8.8-7.2 16-16 16zM512 883.2c-251.2 0-456-204.8-456-456 0-8.8 7.2-16 16-16s16 7.2 16 16c0 233.6 190.4 424 424 424s424-190.4 424-424c0-8.8 7.2-16 16-16s16 7.2 16 16c0 251.2-204.8 456-456 456z" fill="#303C42" p-id="33088"></path><path d="M512 811.2c-4.8 0-8-3.2-8-8s3.2-8 8-8c146.4 0 278.4-87.2 337.6-221.6 1.6-4 6.4-5.6 10.4-4 4 1.6 5.6 6.4 4 10.4-60.8 140.8-199.2 231.2-352 231.2zM512 542.4c-226.4 0-456-41.6-456-120 0-79.2 229.6-120 456-120s456 41.6 456 120-229.6 120-456 120z m0-208.8c-258.4 0-424 52-424 88s164.8 88 424 88 424-52 424-88-165.6-88-424-88z" fill="#303C42" p-id="33089"></path><path d="M173.6 429.6c-3.2 0-6.4-2.4-8-5.6-1.6-4 0.8-8.8 4.8-10.4 28.8-9.6 140-40.8 340.8-40.8 4.8 0 8 3.2 8 8s-3.2 8-8 8c-198.4 0-307.2 30.4-336 40 0 0.8-0.8 0.8-1.6 0.8zM940.8 1020H83.2c-5.6 0-11.2-3.2-14.4-8L5.6 896c-2.4-4.8-2.4-11.2 0-16 3.2-4.8 8-8 13.6-8h984c5.6 0 11.2 3.2 13.6 8 3.2 4.8 3.2 11.2 0 16l-63.2 116c-1.6 4.8-7.2 8-12.8 8z m-848-32h838.4l45.6-84H47.2l45.6 84z" fill="#303C42" p-id="33090"></path></svg>