<?xml version="1.0" standalone="no"?><!DOCTYPE svg PUBLIC "-//W3C//DTD SVG 1.1//EN"
  "http://www.w3.org/Graphics/SVG/1.1/DTD/svg11.dtd">
<svg t="1723046765604" class="icon" viewBox="0 0 1024 1024" version="1.1" xmlns="http://www.w3.org/2000/svg"
     p-id="17686" width="200" height="200">
  <path
    d="M923.136 518.208c-2.176-64.448 29.184-122.176 78.4-156.544a501.8688 501.8688 0 0 0-37.12-89.472c-54.848 9.792-113.472-5.504-157.312-46.528-47.104-44.032-65.792-107.008-55.232-166.08a502.4896 502.4896 0 0 0-89.536-37.12c-31.872 45.76-84.16 76.416-144.128 78.464-64.448 2.176-122.24-29.248-156.544-78.464a502.4896 502.4896 0 0 0-89.536 37.12c9.792 54.848-5.504 113.536-46.464 157.376-43.968 47.104-107.072 65.792-166.08 55.232a502.4896 502.4896 0 0 0-37.12 89.536c45.76 31.872 76.352 84.16 78.4 144.128 2.176 64.448-29.184 122.176-78.4 156.48 9.536 31.232 22.016 61.184 37.184 89.536 54.848-9.792 113.408 5.504 157.248 46.528 47.104 43.968 65.792 107.008 55.232 166.016 28.352 15.104 58.368 27.584 89.6 37.12 31.808-45.696 84.096-76.352 144.064-78.4 64.448-2.176 122.176 29.184 156.544 78.4 31.232-9.536 61.184-22.016 89.536-37.12-9.792-54.848 5.504-113.472 46.464-157.312 43.968-47.104 107.072-65.792 166.08-55.232 15.104-28.352 27.584-58.304 37.12-89.536-45.76-31.872-76.352-84.16-78.4-144.128zM512 789.44c-153.216 0-277.44-124.16-277.44-277.44 0-153.216 124.224-277.376 277.44-277.376s277.44 124.16 277.44 277.376c0 153.28-124.224 277.44-277.44 277.44z"
    fill="#666666" p-id="17687"></path>
  <path d="M512 512m-189.184 0a189.184 189.184 0 1 0 378.368 0 189.184 189.184 0 1 0-378.368 0Z" fill="#666666"
        p-id="17688"></path>
</svg>
