<?xml version="1.0" standalone="no"?><!DOCTYPE svg PUBLIC "-//W3C//DTD SVG 1.1//EN" "http://www.w3.org/Graphics/SVG/1.1/DTD/svg11.dtd"><svg t="1723213315584" class="icon" viewBox="0 0 1025 1024" version="1.1" xmlns="http://www.w3.org/2000/svg" p-id="34126" xmlns:xlink="http://www.w3.org/1999/xlink" width="200.1953125" height="200"><path d="M512 510.522368c74.32192 0 134.787072-60.465152 134.787072-134.787072 0-74.320896-60.465152-134.785024-134.787072-134.785024-74.320896 0-134.785024 60.464128-134.785024 134.785024C377.213952 450.057216 437.67808 510.522368 512 510.522368zM512 293.193728c45.513728 0 82.542592 37.02784 82.542592 82.540544 0 45.513728-37.028864 82.542592-82.542592 82.542592-45.513728 0-82.540544-37.028864-82.540544-82.542592C429.458432 330.221568 466.486272 293.193728 512 293.193728zM928.226304 742.207488c-16.149504-15.023104-39.011328-28.829696-67.950592-41.038848-44.23168-18.660352-101.245952-33.22368-166.81472-42.74688 33.951744-41.248768 61.641728-81.483776 82.486272-119.896064 31.710208-58.43456 47.789056-113.205248 47.789056-162.7904 0-45.303808-8.22272-88.093696-24.438784-127.1808-15.624192-37.659648-38.23104-70.934528-67.191808-98.900992C674.90304 94.418944 596.736 64 512.001024 64c-85.389312 0-163.5072 29.571072-219.963392 83.26656-29.103104 27.679744-51.767296 60.929024-67.362816 98.823168-16.197632 39.358464-24.411136 82.976768-24.411136 129.644544 0 18.53952 2.255872 37.880832 6.729728 57.827328 0.060416 0.316416 0.126976 0.632832 0.198656 0.949248 1.630208 7.151616 3.559424 14.416896 5.781504 21.774336 1.780736 5.911552 3.74784 11.870208 5.899264 17.864704 0.064512 0.180224 0.131072 0.359424 0.198656 0.536576 3.083264 8.56064 6.541312 17.216512 10.35776 25.92768 5.82656 13.304832 20.814848 19.34848 34.118656 13.758464 13.046784-5.481472 19.284992-20.258816 14.200832-33.642496-0.09216-0.243712-0.2304-0.59904-0.406528-1.050624-0.280576-0.714752-0.684032-1.734656-1.170432-2.958336-0.939008-2.359296-2.19648-5.501952-3.456-8.64256-2.050048-5.112832-4.10624-10.22464-4.7872-11.917312-1.83296-5.129216-3.504128-10.202112-5.013504-15.212544-6.912-23.015424-10.407936-44.890112-10.407936-65.21344 0-152.783872 106.706944-259.490816 259.492864-259.490816 150.35904 0 259.489792 109.131776 259.489792 259.490816 0 156.867584-200.219648 341.798912-259.5072 393.109504-22.554624-19.482624-65.44384-58.226688-109.754368-107.302912-0.074752-0.082944-0.1536-0.159744-0.2304-0.241664-5.380096-6.207488-13.589504-9.792512-22.377472-8.900608-86.296576 8.725504-160.95232 25.588736-215.897088 48.769024-28.940288 12.209152-51.802112 26.015744-67.951616 41.038848-19.90656 18.518016-30.000128 38.956032-30.000128 60.745728 0 33.508352 24.530944 81.09568 141.395968 117.517312C288.964608 945.96096 397.222912 960 512.001024 960c114.777088 0 223.035392-14.03904 304.830464-39.530496 116.865024-36.420608 141.395968-84.00896 141.395968-117.517312C958.226432 781.162496 948.133888 760.725504 928.226304 742.207488zM801.286144 870.591488c-76.899328 23.965696-179.636224 37.164032-289.28512 37.164032-109.64992 0-212.386816-13.198336-289.286144-37.164032-72.322048-22.539264-104.695808-50.21184-104.695808-67.638272 0-28.17536 80.781312-77.696 253.848576-97.176576 63.911936 69.339136 121.273344 115.582976 123.785216 117.599232 4.775936 3.831808 10.561536 5.746688 16.347136 5.746688s11.572224-1.915904 16.34816-5.746688c2.678784-2.151424 60.017664-48.392192 123.787264-117.599232 173.06624 19.4816 253.846528 69.00224 253.846528 97.176576C905.982976 820.378624 873.609216 848.052224 801.286144 870.591488zM345.26208 583.322624c0-21.654528-17.616896-39.271424-39.271424-39.271424-21.653504 0-39.2704 17.615872-39.2704 39.271424 0 21.653504 17.616896 39.271424 39.2704 39.271424C327.646208 622.594048 345.26208 604.977152 345.26208 583.322624z" fill="#272636" p-id="34127"></path></svg>