<?xml version="1.0" standalone="no"?><!DOCTYPE svg PUBLIC "-//W3C//DTD SVG 1.1//EN" "http://www.w3.org/Graphics/SVG/1.1/DTD/svg11.dtd"><svg t="1723213466053" class="icon" viewBox="0 0 1275 1024" version="1.1" xmlns="http://www.w3.org/2000/svg" p-id="43818" xmlns:xlink="http://www.w3.org/1999/xlink" width="249.0234375" height="200"><path d="M885.71825 255.694269v422.900457h-154.644787V271.605376A142.641672 142.641672 0 0 0 697.855539 167.485329a144.037383 144.037383 0 0 0-103.840904-31.822212H154.365645V1004.911976H0V0h625.278563q127.847135 0 195.399551 70.622981a259.323118 259.323118 0 0 1 65.040136 185.071288zM365.118018 1004.911976V325.479823h154.365645v543.489894h440.486416q80.951243 0 108.586322-36.846772a162.181627 162.181627 0 0 0 27.914222-99.374629V0h154.086503v748.659422a271.047091 271.047091 0 0 1-62.527856 182.279867Q1125.501413 1004.911976 990.396581 1004.911976z" fill="#5D5D5D" p-id="43819"></path></svg>