<?xml version="1.0" standalone="no"?><!DOCTYPE svg PUBLIC "-//W3C//DTD SVG 1.1//EN" "http://www.w3.org/Graphics/SVG/1.1/DTD/svg11.dtd"><svg class="icon" width="200px" height="200.00px" viewBox="0 0 1024 1024" version="1.1" xmlns="http://www.w3.org/2000/svg"><path fill="#e6e6e6" d="M448.767819 632.321807L338.201835 521.755822c-10.117149-10.117149-26.015526-10.117149-36.132675 0s-10.117149 26.015526 0 35.410021l127.909669 127.909669s0 0.722653 0.722653 0.722653c5.058574 5.058574 11.562456 7.226535 18.066337 7.226535s13.007763-2.16796 18.066338-7.226535l275.330981-275.330981c10.117149-10.117149 10.117149-26.015526 0-36.132674s-26.015526-10.117149-36.132675 0L448.767819 632.321807z"  /><path fill="#e6e6e6" d="M919.937897 498.63091c-0.722653-13.730416-13.007763-24.570219-26.738179-23.847565-13.730416 0.722653-24.570219 12.285109-23.847566 26.738179 0 6.503881 0.722653 12.285109 0.722654 18.788991 0 198.729711-161.151729 359.88144-359.88144 359.88144S149.589273 718.317572 149.589273 519.587862 310.741002 159.706422 509.470713 159.706422c52.753705 0 103.33945 10.839802 151.03458 33.242061 5.058574 2.16796 10.839802 5.058574 15.898377 7.949188 12.285109 6.503881 27.460833 1.445307 33.964714-10.839802 6.503881-12.285109 1.445307-27.460833-10.839802-33.964714-5.781228-2.890614-12.285109-6.503881-18.788991-9.394496-54.199012-25.292872-112.011291-37.577982-171.991532-37.577982-226.190543 0-410.467184 184.276641-410.467184 410.467185s184.276641 410.467184 410.467184 410.467184 410.467184-184.276641 410.467184-410.467184c1.445307-7.226535 0.722653-14.45307 0.722654-20.956952z"  /><path fill="#e6e6e6" d="M877.301341 401.072689m-27.460833 0a27.460833 27.460833 0 1 0 54.921666 0 27.460833 27.460833 0 1 0-54.921666 0Z"  /><path fill="#e6e6e6" d="M836.832745 312.908963m-27.460833 0a27.460833 27.460833 0 1 0 54.921666 0 27.460833 27.460833 0 1 0-54.921666 0Z"  /><path fill="#e6e6e6" d="M771.071277 236.307692m-27.460832 0a27.460833 27.460833 0 1 0 54.921665 0 27.460833 27.460833 0 1 0-54.921665 0Z"  /></svg>