<?xml version="1.0" standalone="no"?><!DOCTYPE svg PUBLIC "-//W3C//DTD SVG 1.1//EN" "http://www.w3.org/Graphics/SVG/1.1/DTD/svg11.dtd"><svg class="icon" width="200px" height="200.00px" viewBox="0 0 1024 1024" version="1.1" xmlns="http://www.w3.org/2000/svg"><path fill="#e6e6e6" d="M945.953423 467.55681c9.394495-4.335921 15.898377-13.730416 15.898377-24.570219v-143.808045c0-38.300635-31.0741-69.374735-69.374736-69.374735h-750.114326c-38.300635 0-69.374735 31.0741-69.374735 69.374735v145.253352c0 10.839802 7.226535 20.956951 17.343684 24.570219 13.730416 5.058574 23.124912 18.066337 23.124911 33.242061 0 15.175723-9.394495 28.183486-23.124911 33.242061-10.839802 3.613267-17.343684 13.730416-17.343684 24.570218v140.194778c0 38.300635 31.0741 69.374735 69.374735 69.374735h750.114326c38.300635 0 69.374735-31.0741 69.374736-69.374735v-144.530699c0-10.839802-6.503881-20.234298-15.898377-24.570218-13.007763-5.781228-21.679605-18.066337-21.679605-32.519408 0-13.007763 8.671842-26.015526 21.679605-31.0741z m-36.855328-39.745942c-23.124912 16.62103-37.577982 43.35921-37.577982 72.265349s14.45307 55.644319 37.577982 72.26535v128.632321c0 8.671842-7.226535 16.62103-16.621031 16.621031h-750.114326c-8.671842 0-16.62103-7.226535-16.62103-16.621031v-123.573747c25.292872-15.898377 41.191249-44.081863 41.191249-74.43331 0-30.351447-15.898377-58.534933-41.191249-74.433309v-128.632322c0-8.671842 7.226535-16.62103 16.62103-16.621031h750.114326c8.671842 0 16.62103 7.226535 16.621031 16.621031v127.909668z"  /><path fill="#e6e6e6" d="M740.719831 399.627382m-28.183487 0a28.183486 28.183486 0 1 0 56.366973 0 28.183486 28.183486 0 1 0-56.366973 0Z"  /><path fill="#e6e6e6" d="M740.719831 500.076217m-28.183487 0a28.183486 28.183486 0 1 0 56.366973 0 28.183486 28.183486 0 1 0-56.366973 0Z"  /><path fill="#e6e6e6" d="M740.719831 600.525053m-28.183487 0a28.183486 28.183486 0 1 0 56.366973 0 28.183486 28.183486 0 1 0-56.366973 0Z"  /><path fill="#e6e6e6" d="M542.712773 456.717008c14.45307 0 26.738179-11.562456 26.73818-26.738179s-11.562456-26.738179-26.73818-26.73818h-31.796753l15.898377-35.410021c5.781228-13.007763 0-28.90614-13.730417-34.687368-13.007763-5.781228-28.90614 0-34.687367 13.730417l-25.292873 57.089626h-45.52717l-25.292872-57.089626c-5.781228-13.007763-21.679605-19.511644-34.687368-13.730417-13.007763 5.781228-19.511644 21.679605-13.730416 34.687368l15.898377 35.410021h-41.913903c-14.45307 0-26.738179 11.562456-26.738179 26.73818s11.562456 26.738179 26.738179 26.738179h91.05434v62.1482h-91.05434c-14.45307 0-26.738179 11.562456-26.738179 26.738179s11.562456 26.738179 26.738179 26.73818h91.05434v70.820042c0 14.45307 11.562456 26.738179 26.73818 26.738179s26.738179-11.562456 26.738179-26.738179v-70.820042h91.05434c14.45307 0 26.738179-11.562456 26.738179-26.73818s-11.562456-26.738179-26.738179-26.738179h-91.05434v-62.1482h90.331686z"  /></svg>