<?xml version="1.0" standalone="no"?><!DOCTYPE svg PUBLIC "-//W3C//DTD SVG 1.1//EN" "http://www.w3.org/Graphics/SVG/1.1/DTD/svg11.dtd"><svg class="icon" width="200px" height="200.00px" viewBox="0 0 1024 1024" version="1.1" xmlns="http://www.w3.org/2000/svg"><path fill="#e6e6e6" d="M813.707833 773.961891m-27.460832 0a27.460833 27.460833 0 1 0 54.921665 0 27.460833 27.460833 0 1 0-54.921665 0Z"  /><path fill="#e6e6e6" d="M867.906845 687.243472m-27.460832 0a27.460833 27.460833 0 1 0 54.921665 0 27.460833 27.460833 0 1 0-54.921665 0Z"  /><path fill="#e6e6e6" d="M901.87156 592.575865m-27.460833 0a27.460833 27.460833 0 1 0 54.921665 0 27.460833 27.460833 0 1 0-54.921665 0Z"  /><path fill="#e6e6e6" d="M716.872265 825.270289c-63.593507 44.081863-138.749471 67.206775-216.073394 67.206775-211.01482 0-383.006351-171.991531-383.006352-383.006351 0-179.218066 127.187015-336.756528 302.791814-374.33451 13.730416-2.890614 22.402258-16.62103 19.511644-30.351446-2.890614-13.730416-16.62103-22.402258-30.351446-19.511645C211.01482 127.187015 67.206775 305.682428 67.206775 509.470713c0 239.198306 194.39379 433.592096 433.592096 433.592096 88.163726 0 172.714185-26.015526 244.979534-75.878617 11.562456-7.949188 14.45307-23.847565 6.503882-35.410021-7.949188-11.562456-23.847565-14.45307-35.410022-6.503882z"  /><path fill="#e6e6e6" d="M509.470713 63.593507c-13.730416 0-25.292872 11.562456-25.292872 25.292873v408.299223c0 13.730416 11.562456 25.292872 25.292872 25.292873H917.769936c13.730416 0 25.292872-11.562456 25.292873-25.292873 0-238.475653-194.39379-433.592096-433.592096-433.592096zM534.763585 471.892731V114.901905c191.503176 12.285109 344.705716 166.210303 356.990826 356.990826H534.763585z"  /></svg>