<?xml version="1.0" standalone="no"?><!DOCTYPE svg PUBLIC "-//W3C//DTD SVG 1.1//EN" "http://www.w3.org/Graphics/SVG/1.1/DTD/svg11.dtd"><svg class="icon" width="200px" height="200.00px" viewBox="0 0 1024 1024" version="1.1" xmlns="http://www.w3.org/2000/svg"><path fill="#e6e6e6" d="M154.4 1002.857143c-7.542857 0-14.742857-3.771429-18.971429-10.171429-5.142857-7.657143-5.142857-17.6-0.114285-25.257143l58.514285-89.028571c9.371429-14.514286 5.142857-34.4-9.485714-45.142857C67.885714 747.542857 1.142857 621.714286 1.142857 488.228571c0-61.142857 13.714286-120.342857 40.571429-176.114285 25.942857-53.6 62.971429-101.714286 110.057143-142.971429 46.857143-41.028571 101.485714-73.257143 162.171428-95.771428 62.742857-23.2 129.257143-34.971429 197.828572-34.971429 58.628571 0 116.114286 8.685714 170.971428 25.828571 53.028571 16.571429 102.4 40.685714 146.628572 71.657143 10.285714 7.2 12.8 21.485714 5.6 31.885715-7.2 10.285714-21.485714 12.8-31.885715 5.6-40.342857-28.228571-85.485714-50.285714-134.057143-65.485715-50.4-15.771429-103.314286-23.771429-157.257142-23.771428-63.085714 0-124.342857 10.857143-181.942858 32.114285-55.428571 20.571429-105.257143 49.942857-147.885714 87.2C94.857143 279.771429 46.857143 380.914286 46.857143 488.228571c0 118.857143 60 231.2 164.571428 308.228572 34.057143 25.028571 43.2 72 20.685715 106.742857 0 0-0.114286 0.114286-0.114286 0.228571l-29.028571 44.114286 165.371428-31.2c0.114286 0 0.228571 0 0.342857-0.114286L508 892.571429c1.257143-0.228571 2.514286-0.342857 3.885714-0.342858 63.085714 0 124.342857-10.857143 181.942857-32.114285 55.428571-20.571429 105.257143-49.942857 147.885715-87.2 87.085714-76.228571 135.085714-177.371429 135.085714-284.685715 0-45.371429-8.571429-89.942857-25.6-132.457142-16.457143-41.257143-40.457143-79.657143-71.314286-114.4-8.342857-9.485714-7.542857-23.885714 1.942857-32.228572 9.485714-8.342857 23.885714-7.542857 32.228572 1.942857 34.4 38.628571 61.142857 81.6 79.542857 127.771429 19.085714 47.885714 28.8 98.171429 28.8 149.371428 0 61.142857-13.714286 120.342857-40.571429 176.114286-25.942857 53.6-62.971429 101.714286-110.057142 142.971429-46.857143 41.028571-101.485714 73.257143-162.171429 95.771428-62.057143 22.971429-128 34.742857-195.885714 34.971429l-137.142857 23.428571-218.057143 41.142857c-1.371429 0.114286-2.742857 0.228571-4.114286 0.228572zM512.914286 667.428571c-12.571429 0-22.857143-10.285714-22.857143-22.857142V250.285714c0-12.571429 10.285714-22.857143 22.857143-22.857143s22.857143 10.285714 22.857143 22.857143v394.285715c0 12.571429-10.285714 22.857143-22.857143 22.857142zM513.257143 715.428571m-22.857143 0a22.857143 22.857143 0 1 0 45.714286 0 22.857143 22.857143 0 1 0-45.714286 0Z" /></svg>