<?xml version="1.0" standalone="no"?><!DOCTYPE svg PUBLIC "-//W3C//DTD SVG 1.1//EN" "http://www.w3.org/Graphics/SVG/1.1/DTD/svg11.dtd"><svg class="icon" width="200px" height="200.00px" viewBox="0 0 1024 1024" version="1.1" xmlns="http://www.w3.org/2000/svg"><path fill="#e6e6e6" d="M645.32957 128.632322c-8.671842-4.335921-18.066337-3.613267-26.015526 1.445307L276.053634 364.940014l-18.78899 13.007763H140.917431c-13.730416 0-25.292872 11.562456-25.292872 25.292872v259.432604c0 13.730416 11.562456 25.292872 25.292872 25.292873h124.296401c13.730416 0 25.292872-11.562456 25.292872-25.292873s-11.562456-25.292872-25.292872-25.292872H166.210303v-209.569513h99.003529c5.058574 0 10.117149-1.445307 14.45307-4.335921l328.084686-224.745236v685.075511c0 13.730416 11.562456 25.292872 25.292872 25.292873s25.292872-11.562456 25.292872-25.292873V151.03458c0-9.394495-5.058574-18.066337-13.007762-22.402258z"  /><path fill="#e6e6e6" d="M792.750882 518.865208c0-39.745942-26.738179-75.878617-65.038814-86.718419-13.730416-4.335921-27.460833 3.613267-31.796754 17.343684-4.335921 13.730416 3.613267 27.460833 17.343684 31.796754 16.62103 5.058574 28.90614 20.956951 28.90614 38.300635s-11.562456 33.242061-28.90614 38.300635c-13.730416 3.613267-20.956951 18.066337-17.343684 31.796754 3.613267 10.839802 13.007763 18.066337 24.570219 18.066337 2.16796 0 5.058574 0 7.226535-0.722654 38.300635-13.007763 65.038814-48.417784 65.038814-88.163726z"  /><path fill="#e6e6e6" d="M776.129852 315.076923c-13.007763-5.058574-27.460833 2.16796-32.519407 15.175723-5.058574 13.007763 2.16796 27.460833 15.175723 32.519408 65.038814 23.847565 109.120677 85.995766 109.120677 155.370501S823.824982 649.66549 758.786168 673.513056c-13.007763 5.058574-20.234298 19.511644-15.175723 32.519407 3.613267 10.117149 13.730416 16.62103 23.847565 16.62103 2.890614 0 5.781228-0.722653 8.671842-1.445307 85.273112-31.0741 142.362738-112.733945 142.362738-203.065631 0-90.331687-57.089626-171.991531-142.362738-203.065632z"  /><path fill="#e6e6e6" d="M356.990826 724.821454m-27.460833 0a27.460833 27.460833 0 1 0 54.921665 0 27.460833 27.460833 0 1 0-54.921665 0Z"  /><path fill="#e6e6e6" d="M440.818631 773.239238m-27.460833 0a27.460833 27.460833 0 1 0 54.921666 0 27.460833 27.460833 0 1 0-54.921666 0Z"  /><path fill="#e6e6e6" d="M523.923783 820.934368m-27.460833 0a27.460833 27.460833 0 1 0 54.921665 0 27.460833 27.460833 0 1 0-54.921665 0Z"  /></svg>