<?xml version="1.0" standalone="no"?><!DOCTYPE svg PUBLIC "-//W3C//DTD SVG 1.1//EN" "http://www.w3.org/Graphics/SVG/1.1/DTD/svg11.dtd"><svg class="icon" width="200px" height="200.00px" viewBox="0 0 1024 1024" version="1.1" xmlns="http://www.w3.org/2000/svg"><path fill="#e6e6e6" d="M442.742857 715.085714c-5.828571 0-11.657143-2.285714-16.114286-6.742857l-219.542857-219.428571c-8.914286-8.914286-8.914286-23.428571 0-32.342857s23.428571-8.914286 32.342857 0l203.314286 203.314285 344.571429-344.571428c8.914286-8.914286 23.428571-8.914286 32.342857 0s8.914286 23.428571 0 32.342857L458.857143 708.457143c-4.457143 4.457143-10.285714 6.628571-16.114286 6.628571zM512.342857 1024c-69.142857 0-136.114286-13.485714-199.314286-40.228571-60.914286-25.828571-115.771429-62.742857-162.742857-109.714286-46.971429-46.971429-83.885714-101.714286-109.714285-162.742857C13.828571 648.228571 0.342857 581.142857 0.342857 512s13.485714-136.114286 40.228572-199.314286c25.828571-60.914286 62.742857-115.771429 109.714285-162.742857 46.971429-46.971429 101.714286-83.885714 162.742857-109.714286C376.114286 13.6 443.2 0 512.342857 0 581.714286 0 648.914286 13.714286 712.228571 40.571429c61.142857 25.942857 116 63.085714 163.085715 110.4 8.914286 8.914286 8.914286 23.428571-0.114286 32.342857-8.914286 8.914286-23.428571 8.914286-32.342857-0.114286-42.857143-43.085714-92.8-76.914286-148.571429-100.571429C636.8 58.171429 575.542857 45.714286 512.342857 45.714286c-62.971429 0-124 12.342857-181.485714 36.685714-55.542857 23.428571-105.371429 57.142857-148.228572 99.885714s-76.457143 92.685714-99.885714 148.228572C58.4 388 46.057143 449.142857 46.057143 512c0 62.971429 12.342857 124 36.685714 181.485714 23.428571 55.542857 57.142857 105.371429 99.885714 148.228572 42.857143 42.857143 92.685714 76.457143 148.228572 99.885714 57.485714 24.342857 118.514286 36.685714 181.485714 36.685714s124-12.342857 181.485714-36.685714c55.542857-23.428571 105.371429-57.142857 148.228572-99.885714 42.857143-42.857143 76.457143-92.685714 99.885714-148.228572 24.342857-57.485714 36.685714-118.514286 36.685714-181.485714 0-73.142857-16.457143-143.2-48.914285-208.114286-5.6-11.314286-1.028571-25.028571 10.285714-30.628571 11.314286-5.6 25.028571-1.028571 30.628571 10.285714 35.657143 71.314286 53.714286 148.228571 53.714286 228.571429 0 69.142857-13.485714 136.114286-40.228571 199.314285-25.828571 61.028571-62.742857 115.771429-109.714286 162.742858-46.971429 46.971429-101.714286 83.885714-162.742857 109.714285-63.2 26.628571-130.171429 40.114286-199.314286 40.114286z" /></svg>