<?xml version="1.0" standalone="no"?><!DOCTYPE svg PUBLIC "-//W3C//DTD SVG 1.1//EN" "http://www.w3.org/Graphics/SVG/1.1/DTD/svg11.dtd"><svg class="icon" width="200px" height="200.00px" viewBox="0 0 1024 1024" version="1.1" xmlns="http://www.w3.org/2000/svg"><path fill="#e6e6e6" d="M996.228571 438.628571h-45.714285V134.4H804.685714v-45.714286h167.428572c13.257143 0 24 10.742857 24 24v325.942857zM365.828571 88.685714h292.571429v45.714286h-292.571429zM972.228571 1022.971429H51.428571c-13.257143 0-24-10.742857-24-24V112.685714c0-13.257143 10.742857-24 24-24h168v45.714286H73.142857v842.857143h877.371429V512h45.714285v486.971429c0 13.142857-10.857143 24-24 24zM963.771429 392.457143H60.228571c-13.028571 0-23.657143-10.285714-23.657142-22.857143s10.628571-22.857143 23.657142-22.857143h903.542858c13.028571 0 23.657143 10.285714 23.657142 22.857143s-10.628571 22.857143-23.657142 22.857143zM297.371429 224.457143c-12.571429 0-22.857143-10.285714-22.857143-22.857143v-178.285714c0-12.571429 10.285714-22.857143 22.857143-22.857143s22.857143 10.285714 22.857142 22.857143v178.4c0 12.571429-10.171429 22.742857-22.857142 22.742857zM733.714286 218.971429c-12.571429 0-22.857143-10.285714-22.857143-22.857143V23.314286c0-12.571429 10.285714-22.857143 22.857143-22.857143s22.857143 10.285714 22.857143 22.857143v172.8c0 12.571429-10.171429 22.857143-22.857143 22.857143zM615.542857 784.342857c-5.828571 0-11.657143-2.285714-16.114286-6.742857L392.342857 570.628571c-8.914286-8.914286-8.914286-23.428571 0-32.342857s23.428571-8.914286 32.342857 0l207.085715 207.085715c8.914286 8.914286 8.914286 23.428571 0 32.342857-4.457143 4.342857-10.4 6.628571-16.228572 6.628571zM408.571429 784.342857c-5.828571 0-11.657143-2.285714-16.114286-6.742857-8.914286-8.914286-8.914286-23.428571 0-32.342857L599.428571 538.285714c8.914286-8.914286 23.428571-8.914286 32.342858 0 8.914286 8.914286 8.914286 23.428571 0 32.342857L424.685714 777.6c-4.457143 4.457143-10.285714 6.742857-16.114285 6.742857z" /></svg>