<?xml version="1.0" standalone="no"?><!DOCTYPE svg PUBLIC "-//W3C//DTD SVG 1.1//EN" "http://www.w3.org/Graphics/SVG/1.1/DTD/svg11.dtd"><svg class="icon" width="200px" height="200.00px" viewBox="0 0 1024 1024" version="1.1" xmlns="http://www.w3.org/2000/svg"><path fill="#e6e6e6" d="M154.628571 993.714286c-7.542857 0-14.742857-3.771429-18.971428-10.171429-5.142857-7.657143-5.142857-17.6-0.114286-25.257143l58.514286-89.028571c9.371429-14.514286 5.142857-34.4-9.485714-45.142857C68.114286 738.4 1.371429 612.571429 1.371429 479.085714c0-61.142857 13.714286-120.342857 40.571428-176.114285 25.942857-53.6 62.971429-101.714286 110.057143-142.971429 46.857143-41.028571 101.485714-73.257143 162.171429-95.771429C376.914286 41.028571 443.428571 29.257143 512 29.257143c58.628571 0 116.114286 8.685714 170.971429 25.828571 53.028571 16.571429 102.4 40.685714 146.628571 71.657143 10.285714 7.2 12.8 21.485714 5.6 31.885714-7.2 10.285714-21.485714 12.914286-31.885714 5.6-40.342857-28.228571-85.485714-50.285714-134.057143-65.485714-50.285714-15.771429-103.2-23.771429-157.257143-23.771428-63.085714 0-124.342857 10.857143-181.942857 32.114285-55.428571 20.571429-105.257143 49.942857-147.885714 87.2C95.085714 270.628571 47.085714 371.771429 47.085714 479.085714c0 118.857143 60 231.2 164.571429 308.228572 34.057143 25.028571 43.2 72 20.685714 106.742857 0 0-0.114286 0.114286-0.114286 0.228571l-29.028571 44.114286 165.371429-31.2c0.114286 0 0.228571 0 0.342857-0.114286L508.228571 883.428571c1.257143-0.228571 2.514286-0.342857 3.885715-0.342857 63.085714 0 124.342857-10.857143 181.942857-32.114285 55.428571-20.571429 105.257143-49.942857 147.885714-87.2 87.085714-76.228571 135.085714-177.371429 135.085714-284.685715 0-45.371429-8.571429-89.942857-25.6-132.457143-16.457143-41.257143-40.457143-79.657143-71.314285-114.4-8.342857-9.485714-7.542857-23.885714 1.942857-32.228571s23.885714-7.542857 32.228571 1.942857c34.4 38.628571 61.142857 81.6 79.542857 127.771429 19.085714 47.885714 28.8 98.171429 28.8 149.371428 0 61.142857-13.714286 120.342857-40.571428 176.114286-25.942857 53.6-62.971429 101.714286-110.057143 142.971429-46.857143 41.028571-101.485714 73.257143-162.171429 95.771428-62.057143 22.971429-128 34.742857-195.885714 34.971429l-137.142857 23.428571-218.057143 41.142857c-1.371429 0.114286-2.742857 0.228571-4.114286 0.228572zM397.942857 478.742857c-3.542857-13.257143-14.057143-24.457143-28.342857-28.228571-21.371429-5.714286-43.314286 6.971429-49.142857 28.342857-5.714286 21.371429 6.971429 43.314286 28.342857 49.142857 4.685714 1.257143 9.485714 1.6 14.171429 1.142857-7.085714 9.942857-16.571429 17.142857-24.914286 18.4-7.657143 1.142857-13.028571 8.228571-12 15.885714 1.028571 7.085714 7.085714 12.114286 13.942857 12.114286 0.685714 0 1.371429-0.114286 1.942857-0.114286 20.342857-2.857143 41.257143-20.571429 52.114286-44.114285 8.228571-17.828571 9.485714-36.342857 3.885714-52.571429zM703.2 478.742857c-3.542857-13.257143-14.057143-24.457143-28.342857-28.228571-21.371429-5.714286-43.428571 6.971429-49.142857 28.342857-5.714286 21.371429 6.971429 43.428571 28.342857 49.142857 4.685714 1.257143 9.485714 1.6 14.171428 1.142857-7.085714 9.942857-16.571429 17.142857-24.914285 18.4-7.657143 1.142857-13.028571 8.228571-12 15.885714 1.028571 7.085714 7.085714 12.114286 13.942857 12.114286 0.685714 0 1.371429-0.114286 1.942857-0.114286 20.342857-2.857143 41.257143-20.571429 52.114286-44.114285 8.228571-17.828571 9.485714-36.342857 3.885714-52.571429z" /></svg>