<?xml version="1.0" standalone="no"?><!DOCTYPE svg PUBLIC "-//W3C//DTD SVG 1.1//EN" "http://www.w3.org/Graphics/SVG/1.1/DTD/svg11.dtd"><svg class="icon" width="200px" height="200.00px" viewBox="0 0 1024 1024" version="1.1" xmlns="http://www.w3.org/2000/svg"><path fill="#e6e6e6" d="M825.992943 677.848977m-26.738179 0a26.738179 26.738179 0 1 0 53.476358 0 26.738179 26.738179 0 1 0-53.476358 0Z"  /><path fill="#e6e6e6" d="M796.36415 762.399435m-26.73818 0a26.738179 26.738179 0 1 0 53.476359 0 26.738179 26.738179 0 1 0-53.476359 0Z"  /><path fill="#e6e6e6" d="M719.762879 807.926606m-26.738179 0a26.738179 26.738179 0 1 0 53.476359 0 26.738179 26.738179 0 1 0-53.476359 0Z"  /><path fill="#e6e6e6" d="M444.431898 663.395907c-13.730416 0-24.570219-10.839802-24.570218-24.570219v-223.299929l-42.636556 42.636556c-9.394495 9.394495-25.292872 9.394495-34.687368 0-9.394495-9.394495-9.394495-25.292872 0-34.687368l84.550459-84.550459c7.226535-7.226535 17.343684-9.394495 26.738179-5.058574 9.394495 3.613267 15.175723 13.007763 15.175723 23.124912v282.557516c0 12.285109-10.839802 23.847565-24.570219 23.847565zM576.677488 663.395907c-2.890614 0-6.503881-0.722653-9.394496-2.167961-9.394495-3.613267-15.175723-13.007763-15.175723-23.124911v-282.557516c0-13.730416 10.839802-24.570219 24.570219-24.570219s24.570219 10.839802 24.570218 24.570219v223.299929l42.636557-42.636556c9.394495-9.394495 25.292872-9.394495 34.687367 0 9.394495 9.394495 9.394495 25.292872 0 34.687368l-84.550459 84.550458c-4.335921 5.058574-10.839802 7.949188-17.343683 7.949189z"  /><path fill="#e6e6e6" d="M628.708539 836.110092h-300.623853c-85.995766 0-156.093155-70.097389-156.093155-156.093155v-365.662667c0-85.995766 70.097389-156.093155 156.093155-156.093155h365.662668c85.995766 0 156.093155 70.097389 156.093154 156.093155v273.885674c0 13.730416-10.839802 24.570219-24.570219 24.570218s-24.570219-10.839802-24.570218-24.570218v-273.885674c0-58.534933-47.695131-106.952717-106.952717-106.952717h-365.662668c-58.534933 0-106.952717 47.695131-106.952717 106.952717v365.662667c0 58.534933 47.695131 106.952717 106.952717 106.952717h300.623853c13.730416 0 24.570219 10.839802 24.570219 24.570219 0 13.007763-10.839802 24.570219-24.570219 24.570219z"  /></svg>