<?xml version="1.0" standalone="no"?><!DOCTYPE svg PUBLIC "-//W3C//DTD SVG 1.1//EN" "http://www.w3.org/Graphics/SVG/1.1/DTD/svg11.dtd"><svg class="icon" width="200px" height="200.00px" viewBox="0 0 1024 1024" version="1.1" xmlns="http://www.w3.org/2000/svg"><path fill="#e6e6e6" d="M536.208892 920.66055h-310.741002c-29.628793 0-54.199012-24.570219-54.199012-54.199012v-110.565984h260.155257c15.175723 0 28.183486-12.285109 28.183487-28.183486s-12.285109-28.183486-28.183487-28.183486h-260.155257v-558.611151c0-29.628793 24.570219-54.199012 54.199012-54.199012h431.424135c29.628793 0 54.199012 24.570219 54.199012 54.199012v364.217361c0 15.175723 12.285109 28.183486 28.183487 28.183486 15.175723 0 28.183486-12.285109 28.183486-28.183486v-364.217361c0-60.702893-49.140438-110.565984-110.565985-110.565984h-431.424135c-60.702893 0-110.565984 49.140438-110.565985 110.565984v725.544107c0 60.702893 49.140438 110.565984 110.565985 110.565985h310.741002c15.175723 0 28.183486-12.285109 28.183486-28.183486-0.722653-15.898377-13.007763-28.183486-28.183486-28.183487z"  /><path fill="#e6e6e6" d="M401.795342 807.926606c-15.175723 0-28.183486 12.285109-28.183486 28.183486 0 15.175723 12.285109 28.183486 28.183486 28.183486h57.089626c15.175723 0 28.183486-12.285109 28.183486-28.183486 0-15.175723-12.285109-28.183486-28.183486-28.183486h-57.089626z"  /><path fill="#e6e6e6" d="M334.588567 179.218066m-30.351446 0a30.351447 30.351447 0 1 0 60.702893 0 30.351447 30.351447 0 1 0-60.702893 0Z"  /><path fill="#e6e6e6" d="M440.818631 179.218066m-30.351447 0a30.351447 30.351447 0 1 0 60.702894 0 30.351447 30.351447 0 1 0-60.702894 0Z"  /><path fill="#e6e6e6" d="M547.771348 179.218066m-30.351447 0a30.351447 30.351447 0 1 0 60.702894 0 30.351447 30.351447 0 1 0-60.702894 0Z"  /><path fill="#e6e6e6" d="M970.523641 698.805928c-4.335921-70.820042-59.98024-125.741708-127.187014-125.741708-41.191249 0-76.60127 16.62103-99.726182 43.35921-23.124912-26.738179-58.534933-43.35921-99.726182-43.35921-67.206775 0-122.851094 54.921665-127.187015 125.741708-0.722653 12.285109-1.445307 56.366972 20.956951 108.398024 21.679605 49.863091 70.097389 119.96048 178.495413 169.100917 3.613267 1.445307 10.117149 4.335921 20.234298 5.781228 2.16796 0.722653 4.335921 0.722653 6.503881 0.722654h2.890614c2.16796 0 4.335921 0 6.503882-0.722654 9.394495-1.445307 16.62103-4.335921 20.234297-5.781228 204.510939-92.499647 199.452364-259.432604 198.007057-277.498941z m-222.577275 226.913197c-1.445307 0.722653-0.722653 0-1.445307 0.722653-0.722653 0-1.445307 0.722653-2.167961 0.722654-1.445307 0-2.16796-0.722653-2.16796-0.722654-0.722653-0.722653 0 0-1.445307-0.722653-171.991531-77.323924-168.378264-208.124206-166.932957-223.29993 2.16796-41.191249 33.964714-72.988003 71.542696-72.988002 33.964714 0 68.652082 20.234298 71.542695 58.534933v3.613267c-1.445307 13.730416 7.949188 26.015526 20.956952 29.628793 0.722653 0 0.722653 0 1.445307 0.722654h10.839802c13.730416-2.16796 23.847565-14.45307 23.847565-28.90614v-4.335921c2.890614-39.023289 37.577982-59.257586 71.542696-59.257586 37.577982 0 69.374735 31.796754 71.542696 73.710656-1.445307 13.730416 2.16796 145.253352-169.100917 222.577276z"  /></svg>