<?xml version="1.0" standalone="no"?><!DOCTYPE svg PUBLIC "-//W3C//DTD SVG 1.1//EN" "http://www.w3.org/Graphics/SVG/1.1/DTD/svg11.dtd"><svg class="icon" width="200px" height="200.00px" viewBox="0 0 1024 1024" version="1.1" xmlns="http://www.w3.org/2000/svg"><path fill="#e6e6e6" d="M513.806634 536.931546m-27.460833 0a27.460833 27.460833 0 1 0 54.921665 0 27.460833 27.460833 0 1 0-54.921665 0Z"  /><path fill="#e6e6e6" d="M417.693719 536.931546m-27.460833 0a27.460833 27.460833 0 1 0 54.921666 0 27.460833 27.460833 0 1 0-54.921666 0Z"  /><path fill="#e6e6e6" d="M321.580805 536.931546m-27.460833 0a27.460833 27.460833 0 1 0 54.921665 0 27.460833 27.460833 0 1 0-54.921665 0Z"  /><path fill="#e6e6e6" d="M685.075512 242.08892H317.967537c-13.730416 0-25.292872 11.562456-25.292872 25.292873s11.562456 25.292872 25.292872 25.292872h367.107975c13.730416 0 25.292872-11.562456 25.292872-25.292872s-11.562456-25.292872-25.292872-25.292873z"  /><path fill="#e6e6e6" d="M685.075512 379.393084H317.967537c-13.730416 0-25.292872 11.562456-25.292872 25.292872s11.562456 25.292872 25.292872 25.292873h367.107975c13.730416 0 25.292872-11.562456 25.292872-25.292873s-11.562456-25.292872-25.292872-25.292872z"  /><path fill="#e6e6e6" d="M768.903317 119.96048H235.585039c-36.855328 0-66.484121 29.628793-66.484122 66.484121v648.220184c0 36.855328 29.628793 66.484121 66.484122 66.484121h533.318278c36.855328 0 66.484121-29.628793 66.484121-66.484121V186.444601c-0.722653-36.855328-30.351447-66.484121-66.484121-66.484121z m15.175723 713.981651c0 8.671842-7.226535 15.898377-15.898377 15.898377H235.585039c-8.671842 0-15.898377-7.226535-15.898377-15.898377V186.444601c0-8.671842 7.226535-15.898377 15.898377-15.898377h533.318278c8.671842 0 15.898377 7.226535 15.898377 15.898377v647.49753z"  /></svg>