<?xml version="1.0" standalone="no"?><!DOCTYPE svg PUBLIC "-//W3C//DTD SVG 1.1//EN" "http://www.w3.org/Graphics/SVG/1.1/DTD/svg11.dtd"><svg class="icon" width="200px" height="200.00px" viewBox="0 0 1024 1024" version="1.1" xmlns="http://www.w3.org/2000/svg"><path fill="#e6e6e6" d="M912.711362 505.134792c9.394495-3.613267 15.175723-13.007763 15.175723-23.124912v-137.304164c0-36.855328-29.628793-66.484121-66.484121-66.484121H143.808045c-36.855328 0-66.484121 29.628793-66.484121 66.484121v138.749471c0 10.839802 6.503881 20.234298 16.62103 23.847565 13.730416 5.058574 22.402258 17.343684 22.402258 31.796754S107.675371 565.837685 93.944954 570.89626c-10.117149 3.613267-16.62103 13.007763-16.62103 23.847565v134.41355c0 36.855328 29.628793 66.484121 66.484121 66.484121h718.317573c36.855328 0 66.484121-29.628793 66.484121-66.484121V590.407904c0-10.117149-5.781228-19.511644-15.175723-23.124912-12.285109-5.058574-20.234298-17.343684-20.234298-31.0741-1.445307-13.730416 6.503881-26.015526 19.511644-31.0741z m-35.410021-38.300635c-22.402258 15.898377-36.132675 41.191249-36.132675 69.374735 0 28.183486 13.730416 53.476359 36.132675 69.374735v123.573748c0 8.671842-7.226535 15.898377-15.898377 15.898377H143.808045c-8.671842 0-15.898377-7.226535-15.898377-15.898377V609.919548c23.847565-15.175723 39.023289-41.913903 39.023289-71.542695s-15.175723-55.644319-39.023289-71.542696v-122.851094c0-8.671842 7.226535-15.898377 15.898377-15.898377h718.317573c8.671842 0 15.898377 7.226535 15.898376 15.898377v122.851094z"  /><path fill="#e6e6e6" d="M716.149612 440.095977m-27.460833 0a27.460833 27.460833 0 1 0 54.921666 0 27.460833 27.460833 0 1 0-54.921666 0Z"  /><path fill="#e6e6e6" d="M716.149612 536.208892m-27.460833 0a27.460833 27.460833 0 1 0 54.921666 0 27.460833 27.460833 0 1 0-54.921666 0Z"  /><path fill="#e6e6e6" d="M716.149612 632.321807m-27.460833 0a27.460833 27.460833 0 1 0 54.921666 0 27.460833 27.460833 0 1 0-54.921666 0Z"  /><path fill="#e6e6e6" d="M380.115737 399.627382c-7.949188-3.613267-16.62103-1.445307-23.124911 4.335921L281.834862 479.119266c-7.949188 7.949188-7.949188 21.679605 0 29.628793 7.949188 7.949188 21.679605 7.949188 29.628794 0l39.023288-39.023288v184.27664c0 11.562456 9.394495 20.956951 20.956952 20.956952s20.956951-9.394495 20.956951-20.956952V419.139026c0.722653-8.671842-4.335921-16.62103-12.28511-19.511644zM527.53705 563.669725l-39.023289 39.023288V419.139026c0-11.562456-9.394495-20.956951-20.956951-20.956951-11.562456 0-20.956951 9.394495-20.956951 20.956951v234.862385c0 8.671842 5.058574 15.898377 13.007763 19.511645 2.890614 0.722653 5.058574 1.445307 7.949188 1.445307 5.781228 0 10.839802-2.16796 15.175724-6.503882l75.155963-75.155963c7.949188-7.949188 7.949188-21.679605 0-29.628793-8.671842-7.949188-21.679605-7.949188-30.351447 0z"  /></svg>