<?xml version="1.0" standalone="no"?><!DOCTYPE svg PUBLIC "-//W3C//DTD SVG 1.1//EN" "http://www.w3.org/Graphics/SVG/1.1/DTD/svg11.dtd"><svg class="icon" width="200px" height="200.00px" viewBox="0 0 1024 1024" version="1.1" xmlns="http://www.w3.org/2000/svg"><path fill="#e6e6e6" d="M870.074806 459.607622m-37.577982 0a37.577982 37.577982 0 1 0 75.155964 0 37.577982 37.577982 0 1 0-75.155964 0Z"  /><path fill="#e6e6e6" d="M776.129852 365.662668m-37.577982 0a37.577982 37.577982 0 1 0 75.155963 0 37.577982 37.577982 0 1 0-75.155963 0Z"  /><path fill="#e6e6e6" d="M681.462244 270.99506m-37.577981 0a37.577982 37.577982 0 1 0 75.155963 0 37.577982 37.577982 0 1 0-75.155963 0Z"  /><path fill="#e6e6e6" d="M922.105857 57.089626h-788.414961c-19.511644 0-35.410021 15.898377-35.410021 35.410021s15.898377 35.410021 35.410021 35.410021h321.580805l-309.295695 309.295695c-13.730416 13.730416-13.730416 36.132675 0 49.863091 6.503881 6.503881 15.898377 10.117149 24.570218 10.117149 8.671842 0 18.066337-3.613267 24.570219-10.117149l290.506704-290.506704v747.946366c0 19.511644 15.898377 35.410021 35.410022 35.410021s35.410021-15.898377 35.410021-35.410021V194.39379c13.730416 12.285109 34.687368 12.285109 48.417784-1.445307 13.730416-13.730416 13.730416-36.132675 0-49.863091l-16.62103-16.621031h333.865913c19.511644 0 35.410021-15.898377 35.410022-35.410021 0-18.066337-15.898377-33.964714-35.410022-33.964714z"  /></svg>