<?xml version="1.0" standalone="no"?><!DOCTYPE svg PUBLIC "-//W3C//DTD SVG 1.1//EN" "http://www.w3.org/Graphics/SVG/1.1/DTD/svg11.dtd"><svg class="icon" width="200px" height="200.00px" viewBox="0 0 1024 1024" version="1.1" xmlns="http://www.w3.org/2000/svg"><path fill="#e6e6e6" d="M512.361327 557.165843m-27.460833 0a27.460833 27.460833 0 1 0 54.921665 0 27.460833 27.460833 0 1 0-54.921665 0Z"  /><path fill="#e6e6e6" d="M444.431898 489.236415m-27.460832 0a27.460833 27.460833 0 1 0 54.921665 0 27.460833 27.460833 0 1 0-54.921665 0Z"  /><path fill="#e6e6e6" d="M376.50247 421.306987m-27.460833 0a27.460833 27.460833 0 1 0 54.921666 0 27.460833 27.460833 0 1 0-54.921666 0Z"  /><path fill="#e6e6e6" d="M261.600565 889.58645c-20.234298 0-40.468596-5.781228-58.534933-17.343684l-41.913903-26.738179c-51.308398-32.519407-66.484121-100.448836-33.964714-151.03458l100.448835-158.261115c13.730416-22.402258 35.410021-38.300635 60.702894-46.249824 13.007763-4.335921 27.460833 3.613267 31.796754 16.621031 4.335921 13.730416-3.613267 27.460833-16.621031 31.796754-13.730416 4.335921-25.292872 13.007763-32.519407 24.570218l-100.448836 158.261115c-17.343684 27.460833-9.394495 64.316161 18.066338 81.659845l41.913902 26.738179c13.007763 8.671842 28.90614 10.839802 44.804517 7.949189 15.175723-3.613267 28.90614-12.285109 36.855328-26.015526l100.448836-158.261115c7.949188-12.285109 10.839802-26.738179 8.671842-40.468596-2.16796-13.730416 7.226535-26.738179 20.956951-28.906139 13.730416-2.16796 26.738179 7.226535 28.90614 20.956951 4.335921 26.015526-1.445307 53.476359-15.898377 75.155963l-100.448836 158.261115c-15.898377 24.570219-39.745942 41.913903-68.652082 48.417784-7.949188 2.16796-15.898377 2.890614-24.570218 2.890614z"  /><path fill="#e6e6e6" d="M582.458716 521.755822c-5.058574 0-10.117149 0-15.175724-0.722653-13.730416-2.16796-23.847565-14.45307-21.679605-28.183487 2.16796-13.730416 14.45307-23.124912 28.183487-21.679604 13.730416 2.16796 28.183486-1.445307 39.745942-8.671842l157.538461-101.894143c13.007763-8.671842 22.402258-21.679605 25.292873-36.855328s0.722653-31.0741-7.949189-44.081863l-26.738179-41.191249c-17.343684-27.460833-54.199012-35.410021-81.659845-17.343684l-157.538461 101.894143c-12.285109 7.949188-20.956951 19.511644-24.570219 33.24206-3.613267 13.730416-18.066337 20.956951-31.0741 17.343684-13.730416-3.613267-20.956951-18.066337-17.343684-31.0741 7.226535-25.292872 23.847565-47.695131 45.52717-62.148201l157.538461-101.894142c50.585745-32.519407 118.515173-18.066337 151.757234 32.519407l26.738179 41.191249c32.519407 50.585745 18.066337 118.515173-32.519407 151.757234l-157.538461 101.894142c-16.62103 9.394495-37.577982 15.898377-58.534933 15.898377z"  /></svg>