<?xml version="1.0" standalone="no"?><!DOCTYPE svg PUBLIC "-//W3C//DTD SVG 1.1//EN" "http://www.w3.org/Graphics/SVG/1.1/DTD/svg11.dtd"><svg class="icon" width="200px" height="200.00px" viewBox="0 0 1024 1024" version="1.1" xmlns="http://www.w3.org/2000/svg"><path fill="#e6e6e6" d="M375.057163 522.478476m-29.628793 0a29.628793 29.628793 0 1 0 59.257586 0 29.628793 29.628793 0 1 0-59.257586 0Z"  /><path fill="#e6e6e6" d="M268.8271 522.478476m-29.628794 0a29.628793 29.628793 0 1 0 59.257587 0 29.628793 29.628793 0 1 0-59.257587 0Z"  /><path fill="#e6e6e6" d="M268.8271 630.153846m-29.628794 0a29.628793 29.628793 0 1 0 59.257587 0 29.628793 29.628793 0 1 0-59.257587 0Z"  /><path fill="#e6e6e6" d="M878.746648 146.698659H802.145378v-33.242061c0-15.175723-12.285109-28.183486-28.183487-28.183486-15.175723 0-28.183486 12.285109-28.183486 28.183486v33.242061h-455.271701v-33.242061c0-15.175723-12.285109-28.183486-28.183486-28.183486-15.175723 0-28.183486 12.285109-28.183486 28.183486v33.242061H151.03458c-33.242061 0-59.98024 26.738179-59.98024 59.98024v658.337332c0 33.242061 26.738179 59.98024 59.98024 59.98024h727.712068c33.242061 0 59.98024-26.738179 59.98024-59.98024v-658.337332c0-33.242061-26.738179-59.98024-59.98024-59.98024zM151.03458 202.342978h83.827805v13.007763c0 15.175723 12.285109 28.183486 28.183487 28.183486 15.175723 0 28.183486-12.285109 28.183486-28.183486V202.342978h455.271701v13.007763c0 15.175723 12.285109 28.183486 28.183486 28.183486 15.175723 0 28.183486-12.285109 28.183486-28.183486V202.342978h76.60127c2.16796 0 4.335921 2.16796 4.335921 4.335921V325.916725H147.421313v-119.960479c0-1.445307 1.445307-3.613267 3.613267-3.613268z m727.712068 666.286521H151.03458c-2.16796 0-4.335921-2.16796-4.335921-4.335921V381.561044h735.661256v482.732534c0.722653 2.890614-1.445307 4.335921-3.613267 4.335921z"  /></svg>