<?xml version="1.0" standalone="no"?><!DOCTYPE svg PUBLIC "-//W3C//DTD SVG 1.1//EN" "http://www.w3.org/Graphics/SVG/1.1/DTD/svg11.dtd"><svg class="icon" width="200px" height="200.00px" viewBox="0 0 1024 1024" version="1.1" xmlns="http://www.w3.org/2000/svg"><path fill="#e6e6e6" d="M512.114286 1024c-3.657143 0-7.2-0.914286-10.514286-2.628571l-374.971429-195.428572c-6.971429-3.657143-11.542857-10.628571-12.228571-18.4l-57.142857-697.142857c-0.914286-11.657143 6.971429-22.057143 18.4-24.342857l432.114286-84.571429c2.857143-0.571429 5.828571-0.571429 8.8 0l431.885714 84.571429c11.428571 2.285714 19.314286 12.685714 18.4 24.342857l-5.371429 65.142857c-1.028571 12.571429-12.114286 21.942857-24.685714 20.914286-12.571429-1.028571-21.942857-12.114286-20.914286-24.685714l3.657143-44.8-407.428571-79.657143-407.657143 79.771428L158.857143 791.2l353.257143 184.114286L865.142857 791.2l43.428572-529.257143c1.028571-12.571429 12.114286-21.942857 24.685714-20.914286 12.571429 1.028571 21.942857 12.114286 20.914286 24.685715L909.714286 807.542857c-0.685714 7.771429-5.257143 14.742857-12.228572 18.4l-374.742857 195.428572c-3.314286 1.714286-6.971429 2.628571-10.628571 2.628571zM511.657143 682.4c-12.571429 0-22.857143-10.285714-22.857143-22.857143v-416c0-12.571429 10.285714-22.857143 22.857143-22.857143s22.857143 10.285714 22.857143 22.857143v416c0 12.685714-10.171429 22.857143-22.857143 22.857143zM512 732.685714m-22.857143 0a22.857143 22.857143 0 1 0 45.714286 0 22.857143 22.857143 0 1 0-45.714286 0Z" /></svg>