<?xml version="1.0" standalone="no"?><!DOCTYPE svg PUBLIC "-//W3C//DTD SVG 1.1//EN" "http://www.w3.org/Graphics/SVG/1.1/DTD/svg11.dtd"><svg class="icon" width="200px" height="200.00px" viewBox="0 0 1024 1024" version="1.1" xmlns="http://www.w3.org/2000/svg"><path fill="#e6e6e6" d="M540.544813 508.025406L773.961891 274.608327c8.671842-8.671842 8.671842-23.124912 0-31.796753-8.671842-8.671842-23.124912-8.671842-31.796753 0l-233.417079 233.417078L274.608327 242.08892c-8.671842-8.671842-23.124912-8.671842-31.796753 0s-8.671842 23.124912 0 31.796754l233.417078 233.417078-234.139732 234.139732c-8.671842 8.671842-8.671842 23.124912 0 31.796754 4.335921 4.335921 10.117149 6.503881 15.898377 6.503881 5.781228 0 11.562456-2.16796 15.898377-6.503881l233.417078-233.417079L740.719831 773.239238c4.335921 4.335921 10.117149 6.503881 15.898376 6.503881s11.562456-2.16796 15.898377-6.503881c8.671842-8.671842 8.671842-23.124912 0-31.796754l-231.971771-233.417078z"  /></svg>