<?xml version="1.0" standalone="no"?><!DOCTYPE svg PUBLIC "-//W3C//DTD SVG 1.1//EN" "http://www.w3.org/Graphics/SVG/1.1/DTD/svg11.dtd"><svg class="icon" width="200px" height="200.00px" viewBox="0 0 1024 1024" version="1.1" xmlns="http://www.w3.org/2000/svg"><path fill="#e6e6e6" d="M807.926606 809.371912v-1.445306c-23.124912-106.952717-101.171489-191.503176-200.175018-226.190544 46.972477-32.519407 77.323924-86.718419 77.323924-148.143966 0-99.726182-80.937191-180.663373-180.663374-180.663373s-180.663373 80.937191-180.663373 180.663373c0 61.425547 31.0741 115.624559 78.046577 148.86662-85.273112 30.351447-154.647848 96.835568-187.167254 182.10868-57.089626-67.206775-91.05434-153.925194-91.054341-248.592802 0.722653-213.182781 173.436838-385.896965 385.896966-385.896965 185.721948 0 345.42837 132.245589 378.67043 315.076923 2.890614 13.730416 15.898377 23.124912 29.628793 20.234298 13.730416-2.890614 23.124912-15.898377 20.234298-29.628794C899.703599 229.081157 719.762879 79.491884 509.470713 79.491884c-240.643613 0-435.760056 195.839097-435.760057 435.760057 0 122.851094 51.308398 234.139732 133.690897 313.631616 1.445307 2.16796 3.613267 3.613267 5.058574 5.058574 78.046577 72.988003 182.831334 117.069866 297.010586 117.069866 107.675371 0 211.01482-39.745942 291.229358-111.288638 5.781228-5.058574 9.394495-13.007763 7.949188-21.679605l-0.722653-6.503881v-2.167961z m-433.592096-375.779816c0-71.542696 58.534933-130.077629 130.077628-130.077629s130.077629 58.534933 130.077629 130.077629-58.534933 130.077629-130.077629 130.077629-130.077629-58.534933-130.077628-130.077629z m135.136203 467.55681c-97.558222 0-186.444601-36.132675-254.37403-96.112914C285.44813 693.747354 388.064926 614.978123 504.412138 614.978123c118.515173 0 223.299929 82.382498 251.483416 197.284403-68.652082 57.089626-156.093155 88.88638-246.424841 88.88638z"  /><path fill="#e6e6e6" d="M858.51235 734.215949m-27.460833 0a27.460833 27.460833 0 1 0 54.921666 0 27.460833 27.460833 0 1 0-54.921666 0Z"  /><path fill="#e6e6e6" d="M901.87156 639.548342m-27.460833 0a27.460833 27.460833 0 1 0 54.921665 0 27.460833 27.460833 0 1 0-54.921665 0Z"  /><path fill="#e6e6e6" d="M923.551164 542.712773m-27.460832 0a27.460833 27.460833 0 1 0 54.921665 0 27.460833 27.460833 0 1 0-54.921665 0Z"  /></svg>