<?xml version="1.0" standalone="no"?><!DOCTYPE svg PUBLIC "-//W3C//DTD SVG 1.1//EN" "http://www.w3.org/Graphics/SVG/1.1/DTD/svg11.dtd"><svg class="icon" width="200px" height="200.00px" viewBox="0 0 1024 1024" version="1.1" xmlns="http://www.w3.org/2000/svg"><path fill="#e6e6e6" d="M412.114286 534.628571c-71.314286 0-138.514286-27.771429-188.914286-78.285714-50.514286-50.514286-78.285714-117.6-78.285714-188.914286s27.771429-138.514286 78.285714-188.914285C273.6 28 340.685714 0.228571 412.114286 0.228571s138.514286 27.771429 188.914285 78.285715c50.514286 50.514286 78.285714 117.6 78.285715 188.914285s-27.771429 138.514286-78.285715 188.914286c-50.514286 50.514286-117.6 78.285714-188.914285 78.285714z m0-488.685714c-122.171429 0-221.485714 99.314286-221.485715 221.485714S289.942857 488.914286 412.114286 488.914286 633.6 389.6 633.6 267.428571 534.171429 45.942857 412.114286 45.942857zM22.857143 1022.171429c-12.571429 0-22.857143-10.285714-22.857143-22.857143 0-125.714286 36.228571-251.428571 99.542857-345.257143 34.514286-51.085714 75.657143-91.314286 122.514286-119.428572 51.2-30.857143 108-46.514286 168.571428-46.514285 12.571429 0 22.857143 10.285714 22.857143 22.857143s-10.285714 22.857143-22.857143 22.857142c-128 0-208.342857 79.314286-253.257142 145.828572-58.285714 86.4-91.657143 202.857143-91.657143 319.657143 0 12.571429-10.171429 22.857143-22.857143 22.857143zM705.942857 1022.857143h-682.285714c-12.571429 0-22.857143-10.285714-22.857143-22.857143s10.285714-22.857143 22.857143-22.857143h682.4c12.571429 0 22.857143 10.285714 22.857143 22.857143s-10.285714 22.857143-22.971429 22.857143zM740.914286 754.514286c-8.457143 0-16.571429-4.685714-20.571429-12.914286-27.542857-56.571429-62.514286-103.085714-104.114286-138.057143-9.6-8.114286-10.857143-22.514286-2.742857-32.228571 8.114286-9.6 22.514286-10.857143 32.228572-2.742857 46.4 39.2 85.371429 90.628571 115.771428 153.028571 5.485714 11.314286 0.8 25.028571-10.514285 30.514286-3.314286 1.714286-6.742857 2.4-10.057143 2.4zM878.4 1022.742857c-80 0-145.028571-65.028571-145.028571-145.028571s65.142857-145.142857 145.028571-145.142857c80 0 145.142857 65.142857 145.142857 145.142857s-65.142857 145.028571-145.142857 145.028571z m0-244.457143c-54.742857 0-99.314286 44.571429-99.314286 99.314286s44.571429 99.314286 99.314286 99.314286c54.742857 0 99.314286-44.571429 99.314286-99.314286S933.257143 778.285714 878.4 778.285714zM863.885714 935.771429c-5.828571 0-11.657143-2.285714-16.114285-6.742858l-35.657143-35.428571c-8.914286-8.914286-8.914286-23.428571 0-32.342857 8.914286-8.914286 23.428571-8.914286 32.342857 0l19.428571 19.428571 47.771429-47.771428c8.914286-8.914286 23.428571-8.914286 32.342857 0 8.914286 8.914286 8.914286 23.428571 0 32.342857l-64 63.885714c-4.457143 4.457143-10.285714 6.628571-16.114286 6.628572z" /></svg>