<?xml version="1.0" standalone="no"?><!DOCTYPE svg PUBLIC "-//W3C//DTD SVG 1.1//EN" "http://www.w3.org/Graphics/SVG/1.1/DTD/svg11.dtd"><svg class="icon" width="200px" height="200.00px" viewBox="0 0 1024 1024" version="1.1" xmlns="http://www.w3.org/2000/svg"><path fill="#e6e6e6" d="M514.529287 72.265349c-243.534227 0-441.541284 198.007057-441.541284 441.541285s198.007057 441.541284 441.541284 441.541284 441.541284-198.007057 441.541285-441.541284S758.063514 72.265349 514.529287 72.265349z m234.139732 313.631616L455.271701 679.294284c-5.058574 5.058574-12.285109 7.949188-18.788991 7.949188s-13.730416-2.890614-18.788991-7.949188c0 0 0-0.722653-0.722653-0.722654L280.389555 542.712773c-10.839802-10.839802-10.839802-27.460833 0-38.300635s27.460833-10.839802 38.300636 0l117.792519 117.79252 274.608327-274.608328c10.839802-10.839802 27.460833-10.839802 38.300636 0 10.117149 10.839802 10.117149 27.460833-0.722654 38.300635z"  /></svg>