<?xml version="1.0" standalone="no"?><!DOCTYPE svg PUBLIC "-//W3C//DTD SVG 1.1//EN" "http://www.w3.org/Graphics/SVG/1.1/DTD/svg11.dtd"><svg class="icon" width="200px" height="200.00px" viewBox="0 0 1024 1024" version="1.1" xmlns="http://www.w3.org/2000/svg"><path fill="#e6e6e6" d="M314.857143 488.342857h217.942857v45.714286H314.857143zM314.857143 291.314286h388.228571v45.714285H314.857143zM314.857143 684.114286h388.228571v45.714285H314.857143zM857.028571 290.742857v685.6H166.514286V45.942857h498.857143v175.085714c0 13.142857 10.742857 23.885714 23.885714 23.885715h213.371428v-54.4C902.742857 85.6 817.371429 0.228571 712.457143 0.228571H145.142857c-13.485714 0-24.342857 10.971429-24.342857 24.342858V997.714286c0 13.485714 10.971429 24.342857 24.342857 24.342857h733.142857c13.485714 0 24.342857-10.971429 24.342857-24.342857V290.742857h-45.6zM711.085714 45.942857h1.371429c79.657143 0 144.571429 64.8 144.571428 144.571429v8.8H711.085714V45.942857z" /></svg>