<?xml version="1.0" standalone="no"?><!DOCTYPE svg PUBLIC "-//W3C//DTD SVG 1.1//EN" "http://www.w3.org/Graphics/SVG/1.1/DTD/svg11.dtd"><svg class="icon" width="200px" height="200.00px" viewBox="0 0 1024 1024" version="1.1" xmlns="http://www.w3.org/2000/svg"><path fill="#e6e6e6" d="M938.726888 481.287227c-0.722653-15.175723-13.007763-26.015526-28.183486-25.292873s-26.015526 13.730416-25.292873 28.183487c0 6.503881 0.722653 13.007763 0.722654 20.234297 0 211.737474-171.991531 384.451658-384.451659 384.451659s-384.451658-171.991531-384.451658-384.451659 171.991531-384.451658 384.451658-384.451658c56.366972 0 110.565984 11.562456 161.151729 35.410021l17.343684 8.671842c13.007763 7.226535 29.628793 2.16796 36.132675-11.562456 7.226535-13.007763 2.16796-29.628793-11.562456-36.132675-6.503881-3.613267-13.007763-6.503881-19.511644-9.394495-57.812279-26.738179-119.237826-40.468596-183.553988-40.468596-241.366267 0-437.928017 196.56175-437.928017 437.928017s196.56175 437.928017 437.928017 437.928017S939.449541 745.778405 939.449541 504.412138c0-7.949188-0.722653-15.175723-0.722653-23.124911z"  /><path fill="#e6e6e6" d="M893.199718 377.947777m-28.90614 0a28.90614 28.90614 0 1 0 57.812279 0 28.90614 28.90614 0 1 0-57.812279 0Z"  /><path fill="#e6e6e6" d="M849.840508 283.280169m-28.90614 0a28.90614 28.90614 0 1 0 57.81228 0 28.90614 28.90614 0 1 0-57.81228 0Z"  /><path fill="#e6e6e6" d="M779.743119 201.620325m-28.906139 0a28.90614 28.90614 0 1 0 57.812279 0 28.90614 28.90614 0 1 0-57.812279 0Z"  /><path fill="#e6e6e6" d="M622.927311 381.561044l36.855328-83.105151c5.781228-13.730416 0-29.628793-13.730416-35.410021-13.730416-5.781228-29.628793 0-35.410021 13.730416l-43.35921 98.280875-2.16796 6.503881h-99.726182c-0.722653-2.16796-0.722653-4.335921-2.167961-6.503881l-43.359209-98.280875c-5.781228-13.730416-21.679605-19.511644-35.410022-13.730416s-19.511644 21.679605-13.730416 35.410021l36.855328 83.105151h-96.112914c-15.175723 0-26.738179 12.285109-26.73818 26.73818s12.285109 26.738179 26.73818 26.738179h168.378264v137.304164h-168.378264c-15.175723 0-26.738179 12.285109-26.73818 26.738179s12.285109 26.738179 26.73818 26.738179h168.378264v134.41355c0 15.175723 12.285109 26.738179 26.738179 26.738179 15.175723 0 26.738179-12.285109 26.738179-26.738179v-134.41355h169.100917c15.175723 0 26.738179-12.285109 26.73818-26.738179s-12.285109-26.738179-26.73818-26.738179h-169.82357v-137.304164h169.100917c15.175723 0 26.738179-12.285109 26.738179-26.738179s-12.285109-26.738179-26.738179-26.73818h-78.769231z"  /></svg>