<?xml version="1.0" standalone="no"?><!DOCTYPE svg PUBLIC "-//W3C//DTD SVG 1.1//EN" "http://www.w3.org/Graphics/SVG/1.1/DTD/svg11.dtd"><svg class="icon" width="200px" height="200.00px" viewBox="0 0 1024 1024" version="1.1" xmlns="http://www.w3.org/2000/svg"><path fill="#e6e6e6" d="M868.629499 838.278052L683.630205 653.278758c46.972477-54.921665 72.265349-124.296401 72.265349-197.284404 0-168.378264-137.304164-305.682428-305.682428-305.682427C281.834862 150.311927 144.530699 287.61609 144.530699 455.994354c0 168.378264 137.304164 305.682428 305.682427 305.682428 44.804517 0 88.163726-9.394495 129.354976-28.90614 13.007763-5.781228 18.066337-20.956951 12.285109-33.964714C585.34933 686.520819 570.89626 680.739591 557.888497 686.520819c-33.964714 15.898377-70.097389 23.847565-107.675371 23.847565C310.018349 710.368384 195.116443 596.189132 195.116443 455.271701c0-140.194778 114.179252-255.096683 255.096683-255.096683 140.194778 0 255.096683 114.179252 255.096683 255.096683 0 67.929428-26.738179 132.245589-74.433309 179.94072-10.117149 10.117149-10.117149 26.015526 0 36.132674l202.342978 202.342978c5.058574 5.058574 11.562456 7.226535 18.066337 7.226535s13.007763-2.16796 18.066337-7.226535c8.671842-9.394495 8.671842-26.015526-0.722653-35.410021z"  /><path fill="#e6e6e6" d="M286.893437 376.50247m-27.460833 0a27.460833 27.460833 0 1 0 54.921666 0 27.460833 27.460833 0 1 0-54.921666 0Z"  /><path fill="#e6e6e6" d="M268.104446 473.338038m-27.460833 0a27.460833 27.460833 0 1 0 54.921666 0 27.460833 27.460833 0 1 0-54.921666 0Z"  /><path fill="#e6e6e6" d="M311.463656 554.997883m-27.460833 0a27.460833 27.460833 0 1 0 54.921665 0 27.460833 27.460833 0 1 0-54.921665 0Z"  /></svg>