<?xml version="1.0" standalone="no"?><!DOCTYPE svg PUBLIC "-//W3C//DTD SVG 1.1//EN" "http://www.w3.org/Graphics/SVG/1.1/DTD/svg11.dtd"><svg class="icon" width="200px" height="200.00px" viewBox="0 0 1024 1024" version="1.1" xmlns="http://www.w3.org/2000/svg"><path fill="#e6e6e6" d="M693.09698 495.671722L486.652734 289.227475c-8.906334-8.906334-23.407672-8.906334-32.314006 0s-8.906334 23.407672 0 32.314006l167.850134 167.850134H22.838282c-12.560214 0-22.836753 10.276539-22.836753 22.836753s10.276539 22.836753 22.836753 22.836752h599.578948L454.452912 703.029438c-8.906334 8.906334-8.906334 23.407672 0 32.314005 4.453167 4.453167 10.276539 6.736842 16.099911 6.736842s11.646744-2.283675 16.099911-6.736842l206.444246-206.444246c4.567351-4.567351 6.851026-10.61909 6.622658-16.670829 0.228368-5.937556-2.055308-11.989295-6.622658-16.556646zM999.680387 1024H147.869504c-13.245317 0-23.978591-10.733274-23.97859-23.978591v-245.495093h45.673506v223.800178h808.421052V47.043711H169.56442v223.343443h-45.673506V25.348796c0-13.245317 10.733274-23.978591 23.97859-23.978591h851.810883c13.245317 0 23.978591 10.733274 23.978591 23.978591v974.55843c0 13.245317-10.733274 24.092774-23.978591 24.092774z" /></svg>