<?xml version="1.0" standalone="no"?><!DOCTYPE svg PUBLIC "-//W3C//DTD SVG 1.1//EN" "http://www.w3.org/Graphics/SVG/1.1/DTD/svg11.dtd"><svg class="icon" width="200px" height="200.00px" viewBox="0 0 1024 1024" version="1.1" xmlns="http://www.w3.org/2000/svg"><path fill="#e6e6e6" d="M511.638673 59.98024c-232.694425 0-422.752294 189.335215-422.752293 422.752294 0 28.90614 2.890614 59.257586 9.394495 89.609033 37.577982 179.94072 177.050106 268.8271 208.124206 286.893437l58.534933 90.331686c5.058574 7.226535 13.007763 11.562456 20.956951 11.562456 3.613267 0 7.226535-0.722653 10.117149-2.16796l119.96048-53.476359c230.526464-2.890614 416.971066-191.503176 416.971066-422.752293 1.445307-233.417078-187.889908-422.752294-421.306987-422.752294z m0 794.196189c-3.613267 0-7.226535 0.722653-10.117149 2.167961L396.736768 903.316867l-50.585745-77.323924c-2.16796-3.613267-5.781228-6.503881-9.394495-8.671842-1.445307-0.722653-151.757234-80.214538-187.889908-255.096683-5.781228-26.738179-8.671842-53.476359-8.671842-79.491884 0-205.233592 166.932957-372.166549 372.166549-372.16655s372.166549 166.932957 372.166549 372.16655-167.65561 371.443896-372.889203 371.443895z"  /><path fill="#e6e6e6" d="M415.525759 439.373324m-27.460833 0a27.460833 27.460833 0 1 0 54.921665 0 27.460833 27.460833 0 1 0-54.921665 0Z"  /><path fill="#e6e6e6" d="M511.638673 439.373324m-27.460832 0a27.460833 27.460833 0 1 0 54.921665 0 27.460833 27.460833 0 1 0-54.921665 0Z"  /><path fill="#e6e6e6" d="M607.751588 439.373324m-27.460833 0a27.460833 27.460833 0 1 0 54.921666 0 27.460833 27.460833 0 1 0-54.921666 0Z"  /></svg>