<?xml version="1.0" standalone="no"?><!DOCTYPE svg PUBLIC "-//W3C//DTD SVG 1.1//EN" "http://www.w3.org/Graphics/SVG/1.1/DTD/svg11.dtd"><svg class="icon" width="200px" height="200.00px" viewBox="0 0 1024 1024" version="1.1" xmlns="http://www.w3.org/2000/svg"><path fill="#e6e6e6" d="M818.766408 728.434721c-10.839802-8.671842-26.738179-7.226535-35.410021 3.613268-67.206775 82.382498-166.210303 130.077629-273.163021 130.077629-193.671136 0-351.209598-157.538462-351.209597-351.209598S316.52223 158.983769 510.193366 158.983769c78.046577 0 151.03458 24.570219 211.737474 70.820042h-23.124912c-13.730416 0-25.292872 11.562456-25.292872 25.292872s11.562456 25.292872 25.292872 25.292872h87.441073c13.730416 0 25.292872-11.562456 25.292872-25.292872V171.991531c0-13.730416-11.562456-25.292872-25.292872-25.292872s-25.292872 11.562456-25.292873 25.292872v24.570219C690.134086 139.472124 603.415667 108.398024 510.193366 108.398024 289.061397 108.398024 108.398024 289.061397 108.398024 510.91602s180.663373 401.795342 401.795342 401.795342c121.405787 0 235.585039-54.199012 312.186309-148.86662 9.394495-10.839802 7.226535-26.738179-3.613267-35.410021z"  /><path fill="#e6e6e6" d="M890.309104 490.681722m-25.292873 0a25.292872 25.292872 0 1 0 50.585745 0 25.292872 25.292872 0 1 0-50.585745 0Z"  /><path fill="#e6e6e6" d="M884.527876 578.845448m-25.292872 0a25.292872 25.292872 0 1 0 50.585744 0 25.292872 25.292872 0 1 0-50.585744 0Z"  /><path fill="#e6e6e6" d="M856.34439 663.395907m-25.292873 0a25.292872 25.292872 0 1 0 50.585745 0 25.292872 25.292872 0 1 0-50.585745 0Z"  /></svg>