<?xml version="1.0" standalone="no"?><!DOCTYPE svg PUBLIC "-//W3C//DTD SVG 1.1//EN" "http://www.w3.org/Graphics/SVG/1.1/DTD/svg11.dtd"><svg class="icon" width="200px" height="200.00px" viewBox="0 0 1024 1024" version="1.1" xmlns="http://www.w3.org/2000/svg"><path fill="#e6e6e6" d="M493.572336 922.828511h-216.073395c-54.921665 0-99.726182-44.804517-99.726182-99.726182v-654.724065c0-54.921665 44.804517-99.726182 99.726182-99.726182h389.510233c54.921665 0 99.726182 44.804517 99.726182 99.726182v291.229358c0 13.730416-11.562456 25.292872-25.292872 25.292872s-25.292872-11.562456-25.292872-25.292872v-291.229358c0-26.738179-22.402258-49.140438-49.140438-49.140438h-389.510233c-26.738179 0-49.140438 22.402258-49.140437 49.140438v654.724065c0 26.738179 22.402258 49.140438 49.140437 49.140437h216.073395c13.730416 0 25.292872 11.562456 25.292872 25.292873s-10.839802 25.292872-25.292872 25.292872z"  /><path fill="#e6e6e6" d="M671.345095 979.918137c-7.226535 0-13.730416-3.613267-18.066337-10.117149l-26.738179-41.191249c-19.511644-11.562456-83.827805-55.644319-101.894143-141.640085-2.890614-14.45307-5.058574-29.628793-5.058574-44.804516 0-115.624559 94.667608-210.292167 211.01482-210.292167s211.01482 94.667608 211.01482 211.01482c0 114.901905-92.499647 208.124206-206.678899 211.01482l-54.921666 24.570219c-2.16796 1.445307-5.781228 1.445307-8.671842 1.445307z m59.257587-404.685956c-92.499647 0-167.65561 75.155963-167.655611 166.932957 0 12.285109 1.445307 24.570219 3.613268 35.410021 16.62103 79.491884 83.827805 114.901905 84.550458 115.624559 3.613267 1.445307 6.503881 4.335921 7.949189 7.226535l19.511644 30.351446 42.636556-18.78899c2.890614-1.445307 5.781228-2.16796 8.671842-2.167961 92.499647 0 167.65561-75.155963 167.655611-167.65561s-74.43331-166.932957-166.932957-166.932957z"  /><path fill="#e6e6e6" d="M637.380381 737.106563m-27.460833 0a27.460833 27.460833 0 1 0 54.921666 0 27.460833 27.460833 0 1 0-54.921666 0Z"  /><path fill="#e6e6e6" d="M734.215949 737.106563m-27.460833 0a27.460833 27.460833 0 1 0 54.921666 0 27.460833 27.460833 0 1 0-54.921666 0Z"  /><path fill="#e6e6e6" d="M830.328864 737.106563m-27.460833 0a27.460833 27.460833 0 1 0 54.921666 0 27.460833 27.460833 0 1 0-54.921666 0Z"  /><path fill="#e6e6e6" d="M451.658433 764.567396h-228.358504c-13.730416 0-25.292872-11.562456-25.292872-25.292872s11.562456-25.292872 25.292872-25.292873h228.358504c13.730416 0 25.292872 11.562456 25.292873 25.292873s-11.562456 25.292872-25.292873 25.292872z"  /></svg>