<?xml version="1.0" standalone="no"?><!DOCTYPE svg PUBLIC "-//W3C//DTD SVG 1.1//EN" "http://www.w3.org/Graphics/SVG/1.1/DTD/svg11.dtd"><svg class="icon" width="200px" height="200.00px" viewBox="0 0 1024 1024" version="1.1" xmlns="http://www.w3.org/2000/svg"><path fill="#e6e6e6" d="M673.513056 805.035992h-409.021877c-32.519407 0-59.257586-26.738179-59.257587-59.257587v-408.299224c0-32.519407 26.738179-59.257586 59.257587-59.257586h573.06422c32.519407 0 59.257586 26.738179 59.257586 59.257586v241.366267c0 12.285109-10.117149 22.402258-22.402258 22.402258s-22.402258-10.117149-22.402258-22.402258v-241.366267c0-7.226535-6.503881-13.730416-13.730417-13.730416h-573.06422c-7.226535 0-13.730416 6.503881-13.730416 13.730416v408.299224c0 7.226535 6.503881 13.730416 13.730416 13.730416h409.021877c12.285109 0 22.402258 10.117149 22.402259 22.402259s-10.839802 23.124912-23.124912 23.124912z"  /><path fill="#e6e6e6" d="M135.858857 721.208186c-10.839802-2.16796-18.066337-12.285109-18.066338-23.124911v-368.553282c0-72.988003 59.257586-131.522936 131.522936-131.522936h533.318278c10.839802 0 20.956951 7.226535 23.124912 18.066337 2.890614 14.45307-7.949188 26.738179-22.402258 26.73818h-534.040932c-47.695131 0-86.718419 39.023289-86.718419 86.718419v369.275935c0 14.45307-12.285109 25.292872-26.738179 22.402258z"  /><path fill="#e6e6e6" d="M547.771348 628.708539c-15.175723 0-30.351447-5.781228-41.913903-17.343684l-278.221595-278.221595c-8.671842-8.671842-8.671842-23.124912 0-31.796753 8.671842-8.671842 23.124912-8.671842 31.796754 0l278.221595 278.221595c5.058574 5.058574 14.45307 5.058574 19.511644 0l278.944249-278.944249c8.671842-8.671842 23.124912-8.671842 31.796753 0 8.671842 8.671842 8.671842 23.124912 0 31.796754l-278.944248 278.944248c-10.839802 11.562456-26.015526 17.343684-41.191249 17.343684z"  /><path fill="#e6e6e6" d="M770.348624 783.356387m-24.570219 0a24.570219 24.570219 0 1 0 49.140438 0 24.570219 24.570219 0 1 0-49.140438 0Z"  /><path fill="#e6e6e6" d="M869.352152 783.356387m-24.570218 0a24.570219 24.570219 0 1 0 49.140437 0 24.570219 24.570219 0 1 0-49.140437 0Z"  /><path fill="#e6e6e6" d="M872.242766 682.184898m-24.570218 0a24.570219 24.570219 0 1 0 49.140437 0 24.570219 24.570219 0 1 0-49.140437 0Z"  /></svg>