<?xml version="1.0" standalone="no"?><!DOCTYPE svg PUBLIC "-//W3C//DTD SVG 1.1//EN" "http://www.w3.org/Graphics/SVG/1.1/DTD/svg11.dtd"><svg class="icon" width="200px" height="199.80px" viewBox="0 0 1025 1024" version="1.1" xmlns="http://www.w3.org/2000/svg"><path fill="#e6e6e6" d="M285.942857 413.828571c-52.914286 0-96-43.085714-96-96s43.085714-96 96-96 96 43.085714 96 96-43.085714 96-96 96z m0-146.4c-27.771429 0-50.285714 22.628571-50.285714 50.285715s22.628571 50.285714 50.285714 50.285714 50.285714-22.628571 50.285714-50.285714-22.628571-50.285714-50.285714-50.285715zM402.285714 560H169.6c-12.685714 0-23.085714-10.4-23.085714-23.085714 0-40.8 11.885714-81.714286 32.571428-112.342857 24.685714-36.571429 60.342857-56.8 100.457143-56.8 12.571429 0 22.857143 10.285714 22.857143 22.857142s-10.285714 22.857143-22.857143 22.857143c-31.314286 0-51.314286 19.885714-62.514286 36.571429-12 17.714286-20 40.342857-23.2 64.114286h184.342858c-4.571429-32.457143-18.628571-62.857143-38.4-81.028572-9.257143-8.571429-9.828571-22.971429-1.257143-32.342857 8.571429-9.257143 22.971429-9.828571 32.342857-1.257143 33.714286 31.085714 54.628571 83.771429 54.628571 137.257143-0.228571 12.8-10.514286 23.2-23.2 23.2zM146.285714 609.142857h466.628572v45.714286H146.285714zM146.285714 740.228571h658.628572v45.714286H146.285714zM1000 897.828571H24c-13.257143 0-24-10.742857-24-24V140.571429c0-13.257143 10.742857-24 24-24h976c13.257143 0 24 10.742857 24 24v70.857142h-45.714286v-49.142857H45.714286v689.828572h932.571428V284.571429h45.714286v589.257142c0 13.257143-10.742857 24-24 24z" /></svg>