<?xml version="1.0" standalone="no"?><!DOCTYPE svg PUBLIC "-//W3C//DTD SVG 1.1//EN" "http://www.w3.org/Graphics/SVG/1.1/DTD/svg11.dtd"><svg class="icon" width="200px" height="200.00px" viewBox="0 0 1024 1024" version="1.1" xmlns="http://www.w3.org/2000/svg"><path fill="#e6e6e6" d="M892.477064 436.48271c-23.124912-23.847565-54.921665-23.847565-62.870854-23.847565l-184.27664 0.722653L679.294284 211.737474c3.613267-17.343684 0-54.199012-36.855328-67.929429-16.62103-6.503881-60.702893-19.511644-103.33945-0.722653-28.90614 13.007763-49.863091 37.577982-63.593507 73.710656l-67.929429 196.56175H283.280169c-3.613267-9.394495-13.007763-15.898377-23.847565-15.898377H140.917431c-13.730416 0-25.292872 11.562456-25.292872 25.292873s11.562456 25.292872 25.292872 25.292872h93.222301v406.853917H140.917431c-13.730416 0-25.292872 11.562456-25.292872 25.292872s11.562456 25.292872 25.292872 25.292872h118.515173c6.503881 0 12.285109-2.890614 17.343684-6.503881h484.17784c78.046577 0 105.50741-54.199012 109.120678-83.827806l43.35921-292.674664c5.058574-37.577982-2.16796-66.484121-20.956952-85.995766z m-28.90614 78.769231l-43.359209 292.674665v0.722653c0 1.445307-5.058574 41.191249-62.148201 39.745942H284.725476V464.666196h140.917432c10.839802 0 20.234298-6.503881 23.847565-17.343684l73.710656-213.18278c8.671842-22.402258 20.956951-37.577982 36.855328-44.081863 25.292872-11.562456 55.644319-1.445307 64.316161 1.445307 5.058574 2.16796 5.058574 7.949188 5.058575 11.562456l-39.023289 231.249117c-1.445307 7.226535 0.722653 15.175723 5.781228 20.234298 5.058574 5.781228 11.562456 8.671842 19.511644 8.671842L831.051517 462.498236h2.167961s15.175723-0.722653 23.847565 8.671842c8.671842 10.839802 8.671842 30.351447 6.503881 44.081863z"  /><path fill="#e6e6e6" d="M174.882145 747.946366m-27.460832 0a27.460833 27.460833 0 1 0 54.921665 0 27.460833 27.460833 0 1 0-54.921665 0Z"  /><path fill="#e6e6e6" d="M174.882145 651.833451m-27.460832 0a27.460833 27.460833 0 1 0 54.921665 0 27.460833 27.460833 0 1 0-54.921665 0Z"  /><path fill="#e6e6e6" d="M174.882145 555.720536m-27.460832 0a27.460833 27.460833 0 1 0 54.921665 0 27.460833 27.460833 0 1 0-54.921665 0Z"  /></svg>