<?xml version="1.0" standalone="no"?><!DOCTYPE svg PUBLIC "-//W3C//DTD SVG 1.1//EN" "http://www.w3.org/Graphics/SVG/1.1/DTD/svg11.dtd"><svg class="icon" width="200px" height="200.00px" viewBox="0 0 1024 1024" version="1.1" xmlns="http://www.w3.org/2000/svg"><path fill="#e6e6e6" d="M495.740296 713.258998l1.445307 1.445307 2.167961 2.16796c0.722653 0.722653 1.445307 0.722653 2.16796 0.722654 0.722653 0.722653 1.445307 0.722653 2.167961 1.445307 0.722653 0 1.445307 0.722653 2.16796 0.722653 0.722653 0 1.445307 0.722653 2.890614 0.722654s3.613267 0.722653 5.058575 0.722653h0.722653c1.445307 0 2.890614 0 4.335921-0.722653 1.445307 0 2.16796-0.722653 3.613268-1.445307h1.445307c1.445307-0.722653 2.890614-1.445307 3.613267-2.167961h0.722654c1.445307-0.722653 2.890614-2.16796 3.613267-2.890614l108.398024-108.398024c10.117149-10.117149 10.117149-26.015526 0-35.410021-10.117149-10.117149-26.015526-10.117149-35.410021 0l-65.038815 65.038815v-122.851094c0-13.730416-11.562456-25.292872-25.292872-25.292873s-25.292872 11.562456-25.292872 25.292873V635.935074l-65.038814-65.038814c-10.117149-10.117149-26.015526-10.117149-35.410022 0-10.117149 10.117149-10.117149 26.015526 0 35.410021l106.952717 106.952717z"  /><path fill="#e6e6e6" d="M515.251941 410.467184m-27.460833 0a27.460833 27.460833 0 1 0 54.921665 0 27.460833 27.460833 0 1 0-54.921665 0Z"  /><path fill="#e6e6e6" d="M515.251941 314.35427m-27.460833 0a27.460833 27.460833 0 1 0 54.921665 0 27.460833 27.460833 0 1 0-54.921665 0Z"  /><path fill="#e6e6e6" d="M515.251941 218.241355m-27.460833 0a27.460833 27.460833 0 1 0 54.921665 0 27.460833 27.460833 0 1 0-54.921665 0Z"  /><path fill="#e6e6e6" d="M765.290049 677.848977c-13.730416 0-25.292872 11.562456-25.292872 25.292872v88.163726H290.506704V703.141849c0-13.730416-11.562456-25.292872-25.292872-25.292872s-25.292872 11.562456-25.292872 25.292872V816.598447c0 13.730416 11.562456 25.292872 25.292872 25.292873h499.353564c13.730416 0 25.292872-11.562456 25.292872-25.292873V703.141849c0.722653-13.730416-10.839802-25.292872-24.570219-25.292872z"  /></svg>