<?xml version="1.0" standalone="no"?><!DOCTYPE svg PUBLIC "-//W3C//DTD SVG 1.1//EN" "http://www.w3.org/Graphics/SVG/1.1/DTD/svg11.dtd"><svg class="icon" width="200px" height="200.00px" viewBox="0 0 1024 1024" version="1.1" xmlns="http://www.w3.org/2000/svg"><path d="M973.954028 1023.657219h-923.222495c-12.568623 0-22.852042-10.283419-22.852042-22.852042V22.852042c0-12.568623 10.283419-22.852042 22.852042-22.852042h923.222495c12.568623 0 22.852042 10.283419 22.852042 22.852042v49.931712h-45.704084V45.704084h-877.518411v932.249051h877.518411V157.336309h45.704084v843.468868c0 12.682883-10.169159 22.852042-22.852042 22.852042z"  /><path d="M878.089712 146.253069L513.485383 510.857398" fill="#009245" /><path d="M513.485383 533.70944c-5.827271 0-11.654541-2.285204-16.11069-6.741353-8.912296-8.912296-8.912296-23.423343 0-32.335639l364.60433-364.604329c8.912296-8.912296 23.423343-8.912296 32.335639 0 8.912296 8.912296 8.912296 23.423343 0 32.335639L529.596072 526.968087c-4.456148 4.456148-10.283419 6.741352-16.110689 6.741353zM146.82437 635.515287h343.35193v45.704084H146.82437zM146.82437 781.539835h511.314438v45.704084H146.82437z"  /></svg>