<?xml version="1.0" standalone="no"?><!DOCTYPE svg PUBLIC "-//W3C//DTD SVG 1.1//EN" "http://www.w3.org/Graphics/SVG/1.1/DTD/svg11.dtd"><svg class="icon" width="200px" height="200.00px" viewBox="0 0 1024 1024" version="1.1" xmlns="http://www.w3.org/2000/svg"><path fill="#e6e6e6" d="M118.515173 509.470713c0-211.737474 172.714185-384.451658 384.451658-384.451659 68.652082 0 135.136203 18.066337 193.671137 52.753705l-64.316161 10.839803c-17.343684 2.890614-28.90614 18.788991-26.015526 36.132674 2.890614 15.175723 15.898377 26.015526 31.0741 26.015526 1.445307 0 3.613267 0 5.058575-0.722653l140.194777-23.847566c7.949188-1.445307 15.175723-5.781228 20.234298-13.007762 5.058574-6.503881 6.503881-15.175723 5.058575-23.124912l-21.679605-129.354976c-2.890614-17.343684-18.788991-28.90614-36.132675-26.015525-17.343684 2.890614-28.90614 18.788991-26.015526 36.132674l9.394496 54.921666c-69.374735-41.913903-148.86662-64.316161-231.249118-64.316161-246.424841 0-447.322512 200.897671-447.322513 447.322512 0 70.097389 15.898377 136.58151 46.249824 198.729711 5.781228 10.839802 16.62103 17.343684 28.183486 17.343684 4.335921 0 9.394495-0.722653 13.730417-3.613268 15.175723-7.949188 21.679605-26.738179 14.45307-41.913902-25.292872-52.031052-39.023289-109.843331-39.023289-169.823571zM887.41849 677.848977c-15.175723-7.949188-33.964714-2.16796-42.636556 13.007763-67.206775 125.741708-197.284404 204.510939-339.647142 204.510938-68.652082 0-135.136203-18.066337-193.671136-52.753705l64.316161-10.839802c17.343684-2.890614 28.90614-18.788991 26.015525-36.132675-2.890614-17.343684-18.788991-28.90614-36.132674-26.015526l-140.194778 23.847566c-17.343684 2.890614-28.90614 18.788991-26.015526 36.132674l21.679605 129.354976c2.890614 15.175723 15.898377 26.015526 31.0741 26.015525 1.445307 0 3.613267 0 5.058575-0.722653 17.343684-2.890614 28.90614-18.788991 26.015525-36.132675l-9.394495-54.921665c69.374735 41.913903 148.86662 64.316161 231.249118 64.316161 166.210303 0 317.244884-91.05434 395.291461-237.753 7.949188-14.45307 2.16796-33.242061-13.007763-41.913902z"  /><path fill="#e6e6e6" d="M917.769936 590.407904m-33.964714 0a33.964714 33.964714 0 1 0 67.929429 0 33.964714 33.964714 0 1 0-67.929429 0Z"  /><path fill="#e6e6e6" d="M922.105857 469.724771m-33.964714 0a33.964714 33.964714 0 1 0 67.929429 0 33.964714 33.964714 0 1 0-67.929429 0Z"  /><path fill="#e6e6e6" d="M885.973183 351.932251m-33.964714 0a33.964714 33.964714 0 1 0 67.929428 0 33.964714 33.964714 0 1 0-67.929428 0Z"  /></svg>