<?xml version="1.0" standalone="no"?><!DOCTYPE svg PUBLIC "-//W3C//DTD SVG 1.1//EN" "http://www.w3.org/Graphics/SVG/1.1/DTD/svg11.dtd"><svg class="icon" width="200px" height="200.00px" viewBox="0 0 1024 1024" version="1.1" xmlns="http://www.w3.org/2000/svg"><path fill="#e6e6e6" d="M516.697248 80.937191C332.420607 80.937191 182.831334 231.249118 182.831334 414.803105c0 66.484121 19.511644 130.077629 55.644319 184.999294 0 0 0 0.722653 0.722653 0.722654 0.722653 1.445307 2.16796 2.890614 2.890614 4.335921 0.722653 1.445307 2.16796 2.890614 2.890614 3.613267l243.534227 323.026112c0.722653 0.722653 1.445307 2.16796 2.167961 2.890614 6.503881 6.503881 15.898377 10.117149 24.570219 10.117149 8.671842 0 18.066337-3.613267 24.570218-10.117149 0.722653-0.722653 1.445307-1.445307 2.167961-2.890614l23.847565-31.796754c8.671842-10.839802 6.503881-26.738179-5.058574-35.410021-10.839802-8.671842-26.738179-6.503881-35.410021 5.058574l-10.117149 13.730417-234.862386-311.463656c-31.0741-46.249824-46.972477-100.448836-46.972477-156.815808 0-156.093155 127.187015-283.280169 283.28017-283.280169s283.280169 127.187015 283.280169 283.280169c0 48.417784-12.285109 96.112915-35.410021 138.026817-6.503881 12.285109-2.16796 27.460833 10.117149 34.687368 12.285109 6.503881 27.460833 2.16796 34.687367-10.117149 27.460833-49.140438 41.913903-105.50741 41.913903-162.597036C850.563162 231.249118 700.973888 80.937191 516.697248 80.937191z"  /><path fill="#e6e6e6" d="M645.32957 414.080452c0-71.542696-57.812279-129.354975-129.354976-129.354976-71.542696 0-129.354975 57.812279-129.354975 129.354976s57.812279 129.354975 129.354975 129.354975c70.820042 0 129.354975-58.534933 129.354976-129.354975zM515.974594 492.849682c-43.35921 0-78.769231-35.410021-78.769231-78.76923s35.410021-78.769231 78.769231-78.769231 78.769231 35.410021 78.769231 78.769231-35.410021 78.769231-78.769231 78.76923z"  /><path fill="#e6e6e6" d="M612.087509 802.145378m-27.460833 0a27.460833 27.460833 0 1 0 54.921666 0 27.460833 27.460833 0 1 0-54.921666 0Z"  /><path fill="#e6e6e6" d="M669.899788 724.821454m-27.460832 0a27.460833 27.460833 0 1 0 54.921665 0 27.460833 27.460833 0 1 0-54.921665 0Z"  /><path fill="#e6e6e6" d="M726.989414 647.49753m-27.460832 0a27.460833 27.460833 0 1 0 54.921665 0 27.460833 27.460833 0 1 0-54.921665 0Z"  /></svg>