<?xml version="1.0" standalone="no"?><!DOCTYPE svg PUBLIC "-//W3C//DTD SVG 1.1//EN" "http://www.w3.org/Graphics/SVG/1.1/DTD/svg11.dtd"><svg class="icon" width="200px" height="200.00px" viewBox="0 0 1024 1024" version="1.1" xmlns="http://www.w3.org/2000/svg"><path fill="#e6e6e6" d="M727.712068 37.577982h-432.146789c-60.702893 0-110.565984 49.863091-110.565985 110.565984v726.989414c0 60.702893 49.863091 110.565984 110.565985 110.565985h432.146789c60.702893 0 110.565984-49.863091 110.565984-110.565985V148.143966c0-60.702893-49.863091-110.565984-110.565984-110.565984z m-432.869443 56.366972h432.146789c30.351447 0 54.199012 24.570219 54.199012 54.199012v636.657728h-541.267466v-636.657728c0.722653-29.628793 25.292872-54.199012 54.921665-54.199012z m432.869443 835.387438h-432.146789c-30.351447 0-54.199012-24.570219-54.199012-54.199012v-34.687367h541.267466v34.687367c-0.722653 30.351447-25.292872 54.199012-54.921665 54.199012z"  /><path fill="#e6e6e6" d="M385.896965 532.595625c-15.175723 0-28.183486 12.285109-28.183486 28.183486 0 15.175723 12.285109 28.183486 28.183486 28.183486h96.835569V663.395907c0 15.175723 12.285109 28.183486 28.183486 28.183486 15.175723 0 28.183486-12.285109 28.183486-28.183486v-75.155963h96.835568c15.175723 0 28.183486-12.285109 28.183486-28.183487 0-15.175723-12.285109-28.183486-28.183486-28.183486h-96.835568v-66.484121h96.835568c15.175723 0 28.183486-12.285109 28.183486-28.183487 0-15.175723-12.285109-28.183486-28.183486-28.183486h-33.964714l16.62103-37.577981c6.503881-14.45307 0-31.0741-14.45307-36.855329-14.45307-6.503881-31.0741 0-36.855328 14.45307l-26.738179 60.702894h-48.417784l-26.738179-60.702894c-6.503881-14.45307-23.124912-20.234298-36.855328-14.45307-14.45307 6.503881-20.234298 23.124912-14.45307 36.855329l16.62103 37.577981h-44.804517c-15.175723 0-28.183486 12.285109-28.183486 28.183486 0 15.175723 12.285109 28.183486 28.183486 28.183487h96.835569v66.484121h-96.835569z"  /><path fill="#e6e6e6" d="M404.685956 197.284404m-30.351446 0a30.351447 30.351447 0 1 0 60.702893 0 30.351447 30.351447 0 1 0-60.702893 0Z"  /><path fill="#e6e6e6" d="M510.91602 197.284404m-30.351447 0a30.351447 30.351447 0 1 0 60.702893 0 30.351447 30.351447 0 1 0-60.702893 0Z"  /><path fill="#e6e6e6" d="M617.868737 197.284404m-30.351447 0a30.351447 30.351447 0 1 0 60.702893 0 30.351447 30.351447 0 1 0-60.702893 0Z"  /></svg>