<?xml version="1.0" standalone="no"?><!DOCTYPE svg PUBLIC "-//W3C//DTD SVG 1.1//EN" "http://www.w3.org/Graphics/SVG/1.1/DTD/svg11.dtd"><svg class="icon" width="200px" height="200.00px" viewBox="0 0 1024 1024" version="1.1" xmlns="http://www.w3.org/2000/svg"><path fill="#e6e6e6" d="M737.106563 641.716302c10.839802 8.671842 26.738179 6.503881 35.410021-4.335921 8.671842-10.839802 6.503881-26.738179-4.335921-35.410021-15.898377-12.285109-32.519407-23.124912-49.140437-33.242061-33.964714-19.511644-70.097389-33.964714-108.398024-44.081863 72.265349-38.300635 120.683133-113.456598 120.683133-200.897671 0-125.019054-101.894143-226.913197-226.913197-226.913197S277.498941 198.729711 277.498941 323.748765c0 86.718419 49.140438 162.597036 121.405787 200.897671-155.370501 39.745942-281.112209 165.48765-315.076923 328.084686-2.890614 13.730416 5.781228 26.738179 19.511645 29.628793 1.445307 0.722653 3.613267 0.722653 5.058574 0.722654 11.562456 0 22.402258-7.949188 24.570219-20.234298 36.855328-174.159492 192.948483-301.346507 371.443895-301.346507 66.484121 0 131.522936 17.343684 189.335216 50.585745 15.175723 8.671842 29.628793 18.788991 43.359209 29.628793z m-409.021877-317.967537c0-97.558222 79.491884-176.327452 176.327452-176.327452s176.327452 79.491884 176.327453 176.327452-79.491884 176.327452-176.327453 176.327452-176.327452-78.769231-176.327452-176.327452z"  /><path fill="#e6e6e6" d="M911.988709 625.095272m-27.460833 0a27.460833 27.460833 0 1 0 54.921665 0 27.460833 27.460833 0 1 0-54.921665 0Z"  /><path fill="#e6e6e6" d="M844.05928 693.747354m-27.460833 0a27.460833 27.460833 0 1 0 54.921666 0 27.460833 27.460833 0 1 0-54.921666 0Z"  /><path fill="#e6e6e6" d="M776.129852 761.676782m-27.460833 0a27.460833 27.460833 0 1 0 54.921666 0 27.460833 27.460833 0 1 0-54.921666 0Z"  /><path fill="#e6e6e6" d="M695.915314 810.817219l-57.089626 57.089626-80.937191-80.937191c-10.117149-10.117149-26.015526-10.117149-35.410021 0-10.117149 10.117149-10.117149 26.015526 0 35.410021L621.482004 921.383204c5.058574 5.058574 11.562456 7.226535 18.066338 7.226535s13.007763-2.16796 18.066337-7.226535l75.155963-75.155963c10.117149-10.117149 10.117149-26.015526 0-36.132675-10.839802-9.394495-26.738179-9.394495-36.855328 0.722653z"  /></svg>