<?xml version="1.0" standalone="no"?><!DOCTYPE svg PUBLIC "-//W3C//DTD SVG 1.1//EN" "http://www.w3.org/Graphics/SVG/1.1/DTD/svg11.dtd"><svg class="icon" width="200px" height="200.00px" viewBox="0 0 1024 1024" version="1.1" xmlns="http://www.w3.org/2000/svg"><path fill="#e6e6e6" d="M606.306281 148.143966c-4.335921-4.335921-10.839802-6.503881-16.62103-6.503881H283.280169c-23.847565 0-42.636556 19.511644-42.636556 42.636556v661.9506c0 23.847565 19.511644 42.636556 42.636556 42.636556h469.002118c23.847565 0 42.636556-19.511644 42.636556-42.636556v-520.310516c0-7.226535-2.890614-14.45307-8.671842-18.78899l-179.94072-158.983769z m138.026817 690.85674H291.229358V192.225829h289.061397l164.764997 144.530699v502.244178z"  /><path fill="#e6e6e6" d="M633.04446 638.103035m-27.460833 0a27.460833 27.460833 0 1 0 54.921666 0 27.460833 27.460833 0 1 0-54.921666 0Z"  /><path fill="#e6e6e6" d="M633.04446 734.215949m-27.460833 0a27.460833 27.460833 0 1 0 54.921666 0 27.460833 27.460833 0 1 0-54.921666 0Z"  /><path fill="#e6e6e6" d="M530.427664 734.215949m-27.460833 0a27.460833 27.460833 0 1 0 54.921666 0 27.460833 27.460833 0 1 0-54.921666 0Z"  /><path fill="#e6e6e6" d="M377.225124 516.697248V729.880028c0 18.788991 15.175723 33.964714 33.964714 33.964714h23.847565c13.730416 0 25.292872-11.562456 25.292872-25.292872s-11.562456-25.292872-25.292872-25.292872h-7.226535V533.318278h179.94072v7.949188c0 13.730416 11.562456 25.292872 25.292872 25.292873s25.292872-11.562456 25.292872-25.292873v-24.570218c0-18.788991-15.175723-33.964714-33.964714-33.964714H411.189838c-18.788991 0-33.964714 15.175723-33.964714 33.964714z"  /></svg>