<?xml version="1.0" standalone="no"?><!DOCTYPE svg PUBLIC "-//W3C//DTD SVG 1.1//EN" "http://www.w3.org/Graphics/SVG/1.1/DTD/svg11.dtd"><svg class="icon" width="200px" height="200.00px" viewBox="0 0 1024 1024" version="1.1" xmlns="http://www.w3.org/2000/svg"><path fill="#e6e6e6" d="M205.824 517.12c0 16.384 13.312 29.696 29.696 29.696h543.744c16.384 0 29.696-13.312 29.696-29.696 0-16.384-13.312-29.696-29.696-29.696H235.52c-16.384 1.024-29.696 14.336-29.696 29.696z"  /><path fill="#e6e6e6" d="M988.16 492.544c-1.024-16.384-14.336-28.672-30.72-27.648-16.384 1.024-28.672 14.336-27.648 30.72 0 7.168 1.024 14.336 1.024 21.504 0 230.4-187.392 417.792-417.792 417.792C282.624 934.912 95.232 747.52 95.232 517.12 94.208 286.72 281.6 99.328 512 99.328c61.44 0 119.808 13.312 175.104 37.888l18.432 9.216c14.336 7.168 31.744 2.048 39.936-12.288 7.168-14.336 2.048-31.744-12.288-39.936-7.168-4.096-14.336-7.168-21.504-10.24C649.216 55.296 581.632 40.96 512 40.96 248.832 40.96 34.816 254.976 34.816 517.12c0 263.168 214.016 477.184 477.184 477.184 263.168 0 477.184-214.016 477.184-477.184 0-8.192-1.024-16.384-1.024-24.576z"  /><path fill="#e6e6e6" d="M939.008 379.904m-31.744 0a31.744 31.744 0 1 0 63.488 0 31.744 31.744 0 1 0-63.488 0Z"  /><path fill="#e6e6e6" d="M891.904 277.504m-31.744 0a31.744 31.744 0 1 0 63.488 0 31.744 31.744 0 1 0-63.488 0Z"  /><path fill="#e6e6e6" d="M815.104 188.416m-31.744 0a31.744 31.744 0 1 0 63.488 0 31.744 31.744 0 1 0-63.488 0Z"  /></svg>