<?xml version="1.0" standalone="no"?><!DOCTYPE svg PUBLIC "-//W3C//DTD SVG 1.1//EN" "http://www.w3.org/Graphics/SVG/1.1/DTD/svg11.dtd"><svg class="icon" width="200px" height="200.00px" viewBox="0 0 1024 1024" version="1.1" xmlns="http://www.w3.org/2000/svg"><path fill="#e6e6e6" d="M511.638673 109.843331c-165.48765 0-299.9012 134.41355-299.901199 299.9012 0 118.515173 70.820042 226.190543 178.495412 273.885674v107.67537c0 67.206775 54.199012 121.405787 121.405787 121.405787s121.405787-54.199012 121.405787-121.405787V683.630205c107.675371-47.695131 178.495413-155.370501 178.495413-273.885674 0-165.48765-135.136203-299.9012-299.9012-299.9012z m0 752.282287c-26.015526 0-48.417784-13.730416-60.702893-33.964715h120.683133c-12.285109 20.234298-34.687368 33.964714-59.98024 33.964715z m86.718419-218.964009c-10.117149 3.613267-16.62103 13.730416-16.62103 24.570219v109.843331H440.818631V666.286521c0-10.839802-6.503881-19.511644-16.62103-23.847565-96.835568-36.132675-161.874382-130.077629-161.874383-233.417079 0-137.304164 112.011291-249.315455 249.315455-249.315455s249.315455 112.011291 249.315455 249.315455C760.954128 513.08398 695.192661 607.028934 598.357092 643.161609z"  /><path fill="#e6e6e6" d="M415.525759 401.072689m-27.460833 0a27.460833 27.460833 0 1 0 54.921665 0 27.460833 27.460833 0 1 0-54.921665 0Z"  /><path fill="#e6e6e6" d="M511.638673 401.072689m-27.460832 0a27.460833 27.460833 0 1 0 54.921665 0 27.460833 27.460833 0 1 0-54.921665 0Z"  /><path fill="#e6e6e6" d="M607.751588 401.072689m-27.460833 0a27.460833 27.460833 0 1 0 54.921666 0 27.460833 27.460833 0 1 0-54.921666 0Z"  /></svg>