<?xml version="1.0" standalone="no"?><!DOCTYPE svg PUBLIC "-//W3C//DTD SVG 1.1//EN" "http://www.w3.org/Graphics/SVG/1.1/DTD/svg11.dtd"><svg class="icon" width="200px" height="200.00px" viewBox="0 0 1024 1024" version="1.1" xmlns="http://www.w3.org/2000/svg"><path fill="#e6e6e6" d="M511.542857 1022.857143c-69.028571 0-136-13.485714-199.085714-40.228572-60.914286-25.714286-115.542857-62.628571-162.514286-109.6-47.085714-46.971429-83.885714-101.6-109.714286-162.514285C13.6 647.428571 0.114286 580.457143 0.114286 511.428571s13.485714-136 40.228571-199.085714C66.057143 251.428571 102.857143 196.8 149.828571 149.828571S251.428571 65.942857 312.342857 40.228571C375.542857 13.485714 442.514286 0 511.542857 0c56.114286 0 111.314286 9.028571 164 26.857143 50.971429 17.257143 98.742857 42.4 141.942857 74.628571l-27.314285 36.571429C709.142857 77.714286 612.8 45.714286 511.542857 45.714286c-62.857143 0-123.885714 12.342857-181.257143 36.571428-55.428571 23.428571-105.257143 57.028571-148 99.771429s-76.342857 92.571429-99.771428 148c-24.228571 57.371429-36.571429 118.4-36.571429 181.257143S58.285714 635.2 82.514286 692.571429c23.428571 55.428571 57.028571 105.257143 99.771428 148 42.742857 42.742857 92.571429 76.342857 148 99.771428 57.371429 24.228571 118.4 36.571429 181.257143 36.571429s123.885714-12.342857 181.257143-36.571429c55.428571-23.428571 105.257143-57.028571 148-99.771428 42.742857-42.742857 76.342857-92.571429 99.771429-148 24.228571-57.371429 36.571429-118.4 36.571428-181.257143 0-123.542857-47.885714-239.885714-134.857143-327.657143l32.457143-32.114286c46.4 46.857143 82.857143 101.371429 108.342857 161.942857 26.4 62.742857 39.657143 129.371429 39.657143 197.942857 0 69.028571-13.485714 136-40.228571 199.085715-25.485714 60.914286-62.4 115.542857-109.371429 162.514285-46.971429 46.971429-101.6 83.885714-162.514286 109.6C647.542857 1009.371429 580.571429 1022.857143 511.542857 1022.857143zM772.571429 534.285714H511.542857c-12.571429 0-22.857143-10.285714-22.857143-22.857143V231.314286c0-12.571429 10.285714-22.857143 22.857143-22.857143s22.857143 10.285714 22.857143 22.857143v257.257143H772.571429c12.571429 0 22.857143 10.285714 22.857142 22.857142s-10.285714 22.857143-22.857142 22.857143z" /></svg>