<?xml version="1.0" standalone="no"?><!DOCTYPE svg PUBLIC "-//W3C//DTD SVG 1.1//EN" "http://www.w3.org/Graphics/SVG/1.1/DTD/svg11.dtd"><svg class="icon" width="200px" height="199.61px" viewBox="0 0 1026 1024" version="1.1" xmlns="http://www.w3.org/2000/svg"><path fill="#e6e6e6" d="M551.085714 513.257143c-6.4 0-12.685714-2.514286-17.371428-7.2-4.8-4.8-7.314286-11.314286-7.2-17.942857l-5.028572-211.657143c0-1.485714 0.114286-2.971429 0.342857-4.457143 1.6-9.028571 8-16.342857 16.685715-19.2 8.8-2.742857 18.171429-0.457143 24.685714 6.057143l50.514286 50.514286c67.314286-61.6 132.228571-90.514286 197.714285-88.228572 35.2 1.257143 70.4 11.771429 104.914286 31.428572 34.857143 19.885714 69.942857 49.6 104.342857 88.571428 8.228571 9.257143 7.542857 23.314286-1.485714 31.771429-9.028571 8.457143-23.085714 8.228571-31.885714-0.571429-43.657143-43.885714-79.314286-59.314286-119.314286-51.314286-39.085714 7.771429-84.571429 37.828571-145.942857 96.685715l53.6 53.6c6.514286 6.514286 8.8 16 6.057143 24.685714-2.742857 8.8-10.171429 15.2-19.2 16.685714-1.257143 0.228571-2.628571 0.342857-3.885715 0.342857l-206.514285 0.228572h-1.028572z m20.914286-20.914286z m-3.428571-163.657143l3.314285 138.742857 135.314286-0.114285-32.914286-32.914286c-4.571429-4.457143-6.971429-10.514286-6.971428-16.914286 0-6.4 2.514286-12.457143 7.085714-16.914285 76.114286-75.542857 133.028571-113.942857 184.685714-124.342858-16.457143-5.714286-32.8-8.914286-49.028571-9.485714-57.485714-2.057143-116.228571 27.428571-179.771429 90.057143-9.371429 9.142857-24.457143 9.142857-33.714285-0.114286l-28-28z m29.6-4.457143s-0.114286 0 0 0c-0.114286 0 0 0 0 0zM184.228571 22.971429C84 22.971429 2.4 104.571429 2.4 204.8c0 100.342857 81.6 181.828571 181.828571 181.828571S366.171429 305.142857 366.171429 204.8c0-100.228571-81.6-181.828571-181.942858-181.828571z m0 318.057142c-75.085714 0-136.114286-61.028571-136.114285-136.114285 0-75.085714 61.028571-136.114286 136.114285-136.114286s136.114286 61.028571 136.114286 136.114286c0.114286 74.971429-61.028571 136.114286-136.114286 136.114285zM791.2 628.8c-100.228571 0-181.828571 81.6-181.828571 181.828571 0 100.342857 81.6 181.828571 181.828571 181.828572 12.571429 0 22.857143-10.285714 22.857143-22.857143s-10.285714-22.857143-22.857143-22.857143c-75.085714 0-136.114286-61.028571-136.114286-136.114286s61.028571-136.114286 136.114286-136.114285 136.114286 61.028571 136.114286 136.114285c0 45.257143-22.4 87.542857-60 112.914286-10.514286 7.085714-13.257143 21.257143-6.171429 31.771429 7.085714 10.514286 21.257143 13.257143 31.771429 6.171428 50.171429-33.942857 80.114286-90.285714 80.114285-150.742857 0-100.342857-81.6-181.942857-181.828571-181.942857zM727.428571 980.914286c-2.285714-0.571429-57.257143-15.885714-137.6-57.714286-73.714286-38.4-183.885714-107.771429-289.942857-219.771429-105.485714-111.314286-176.914286-221.828571-218.171428-294.857142C36.8 329.142857 17.028571 276.342857 16.228571 274.171429L59.085714 258.285714c0.342857 1.028571 19.885714 52.685714 63.085715 128.8 40 70.514286 109.028571 177.257143 210.971428 284.8 101.714286 107.428571 207.314286 173.828571 277.942857 210.628572 76 39.657143 128 54.057143 128.457143 54.171428l-12.114286 44.228572z" /></svg>