<?xml version="1.0" standalone="no"?><!DOCTYPE svg PUBLIC "-//W3C//DTD SVG 1.1//EN" "http://www.w3.org/Graphics/SVG/1.1/DTD/svg11.dtd"><svg class="icon" width="200px" height="200.00px" viewBox="0 0 1024 1024" version="1.1" xmlns="http://www.w3.org/2000/svg"><path fill="#e6e6e6" d="M781.91108 810.094566m-27.460833 0a27.460833 27.460833 0 1 0 54.921665 0 27.460833 27.460833 0 1 0-54.921665 0Z"  /><path fill="#e6e6e6" d="M846.949894 735.661256m-27.460833 0a27.460833 27.460833 0 1 0 54.921666 0 27.460833 27.460833 0 1 0-54.921666 0Z"  /><path fill="#e6e6e6" d="M891.031757 649.66549m-27.460833 0a27.460833 27.460833 0 1 0 54.921666 0 27.460833 27.460833 0 1 0-54.921666 0Z"  /><path fill="#e6e6e6" d="M514.529287 82.382498c-235.585039 0-427.088215 191.503176-427.088214 427.088215s191.503176 427.088215 427.088214 427.088214c69.374735 0 138.749471-17.343684 200.175018-49.863091 12.285109-6.503881 17.343684-21.679605 10.117149-33.964714-6.503881-12.285109-21.679605-17.343684-33.964714-10.117149-54.199012 28.90614-114.901905 43.35921-176.327453 43.35921-207.401553 0-376.50247-169.100917-376.50247-376.50247s169.100917-376.50247 376.50247-376.50247c207.401553 0 376.50247 169.100917 376.50247 376.50247 0 13.730416-0.722653 28.183486-2.16796 41.913902-1.445307 13.730416 8.671842 26.738179 22.402258 28.183487 13.730416 1.445307 26.738179-8.671842 28.183486-22.402259 1.445307-15.898377 2.890614-31.796754 2.890614-47.69513-0.722653-235.585039-192.225829-427.088215-427.810868-427.088215z"  /><path fill="#e6e6e6" d="M725.544107 627.263232c-10.839802-8.671842-26.738179-6.503881-35.410021 4.335921-42.636556 55.644319-107.675371 87.441073-177.772759 87.441073-67.206775 0-130.077629-29.628793-172.714185-80.937191-8.671842-10.839802-24.570219-12.285109-35.410021-3.613268-10.839802 8.671842-12.285109 24.570219-3.613268 35.410021 52.753705 62.870854 129.354975 99.003529 211.737474 99.003529 85.995766 0 165.48765-39.023289 218.241355-107.675371 7.949188-9.394495 5.781228-25.292872-5.058575-33.964714zM379.393084 449.490473c13.730416 0 25.292872-11.562456 25.292872-25.292872v-41.913903c0-13.730416-11.562456-25.292872-25.292872-25.292872s-25.292872 11.562456-25.292872 25.292872v41.913903c0 13.730416 10.839802 25.292872 25.292872 25.292872zM669.177135 424.197601v-41.913903c0-13.730416-11.562456-25.292872-25.292872-25.292872s-25.292872 11.562456-25.292873 25.292872v41.913903c0 13.730416 11.562456 25.292872 25.292873 25.292872s25.292872-11.562456 25.292872-25.292872z"  /></svg>