<?xml version="1.0" standalone="no"?><!DOCTYPE svg PUBLIC "-//W3C//DTD SVG 1.1//EN" "http://www.w3.org/Graphics/SVG/1.1/DTD/svg11.dtd"><svg class="icon" width="200px" height="200.00px" viewBox="0 0 1024 1024" version="1.1" xmlns="http://www.w3.org/2000/svg"><path fill="#e6e6e6" d="M948.34482 977.179436l-95.582469 0.114196V820.273447c0-39.397792-6.623397-77.996208-19.755994-114.767481-12.675811-35.515111-31.175644-68.517899-54.81432-98.094792-33.116984-41.339132-75.598082-74.34192-123.218021-96.381844 47.61994-22.039924 90.101037-55.042712 123.218021-96.381845 23.638675-29.576893 42.138508-62.579681 54.81432-98.094792 13.132597-36.771272 19.755994-75.369689 19.755994-114.767481V96.039255h-45.678599v105.745957c0 67.718523-22.382514 131.44017-64.635218 184.198952-40.996543 51.160031-98.437382 87.702911-161.930635 102.776849-8.222148 1.827144-15.073938 8.222148-17.129475 17.015278-2.854912 12.219025 4.682056 24.552247 17.015278 27.521356 63.493253 15.073938 121.048288 51.502621 162.159028 102.776848 42.252704 52.758782 64.635218 116.480428 64.635218 184.198952v157.134382l-589.824914 0.799375V820.273447c0-67.375934 22.154121-130.869187 63.950039-183.399576 40.653953-51.045835 97.752203-87.702911 160.674474-103.119438 10.506078-2.512323 17.472064-11.990632 17.357867-22.268317v-0.456786-0.456786c0-10.277685-6.965986-19.755994-17.357867-22.268317-63.036467-15.416527-120.134716-51.959407-160.674474-103.119438-41.910115-52.644586-63.950039-116.023642-63.950039-183.399577V46.706368l731.999554-0.913572c12.561615 0 22.8393-10.277685 22.8393-22.8393s-10.277685-22.8393-22.8393-22.8393L202.070704 1.027768c-2.055537-0.685179-4.339467-1.027768-6.623397-1.027768-2.398126 0-4.682056 0.342589-6.85179 1.027768l-111.912568 0.228393c-12.561615 0-22.8393 10.277685-22.8393 22.8393s10.277685 22.8393 22.8393 22.8393l94.783093-0.114197v154.964648c0 39.169399 6.623397 77.539422 19.641798 114.196499 12.561615 35.400914 30.833055 68.289506 54.243337 97.752202 33.231181 41.795918 75.940671 75.141296 123.9032 97.295417-47.962529 22.268317-90.67202 55.613695-123.9032 97.295416C221.940894 637.901639 203.669455 670.676034 191.10784 706.076949c-13.018401 36.542879-19.641798 75.027099-19.641798 114.196498v157.933757l-95.810862 0.114197c-12.561615 0-22.8393 10.277685-22.8393 22.839299s10.277685 22.8393 22.8393 22.8393l752.326531-1.027768H829.466265l118.878555-0.114197c12.561615 0 22.8393-10.277685 22.8393-22.8393s-10.277685-22.8393-22.8393-22.839299z" /></svg>