<?xml version="1.0" standalone="no"?><!DOCTYPE svg PUBLIC "-//W3C//DTD SVG 1.1//EN" "http://www.w3.org/Graphics/SVG/1.1/DTD/svg11.dtd"><svg class="icon" width="200px" height="200.00px" viewBox="0 0 1024 1024" version="1.1" xmlns="http://www.w3.org/2000/svg"><path fill="#e6e6e6" d="M701.696542 685.798165m-27.460833 0a27.460833 27.460833 0 1 0 54.921666 0 27.460833 27.460833 0 1 0-54.921666 0Z"  /><path fill="#e6e6e6" d="M677.126323 589.685251m-27.460833 0a27.460833 27.460833 0 1 0 54.921666 0 27.460833 27.460833 0 1 0-54.921666 0Z"  /><path fill="#e6e6e6" d="M753.00494 528.982357m-27.460833 0a27.460833 27.460833 0 1 0 54.921666 0 27.460833 27.460833 0 1 0-54.921666 0Z"  /><path fill="#e6e6e6" d="M897.535639 386.619619L635.935074 385.896965l-87.441073-245.702187C544.880734 130.077629 534.763585 122.851094 524.646436 122.851094s-20.234298 6.503881-23.847565 16.62103l-87.441073 245.702188-261.600564 1.445307c-10.839802 0-20.234298 6.503881-23.847566 16.62103s-0.722653 20.956951 7.949189 28.183486l209.569513 171.268878-75.155964 255.096684c-2.890614 10.839802 0.722653 21.679605 10.117149 28.183486 9.394495 6.503881 20.956951 5.781228 29.628794-0.722654l214.628087-166.932957 214.628088 166.932957c4.335921 3.613267 10.117149 5.058574 15.175723 5.058575 5.058574 0 10.117149-1.445307 14.45307-4.335921 9.394495-6.503881 13.007763-17.343684 10.117149-28.183486l-26.015526-87.441073c-3.613267-13.730416-18.066337-20.956951-31.0741-17.343684-13.730416 3.613267-20.956951 18.066337-17.343684 31.0741l3.613267 12.28511-168.378264-130.077629c-8.671842-7.226535-22.402258-7.226535-31.0741 0l-168.378264 130.800282 57.81228-195.839097c2.890614-10.117149-0.722653-20.234298-7.949189-26.738179l-167.65561-137.304164 208.846859-0.722653c10.839802 0 20.234298-6.503881 23.847566-16.62103L524.646436 224.022583l69.374735 195.116443c3.613267 10.117149 13.007763 16.62103 23.847566 16.62103l208.846859 0.722654-7.226535 5.781228c-10.839802 8.671842-12.285109 24.570219-3.613267 35.410021 8.671842 10.839802 24.570219 12.285109 35.410021 3.613268l62.148201-50.585745c7.949188-6.503881 11.562456-18.066337 7.949188-28.183486-3.613267-8.671842-13.730416-15.898377-23.847565-15.898377z"  /></svg>