<?xml version="1.0" standalone="no"?><!DOCTYPE svg PUBLIC "-//W3C//DTD SVG 1.1//EN" "http://www.w3.org/Graphics/SVG/1.1/DTD/svg11.dtd"><svg class="icon" width="200px" height="200.00px" viewBox="0 0 1024 1024" version="1.1" xmlns="http://www.w3.org/2000/svg"><path fill="#e6e6e6" d="M837.555399 607.751588H705.309809V475.505999c0-13.730416-11.562456-25.292872-25.292872-25.292873s-25.292872 11.562456-25.292872 25.292873v132.245589H522.478476c-13.730416 0-25.292872 11.562456-25.292873 25.292872s11.562456 25.292872 25.292873 25.292872h132.245589v132.24559c0 13.730416 11.562456 25.292872 25.292872 25.292872s25.292872-11.562456 25.292872-25.292872V658.337332h132.24559c13.730416 0 25.292872-11.562456 25.292872-25.292872s-10.839802-25.292872-25.292872-25.292872z"  /><path fill="#e6e6e6" d="M581.736062 799.977417c-33.964714 16.62103-70.820042 25.292872-109.120677 25.292872h-9.394496c-136.58151 0-248.592802-111.288638-248.592801-247.147494 0-56.366972 18.788991-109.843331 54.199012-154.647848l194.393789-255.096683 174.882146 231.249118c8.671842 10.839802 24.570219 13.007763 35.410021 5.058574 10.839802-8.671842 13.007763-24.570219 5.058574-35.410021L489.959068 117.792519c-0.722653-0.722653-1.445307-2.16796-2.16796-2.890614-6.503881-6.503881-14.45307-10.117149-23.847565-10.117148-9.394495 0-17.343684 3.613267-23.847566 10.117148-0.722653 0.722653-1.445307 1.445307-2.16796 2.890614L268.104446 341.092449l-38.300635 50.585744c-42.636556 53.476359-65.038814 117.792519-65.038815 185.721948 0 164.042343 134.41355 297.733239 299.178547 297.733239h9.394495c46.249824 0 90.331687-10.117149 130.800282-30.351446 12.285109-5.781228 18.066337-20.956951 11.562456-33.964715-6.503881-12.285109-21.679605-17.343684-33.964714-10.839802z"  /><path fill="#e6e6e6" d="M297.010586 563.669725m-27.460833 0a27.460833 27.460833 0 1 0 54.921665 0 27.460833 27.460833 0 1 0-54.921665 0Z"  /><path fill="#e6e6e6" d="M316.52223 647.49753m-27.460833 0a27.460833 27.460833 0 1 0 54.921666 0 27.460833 27.460833 0 1 0-54.921666 0Z"  /><path fill="#e6e6e6" d="M377.947777 707.47777m-27.460833 0a27.460833 27.460833 0 1 0 54.921666 0 27.460833 27.460833 0 1 0-54.921666 0Z"  /></svg>