<?xml version="1.0" standalone="no"?><!DOCTYPE svg PUBLIC "-//W3C//DTD SVG 1.1//EN" "http://www.w3.org/Graphics/SVG/1.1/DTD/svg11.dtd"><svg class="icon" width="200px" height="200.00px" viewBox="0 0 1024 1024" version="1.1" xmlns="http://www.w3.org/2000/svg"><path fill="#e6e6e6" d="M920.66055 476.228652c9.394495-3.613267 15.175723-13.007763 15.175724-23.124912V315.799577c0-36.855328-29.628793-66.484121-66.484122-66.484122H151.757234c-36.855328 0-66.484121 29.628793-66.484122 66.484122v138.74947c0 10.839802 6.503881 20.234298 16.621031 23.847566 13.730416 5.058574 22.402258 17.343684 22.402258 31.796753S115.624559 536.931546 101.894143 541.99012c-10.117149 3.613267-16.62103 13.007763-16.621031 23.847565v134.41355c0 36.855328 29.628793 66.484121 66.484122 66.484121h718.317572c36.855328 0 66.484121-29.628793 66.484121-66.484121V561.501764c0-10.117149-5.781228-19.511644-15.175723-23.124911-12.285109-5.058574-20.234298-17.343684-20.234298-31.074101-0.722653-13.730416 7.226535-26.015526 19.511644-31.0741z m-35.410021-38.300635c-22.402258 15.898377-36.132675 41.191249-36.132674 69.374735 0 28.183486 13.730416 53.476359 36.132674 69.374736v123.573747c0 8.671842-7.226535 15.898377-15.898377 15.898377H151.757234c-8.671842 0-15.898377-7.226535-15.898377-15.898377V581.013409c23.847565-15.175723 39.023289-41.913903 39.023288-71.542696 0-28.90614-15.175723-55.644319-39.023288-71.542696V315.076923c0-8.671842 7.226535-15.898377 15.898377-15.898377h718.317572c8.671842 0 15.898377 7.226535 15.898377 15.898377v122.851094z"  /><path fill="#e6e6e6" d="M724.821454 411.189838m-27.460833 0a27.460833 27.460833 0 1 0 54.921666 0 27.460833 27.460833 0 1 0-54.921666 0Z"  /><path fill="#e6e6e6" d="M724.821454 507.302752m-27.460833 0a27.460833 27.460833 0 1 0 54.921666 0 27.460833 27.460833 0 1 0-54.921666 0Z"  /><path fill="#e6e6e6" d="M724.821454 603.415667m-27.460833 0a27.460833 27.460833 0 1 0 54.921666 0 27.460833 27.460833 0 1 0-54.921666 0Z"  /><path fill="#e6e6e6" d="M534.763585 466.111503c13.730416 0 25.292872-11.562456 25.292872-25.292872s-11.562456-25.292872-25.292872-25.292872h-30.351447l15.175724-33.964715c5.781228-13.007763 0-27.460833-13.007763-33.24206-13.007763-5.781228-27.460833 0-33.242061 13.007763l-23.847565 54.199012h-43.35921L382.283698 361.326747c-5.781228-13.007763-20.234298-18.788991-33.242061-13.007763-13.007763 5.781228-18.788991 20.234298-13.007763 33.24206l15.175724 33.964715H310.741002c-13.730416 0-25.292872 11.562456-25.292872 25.292872s11.562456 25.292872 25.292872 25.292872h87.441073v59.98024H309.295695c-13.730416 0-25.292872 11.562456-25.292872 25.292872s11.562456 25.292872 25.292872 25.292873h87.441073v67.206775c0 13.730416 11.562456 25.292872 25.292872 25.292872s25.292872-11.562456 25.292872-25.292872v-67.206775H534.763585c13.730416 0 25.292872-11.562456 25.292872-25.292873s-11.562456-25.292872-25.292872-25.292872h-87.441073v-59.98024H534.763585z"  /></svg>