<?xml version="1.0" standalone="no"?><!DOCTYPE svg PUBLIC "-//W3C//DTD SVG 1.1//EN" "http://www.w3.org/Graphics/SVG/1.1/DTD/svg11.dtd"><svg class="icon" width="200px" height="200.00px" viewBox="0 0 1024 1024" version="1.1" xmlns="http://www.w3.org/2000/svg"><path fill="#e6e6e6" d="M166.210303 513.08398c0-194.39379 158.261115-352.654905 352.654905-352.654904 65.761468 0 130.077629 18.788991 184.999294 52.753705l-67.206774 11.562455c-13.730416 2.16796-23.124912 15.175723-20.956952 28.90614 2.16796 12.285109 13.007763 20.956951 24.570219 20.956951h4.335921l127.187015-21.679604c13.730416-2.16796 23.124912-15.175723 20.956951-28.90614L773.239238 106.230064c-2.16796-13.730416-15.175723-23.124912-28.90614-20.956952-13.730416 2.16796-23.124912 15.175723-20.956951 28.90614l9.394495 57.089626c-63.593507-40.468596-138.026817-62.1482-214.628087-62.148201C297.010586 109.843331 115.624559 291.229358 115.624559 513.08398c0 62.870854 14.45307 123.573747 41.913903 179.218067 4.335921 8.671842 13.730416 13.730416 22.402258 13.730416 3.613267 0 7.949188-0.722653 11.562456-2.890614 12.285109-6.503881 17.343684-21.679605 11.562456-33.964714C178.495413 621.482004 166.210303 568.728299 166.210303 513.08398z"  /><path fill="#e6e6e6" d="M867.184192 669.177135c-12.285109-6.503881-27.460833-2.16796-33.964714 10.117149-61.425547 115.624559-180.663373 187.889908-311.463656 187.889908-65.761468 0-130.077629-18.788991-184.999294-52.753705l67.206775-11.562456c13.730416-2.16796 23.124912-15.175723 20.956951-28.90614s-15.175723-23.124912-28.90614-20.956951l-127.187014 21.679605c-13.730416 2.16796-23.124912 15.175723-20.956952 28.90614l19.511645 117.792519c2.16796 12.285109 13.007763 20.956951 24.570218 20.956951h4.335921c13.730416-2.16796 23.124912-15.175723 20.956952-28.906139l-9.394496-57.089626c63.593507 40.468596 138.026817 62.1482 214.628088 62.1482 149.589273 0 286.170783-82.382498 356.268172-214.628088 5.781228-12.285109 0.722653-28.183486-11.562456-34.687367z"  /><path fill="#e6e6e6" d="M892.477064 602.693013m-27.460833 0a27.460833 27.460833 0 1 0 54.921666 0 27.460833 27.460833 0 1 0-54.921666 0Z"  /><path fill="#e6e6e6" d="M900.426253 507.302752m-27.460833 0a27.460833 27.460833 0 1 0 54.921665 0 27.460833 27.460833 0 1 0-54.921665 0Z"  /><path fill="#e6e6e6" d="M889.58645 415.525759m-27.460832 0a27.460833 27.460833 0 1 0 54.921665 0 27.460833 27.460833 0 1 0-54.921665 0Z"  /><path fill="#e6e6e6" d="M639.548342 490.681722c13.730416 0 25.292872-11.562456 25.292872-25.292872s-11.562456-25.292872-25.292872-25.292873h-30.351447l15.175723-33.964714c5.781228-13.007763 0-27.460833-13.007763-33.24206-13.007763-5.781228-27.460833 0-33.24206 13.007762l-23.847566 54.199012h-43.359209l-23.847566-54.199012c-5.781228-13.007763-20.956951-18.788991-33.24206-13.007762-13.007763 5.781228-18.788991 20.234298-13.007763 33.24206l15.175723 33.964714h-40.468595c-13.730416 0-25.292872 11.562456-25.292873 25.292873s11.562456 25.292872 25.292873 25.292872h87.441072v59.98024H414.080452c-13.730416 0-25.292872 11.562456-25.292873 25.292872s11.562456 25.292872 25.292873 25.292872h87.441072v67.206775c0 13.730416 11.562456 25.292872 25.292873 25.292873s25.292872-11.562456 25.292872-25.292873v-67.206775h87.441073c13.730416 0 25.292872-11.562456 25.292872-25.292872s-11.562456-25.292872-25.292872-25.292872H552.107269v-59.98024h87.441073z"  /></svg>