<?xml version="1.0" standalone="no"?><!DOCTYPE svg PUBLIC "-//W3C//DTD SVG 1.1//EN" "http://www.w3.org/Graphics/SVG/1.1/DTD/svg11.dtd"><svg class="icon" width="200px" height="200.00px" viewBox="0 0 1024 1024" version="1.1" xmlns="http://www.w3.org/2000/svg"><path fill="#e6e6e6" d="M622.204658 85.273112c-236.307692-59.257586-476.951306 85.273112-536.208892 322.303458-59.257586 237.030346 85.273112 477.673959 322.303458 536.931546 237.030346 59.257586 477.673959-85.273112 536.931545-322.303458 58.534933-237.030346-85.995766-478.396613-323.026111-536.931546z m99.003528 596.911786c10.839802 10.839802 10.839802 27.460833 0 38.300635-5.058574 5.058574-12.285109 7.949188-18.788991 7.949188-7.226535 0-13.730416-2.890614-18.78899-7.949188L515.251941 552.829922 347.59633 720.485533c-5.058574 5.058574-12.285109 7.949188-18.788991 7.949188-7.226535 0-13.730416-2.890614-18.78899-7.949188-10.839802-10.839802-10.839802-27.460833 0-38.300635L476.951306 514.529287 309.295695 346.873677c-10.839802-10.839802-10.839802-27.460833 0-38.300635s27.460833-10.839802 38.300635 0l167.655611 167.65561 167.65561-167.65561c10.839802-10.839802 27.460833-10.839802 38.300635 0s10.839802 27.460833 0 38.300635L553.552576 514.529287l167.65561 167.655611z"  /></svg>