<?xml version="1.0" standalone="no"?><!DOCTYPE svg PUBLIC "-//W3C//DTD SVG 1.1//EN" "http://www.w3.org/Graphics/SVG/1.1/DTD/svg11.dtd"><svg class="icon" width="200px" height="200.00px" viewBox="0 0 1024 1024" version="1.1" xmlns="http://www.w3.org/2000/svg"><path fill="#e6e6e6" d="M899.703599 268.8271c-9.394495-4.335921-20.234298-2.16796-27.460833 5.058574L709.64573 429.256175 531.872971 175.604799c-5.058574-6.503881-12.285109-10.839802-20.956951-10.839803-7.949188 0-15.898377 4.335921-20.956952 10.839803L314.35427 427.088215 161.874382 274.608327c-7.226535-7.226535-18.066337-9.394495-27.460832-5.781227-9.394495 3.613267-15.898377 13.007763-15.898377 23.124911v541.99012c0 13.730416 11.562456 25.292872 25.292872 25.292873h746.501059c13.730416 0 25.292872-11.562456 25.292872-25.292873v-541.99012c-0.722653-10.117149-6.503881-18.788991-15.898377-23.124911z m-35.410021 539.822159H169.100917V666.286521h695.915314v142.362738z m0-192.948483H169.100917V353.377558L299.9012 484.177841c5.058574 5.058574 12.285109 7.949188 20.234298 7.226534 7.226535-0.722653 14.45307-4.335921 18.78899-10.839802l172.714185-247.147495 174.159492 247.870149c4.335921 5.781228 10.839802 10.117149 18.066337 10.839802 7.226535 0.722653 14.45307-1.445307 20.234298-7.226535l140.917431-134.41355v265.213832z"  /><path fill="#e6e6e6" d="M420.584333 747.946366m-27.460833 0a27.460833 27.460833 0 1 0 54.921666 0 27.460833 27.460833 0 1 0-54.921666 0Z"  /><path fill="#e6e6e6" d="M516.697248 747.946366m-27.460833 0a27.460833 27.460833 0 1 0 54.921665 0 27.460833 27.460833 0 1 0-54.921665 0Z"  /><path fill="#e6e6e6" d="M612.810162 747.946366m-27.460832 0a27.460833 27.460833 0 1 0 54.921665 0 27.460833 27.460833 0 1 0-54.921665 0Z"  /></svg>