<?xml version="1.0" standalone="no"?><!DOCTYPE svg PUBLIC "-//W3C//DTD SVG 1.1//EN" "http://www.w3.org/Graphics/SVG/1.1/DTD/svg11.dtd"><svg class="icon" width="200px" height="200.00px" viewBox="0 0 1024 1024" version="1.1" xmlns="http://www.w3.org/2000/svg"><path fill="#e6e6e6" d="M403.963303 600.525053c-13.730416 0-25.292872 11.562456-25.292873 25.292872s11.562456 25.292872 25.292873 25.292872H491.404375v67.206775c0 13.730416 11.562456 25.292872 25.292873 25.292873s25.292872-11.562456 25.292872-25.292873v-67.206775h87.441073c13.730416 0 25.292872-11.562456 25.292872-25.292872s-11.562456-25.292872-25.292872-25.292872H541.99012v-59.98024h87.441073c13.730416 0 25.292872-11.562456 25.292872-25.292872s-11.562456-25.292872-25.292872-25.292873h-30.351447l15.175723-33.964714c5.781228-13.007763 0-27.460833-13.007763-33.24206-13.007763-5.781228-27.460833 0-33.24206 13.007762l-23.847566 54.199012h-43.359209L476.951306 435.760056c-5.781228-13.007763-20.234298-18.788991-33.242061-13.007762-13.007763 5.781228-18.788991 20.234298-13.007763 33.24206l15.175723 33.964714h-40.468595c-13.730416 0-25.292872 11.562456-25.292873 25.292873s11.562456 25.292872 25.292873 25.292872H491.404375v59.98024H403.963303z"  /><path fill="#e6e6e6" d="M222.577276 839.000706c0 54.921665 44.804517 99.726182 99.726182 99.726182h389.510233c54.921665 0 99.726182-44.804517 99.726182-99.726182V184.276641c0-54.921665-44.804517-99.726182-99.726182-99.726182H322.303458c-54.921665 0-99.726182 44.804517-99.726182 99.003528l-0.722654 36.855328v1.445307l0.722654 58.534933v558.611151z m489.236415-703.864503c4.335921 0 8.671842 0.722653 12.285109 1.445307-13.730416 17.343684-28.90614 32.519407-46.249823 46.249824-10.839802 8.671842-13.007763 24.570219-4.335921 35.410021 5.058574 6.503881 12.285109 9.394495 20.234298 9.394495 5.781228 0 10.839802-1.445307 15.898376-5.781228 18.788991-14.45307 35.410021-31.0741 50.585745-49.140437 0.722653 3.613267 1.445307 7.226535 1.445307 10.839802V838.278052c0 26.738179-21.679605 49.140438-49.140438 49.140438h-390.232886c-26.738179 0-49.140438-21.679605-49.140438-49.140438V278.944248l-0.722653-58.534933 0.722653-31.0741c10.839802 11.562456 23.124912 22.402258 35.410022 32.519407 4.335921 3.613267 10.117149 5.781228 15.898376 5.781228 7.226535 0 15.175723-3.613267 20.234298-9.394495 8.671842-10.839802 6.503881-26.738179-4.335921-35.410021-15.175723-12.285109-29.628793-26.015526-41.913902-41.191249 7.226535-4.335921 15.898377-6.503881 24.570219-6.503882h388.787579z"  /><path fill="#e6e6e6" d="M420.584333 258.709951m-27.460833 0a27.460833 27.460833 0 1 0 54.921666 0 27.460833 27.460833 0 1 0-54.921666 0Z"  /><path fill="#e6e6e6" d="M516.697248 276.776288m-27.460833 0a27.460833 27.460833 0 1 0 54.921665 0 27.460833 27.460833 0 1 0-54.921665 0Z"  /><path fill="#e6e6e6" d="M612.810162 258.709951m-27.460832 0a27.460833 27.460833 0 1 0 54.921665 0 27.460833 27.460833 0 1 0-54.921665 0Z"  /></svg>