<?xml version="1.0" standalone="no"?><!DOCTYPE svg PUBLIC "-//W3C//DTD SVG 1.1//EN" "http://www.w3.org/Graphics/SVG/1.1/DTD/svg11.dtd"><svg class="icon" width="200px" height="199.80px" viewBox="0 0 1025 1024" version="1.1" xmlns="http://www.w3.org/2000/svg"><path fill="#e6e6e6" d="M980 220c-15.428571-15.428571-33.6-27.314286-53.485714-34.971429-11.542857-5.028571-52-21.828571-114.742857-39.2-67.428571-18.742857-174.742857-41.828571-302.742858-45.257142-128.8-3.428571-234.857143 20.685714-301.142857 41.485714-63.542857 20-103.314286 40.571429-113.257143 45.942857-17.485714 7.657143-33.714286 18.628571-47.542857 32.571429C17.828571 249.828571 1.6 288.8 1.6 330.285714s16.114286 80.457143 45.485714 109.714286c29.257143 29.257143 68.228571 45.485714 109.714286 45.485714s80.457143-16.114286 109.714286-45.485714c29.257143-29.257143 45.485714-68.228571 45.485714-109.714286s-16.114286-80.457143-45.485714-109.714285c-14.4-14.4-31.2-25.714286-49.485715-33.371429 69.028571-22.171429 169.6-44.228571 290.857143-40.914286 122.857143 3.314286 225.828571 25.371429 290.628572 43.314286 1.142857 0.342857 2.171429 0.571429 3.314285 0.914286-15.085714 7.428571-28.914286 17.371429-41.142857 29.485714-29.257143 29.257143-45.485714 68.228571-45.485714 109.714286s16.114286 80.457143 45.485714 109.714285 68.228571 45.485714 109.714286 45.485715 80.457143-16.114286 109.714286-45.485715c29.257143-29.257143 45.485714-68.228571 45.485714-109.714285s-16.342857-80.342857-45.6-109.714286z m-713.828571 110.4c0 29.257143-11.428571 56.685714-32 77.371429-20.685714 20.685714-48.114286 32-77.371429 32s-56.685714-11.428571-77.371429-32c-20.685714-20.685714-32-48.114286-32-77.371429s11.428571-56.685714 32-77.371429c20.685714-20.685714 48.114286-32 77.371429-32s56.685714 11.428571 77.371429 32c20.571429 20.571429 32 48.114286 32 77.371429z m681.485714 76.685714c-20.685714 20.685714-48.114286 32-77.371429 32s-56.685714-11.428571-77.371428-32c-20.685714-20.685714-32-48.114286-32-77.371428s11.428571-56.685714 32-77.371429c20.685714-20.685714 48.114286-32 77.371428-32 13.6 0 26.857143 2.514286 39.314286 7.2 0.914286 0.342857 1.371429 0.571429 1.371429 0.571429 13.6 5.485714 26.057143 13.6 36.685714 24.228571 20.685714 20.685714 32 48.114286 32 77.371429s-11.314286 56.685714-32 77.371428zM999.771429 923.428571H24c-13.257143 0-24-10.742857-24-24v-2.857142l0.685714-2.742858c1.257143-5.142857 32-126.285714 109.257143-249.371428 45.828571-72.914286 98.628571-131.314286 156.8-173.257143 73.714286-53.142857 156.228571-80.228571 245.028572-80.228571 69.028571 0 134.514286 20.914286 194.628571 62.285714 50.514286 34.742857 97.828571 84.342857 140.571429 147.428571L809.142857 626.285714C723.885714 500.571429 623.885714 436.8 511.771429 436.8c-79.085714 0-152.457143 24.114286-218.285715 71.542857-53.371429 38.514286-102.171429 92.571429-144.8 160.457143C96.342857 752.114286 66.171429 835.885714 53.028571 877.714286h907.771429c-21.828571-35.885714-61.828571-102.285714-125.028571-209.371429l39.314285-23.2C978.857143 820.914286 1019.885714 886.628571 1020.342857 887.314286l3.428572 5.6v6.514285c0 13.257143-10.742857 24-24 24z" /></svg>