<?xml version="1.0" standalone="no"?><!DOCTYPE svg PUBLIC "-//W3C//DTD SVG 1.1//EN" "http://www.w3.org/Graphics/SVG/1.1/DTD/svg11.dtd"><svg class="icon" width="200px" height="200.00px" viewBox="0 0 1024 1024" version="1.1" xmlns="http://www.w3.org/2000/svg"><path fill="#e6e6e6" d="M893.199718 489.959068h-104.062103v-260.155257c0-13.730416-11.562456-25.292872-25.292873-25.292872s-25.292872 11.562456-25.292872 25.292872v259.432604H136.58151c-30.351447 0-54.921665 24.570219-54.921665 54.921665V766.012703c0 30.351447 24.570219 54.921665 54.921665 54.921665h756.618208c30.351447 0 54.921665-24.570219 54.921665-54.921665V544.880734c0.722653-30.351447-24.570219-54.921665-54.921665-54.921666z m5.058574 276.776288c0 2.16796-2.16796 4.335921-4.335921 4.335921H136.58151c-2.16796 0-4.335921-2.16796-4.335921-4.335921V544.880734c0-2.16796 2.16796-4.335921 4.335921-4.335921h756.618208c2.16796 0 4.335921 2.16796 4.335921 4.335921v221.854622z"  /><path fill="#e6e6e6" d="M209.569513 703.141849m-27.460833 0a27.460833 27.460833 0 1 0 54.921666 0 27.460833 27.460833 0 1 0-54.921666 0Z"  /><path fill="#e6e6e6" d="M305.682428 703.141849m-27.460833 0a27.460833 27.460833 0 1 0 54.921665 0 27.460833 27.460833 0 1 0-54.921665 0Z"  /><path fill="#e6e6e6" d="M401.795342 703.141849m-27.460832 0a27.460833 27.460833 0 1 0 54.921665 0 27.460833 27.460833 0 1 0-54.921665 0Z"  /></svg>