<?xml version="1.0" standalone="no"?><!DOCTYPE svg PUBLIC "-//W3C//DTD SVG 1.1//EN" "http://www.w3.org/Graphics/SVG/1.1/DTD/svg11.dtd"><svg class="icon" width="200px" height="200.00px" viewBox="0 0 1024 1024" version="1.1" xmlns="http://www.w3.org/2000/svg"><path fill="#e6e6e6" d="M444.431898 179.94072H203.065632c-23.124912 0-42.636556 18.788991-42.636556 42.636556v241.366267c0 23.124912 18.788991 42.636556 42.636556 42.636556h241.366266c23.124912 0 42.636556-18.788991 42.636556-42.636556V222.577276c0-23.847565-19.511644-42.636556-42.636556-42.636556zM436.48271 455.271701H211.737474V230.526464h224.745236V455.271701z"  /><path fill="#e6e6e6" d="M444.431898 557.888497H203.065632c-23.124912 0-42.636556 18.788991-42.636556 42.636556v241.366267c0 23.124912 18.788991 42.636556 42.636556 42.636556h241.366266c23.124912 0 42.636556-18.788991 42.636556-42.636556V600.525053c0-23.847565-19.511644-42.636556-42.636556-42.636556z m-7.949188 275.330981H211.737474V608.474241h224.745236v224.745237z"  /><path fill="#e6e6e6" d="M849.840508 401.072689c-13.730416 0-25.292872 11.562456-25.292872 25.292872v28.90614H599.802399V230.526464h28.183487c13.730416 0 25.292872-11.562456 25.292872-25.292872s-11.562456-25.292872-25.292872-25.292872h-36.855328c-23.124912 0-42.636556 18.788991-42.636557 42.636556v241.366267c0 23.124912 18.788991 42.636556 42.636557 42.636556h241.366266c23.124912 0 42.636556-18.788991 42.636556-42.636556V426.365561c0-13.730416-11.562456-25.292872-25.292872-25.292872z"  /><path fill="#e6e6e6" d="M851.285815 325.194072m-28.183486 0a28.183486 28.183486 0 1 0 56.366972 0 28.183486 28.183486 0 1 0-56.366972 0Z"  /><path fill="#e6e6e6" d="M850.563162 213.905434m-28.183487 0a28.183486 28.183486 0 1 0 56.366973 0 28.183486 28.183486 0 1 0-56.366973 0Z"  /><path fill="#e6e6e6" d="M737.106563 210.292167m-28.183486 0a28.183486 28.183486 0 1 0 56.366972 0 28.183486 28.183486 0 1 0-56.366972 0Z"  /><path fill="#e6e6e6" d="M847.672548 557.888497H575.954834c-13.730416 0-25.292872 11.562456-25.292872 25.292872s11.562456 25.292872 25.292872 25.292872h246.424841V751.559633c0 13.730416 11.562456 25.292872 25.292873 25.292872s25.292872-11.562456 25.292872-25.292872V583.181369c0-13.730416-11.562456-25.292872-25.292872-25.292872z"  /><path fill="#e6e6e6" d="M847.672548 830.328864H601.247706V681.462244c0-13.730416-11.562456-25.292872-25.292872-25.292872s-25.292872 11.562456-25.292872 25.292872v174.882146c0 13.730416 11.562456 25.292872 25.292872 25.292872h271.717714c13.730416 0 25.292872-11.562456 25.292872-25.292872s-11.562456-26.015526-25.292872-26.015526z"  /><path fill="#e6e6e6" d="M744.333098 775.407198c13.730416 0 25.292872-11.562456 25.292872-25.292872v-57.812279c0-13.730416-11.562456-25.292872-25.292872-25.292873s-25.292872 11.562456-25.292872 25.292873v32.519407h-36.855328c-13.730416 0-25.292872 11.562456-25.292873 25.292872s11.562456 25.292872 25.292873 25.292872h62.1482z"  /></svg>