<?xml version="1.0" standalone="no"?><!DOCTYPE svg PUBLIC "-//W3C//DTD SVG 1.1//EN" "http://www.w3.org/Graphics/SVG/1.1/DTD/svg11.dtd"><svg class="icon" width="200px" height="200.00px" viewBox="0 0 1024 1024" version="1.1" xmlns="http://www.w3.org/2000/svg"><path fill="#e6e6e6" d="M946.676076 464.666196c9.394495-4.335921 15.898377-13.730416 15.898377-24.570219v-143.808045c0-38.300635-31.0741-69.374735-69.374735-69.374735h-750.114326c-38.300635 0-69.374735 31.0741-69.374736 69.374735v145.253352c0 10.839802 7.226535 20.956951 17.343684 24.570219 13.730416 5.058574 23.124912 18.066337 23.124912 33.242061s-9.394495 28.183486-23.124912 33.242061c-10.839802 3.613267-17.343684 13.730416-17.343684 24.570218V698.805928c0 38.300635 31.0741 69.374735 69.374736 69.374735h750.114326c38.300635 0 69.374735-31.0741 69.374735-69.374735v-144.530699c0-10.839802-6.503881-20.234298-15.898377-24.570218-13.007763-5.781228-21.679605-18.066337-21.679605-32.519408 0-13.730416 8.671842-26.738179 21.679605-32.519407z m-36.855328-39.745942c-23.124912 16.62103-37.577982 43.35921-37.577982 72.265349s14.45307 55.644319 37.577982 72.26535V698.805928c0 8.671842-7.226535 16.62103-16.62103 16.62103h-750.114326c-8.671842 0-16.62103-7.226535-16.621031-16.62103v-123.573747c25.292872-15.898377 41.191249-44.081863 41.191249-74.43331s-15.898377-58.534933-41.191249-74.43331v-128.632322c0-8.671842 7.226535-16.62103 16.621031-16.62103h750.114326c8.671842 0 16.62103 7.226535 16.62103 16.62103v127.187015z"  /><path fill="#e6e6e6" d="M742.165138 397.459421m-28.183487 0a28.183486 28.183486 0 1 0 56.366973 0 28.183486 28.183486 0 1 0-56.366973 0Z"  /><path fill="#e6e6e6" d="M742.165138 497.908257m-28.183487 0a28.183486 28.183486 0 1 0 56.366973 0 28.183486 28.183486 0 1 0-56.366973 0Z"  /><path fill="#e6e6e6" d="M742.165138 598.357092m-28.183487 0a28.183486 28.183486 0 1 0 56.366973 0 28.183486 28.183486 0 1 0-56.366973 0Z"  /><path fill="#e6e6e6" d="M390.95554 354.822865c-7.949188-3.613267-17.343684-1.445307-23.847565 5.058575l-78.769231 78.76923c-8.671842 8.671842-8.671842 22.402258 0 31.074101 8.671842 8.671842 22.402258 8.671842 31.0741 0l41.191249-41.191249v192.948482c0 12.285109 10.117149 21.679605 21.679605 21.679605s21.679605-10.117149 21.679605-21.679605v-245.702187c0.722653-10.117149-5.058574-18.066337-13.007763-20.956952zM544.880734 526.091743l-41.191249 41.191249v-192.948482c0-12.285109-10.117149-21.679605-21.679605-21.679605s-21.679605 10.117149-21.679605 21.679605v245.702187c0 8.671842 5.058574 16.62103 13.730417 20.234298 2.890614 1.445307 5.781228 1.445307 8.671842 1.445307 5.781228 0 11.562456-2.16796 15.898376-6.503881l78.769231-78.769231c8.671842-8.671842 8.671842-22.402258 0-31.0741-10.117149-7.226535-23.847565-7.226535-32.519407 0.722653z"  /></svg>