<?xml version="1.0" standalone="no"?><!DOCTYPE svg PUBLIC "-//W3C//DTD SVG 1.1//EN" "http://www.w3.org/Graphics/SVG/1.1/DTD/svg11.dtd"><svg class="icon" width="200px" height="200.00px" viewBox="0 0 1024 1024" version="1.1" xmlns="http://www.w3.org/2000/svg"><path fill="#e6e6e6" d="M643.884263 226.913197c1.445307 0 3.613267 0.722653 5.058574 0.722653 11.562456 0 22.402258-8.671842 24.570219-20.234297 2.890614-13.730416-6.503881-26.738179-19.511645-29.628794-39.023289-7.949188-79.491884-11.562456-119.960479-11.562456-168.378264 0-325.916725 67.206775-442.986592 190.057869-9.394495 10.117149-9.394495 26.015526 0.722654 35.410021 5.058574 5.058574 11.562456 7.226535 17.343683 7.226535 6.503881 0 13.007763-2.890614 18.066338-7.949188C234.862385 278.944248 379.393084 216.796048 534.040932 216.796048c36.855328-0.722653 73.710656 2.890614 109.843331 10.117149z"  /><path fill="#e6e6e6" d="M534.040932 372.166549c-114.901905 0-224.022583 50.585745-299.178547 138.026817-9.394495 10.839802-7.949188 26.738179 2.890614 35.410021 5.058574 4.335921 10.839802 5.781228 16.621031 5.781228 7.226535 0 14.45307-2.890614 19.511644-8.671842 65.761468-76.60127 160.429076-120.683133 260.155258-120.683133s195.116443 44.081863 260.155257 120.683133c5.058574 5.781228 12.285109 8.671842 19.511644 8.671842 5.781228 0 11.562456-2.16796 16.621031-5.781228 10.839802-9.394495 11.562456-25.292872 2.890614-35.410021-75.878617-87.441073-184.276641-137.304164-299.178546-138.026817z"  /><path fill="#e6e6e6" d="M534.040932 580.290755c-62.870854 0-121.405787 28.183486-161.151729 77.323924-8.671842 10.839802-7.226535 26.738179 3.613267 35.410021 4.335921 3.613267 10.117149 5.781228 15.898377 5.781228 7.226535 0 14.45307-2.890614 19.511644-9.394495 30.351447-36.855328 74.43331-58.534933 122.128441-58.534933 47.695131 0 91.776994 21.679605 122.12844 58.534933 5.058574 6.503881 12.285109 9.394495 19.511644 9.394495 5.781228 0 10.839802-2.16796 15.898377-5.781228 10.839802-8.671842 12.285109-24.570219 3.613268-35.410021-39.745942-48.417784-98.280875-76.60127-161.151729-77.323924z"  /><path fill="#e6e6e6" d="M534.040932 729.880028c-40.468596 0-73.710656 33.242061-73.710657 73.710657s33.242061 73.710656 73.710657 73.710656 73.710656-33.242061 73.710656-73.710656S574.509527 729.880028 534.040932 729.880028z m0 97.558222c-13.007763 0-23.124912-10.839802-23.124912-23.124912s10.839802-23.124912 23.124912-23.124912 23.124912 10.839802 23.124911 23.124912-10.117149 23.124912-23.124911 23.124912z"  /><path fill="#e6e6e6" d="M916.324629 338.924488m-27.460832 0a27.460833 27.460833 0 1 0 54.921665 0 27.460833 27.460833 0 1 0-54.921665 0Z"  /><path fill="#e6e6e6" d="M843.336627 279.666902m-27.460833 0a27.460833 27.460833 0 1 0 54.921665 0 27.460833 27.460833 0 1 0-54.921665 0Z"  /><path fill="#e6e6e6" d="M757.340861 231.971771m-27.460833 0a27.460833 27.460833 0 1 0 54.921666 0 27.460833 27.460833 0 1 0-54.921666 0Z"  /></svg>