<?xml version="1.0" standalone="no"?><!DOCTYPE svg PUBLIC "-//W3C//DTD SVG 1.1//EN" "http://www.w3.org/Graphics/SVG/1.1/DTD/svg11.dtd"><svg class="icon" width="200px" height="200.00px" viewBox="0 0 1024 1024" version="1.1" xmlns="http://www.w3.org/2000/svg"><path fill="#e6e6e6" d="M657.371429 1023.085714h-560c-13.257143 0-24-10.742857-24-24V24c0-13.257143 10.742857-24 24-24h828.685714c13.257143 0 24 10.742857 24 24v707.657143h-45.714286V45.714286H119.085714v931.657143h538.285715v45.714285zM857.371429 835.657143c-51.657143 0-93.6 41.942857-93.6 93.6 0 3.542857 0.228571 6.971429 0.571428 10.4-30.285714-17.714286-66.4-43.771429-101.6-80.8-35.428571-37.371429-62.057143-74.742857-80.914286-105.6 1.828571 0.114286 3.657143 0.228571 5.6 0.228571 51.657143 0 93.6-41.942857 93.6-93.6s-41.942857-93.6-93.6-93.6-93.6 41.942857-93.6 93.6c0 12.685714 2.514286 24.914286 7.2 36 3.542857 9.485714 40 100.914286 128.571429 194.514286C717.714286 983.428571 811.428571 1013.142857 824.342857 1016.914286c10.285714 3.885714 21.371429 6.057143 33.028572 6.057143 51.657143 0 93.6-41.942857 93.6-93.6s-41.942857-93.714286-93.6-93.714286zM587.428571 611.885714c26.4 0 47.885714 21.485714 47.885715 47.885715s-21.485714 47.885714-47.885715 47.885714c-26.4 0-47.885714-21.485714-47.885714-47.885714s21.485714-47.885714 47.885714-47.885715zM857.371429 977.142857c-26.4 0-47.885714-21.485714-47.885715-47.885714 0-26.4 21.485714-47.885714 47.885715-47.885714 26.4 0 47.885714 21.485714 47.885714 47.885714 0 26.4-21.485714 47.885714-47.885714 47.885714zM218.171429 195.314286H589.714286v45.714285H218.171429zM218.171429 342.628571H589.714286v45.714286H218.171429zM219.542857 488.8h146.4v45.714286H219.542857z" /></svg>