<?xml version="1.0" standalone="no"?><!DOCTYPE svg PUBLIC "-//W3C//DTD SVG 1.1//EN" "http://www.w3.org/Graphics/SVG/1.1/DTD/svg11.dtd"><svg class="icon" width="200px" height="200.00px" viewBox="0 0 1024 1024" version="1.1" xmlns="http://www.w3.org/2000/svg"><path fill="#e6e6e6" d="M306.405081 472.615385c47.695131 0 86.718419-39.023289 86.718419-86.71842s-39.023289-86.718419-86.718419-86.718419-86.718419 39.023289-86.718419 86.718419 39.023289 86.718419 86.718419 86.71842z m0-122.851094c20.234298 0 36.132675 16.62103 36.132675 36.132674s-16.62103 36.132675-36.132675 36.132675-36.132675-16.62103-36.132675-36.132675 16.62103-36.132675 36.132675-36.132674z"  /><path fill="#e6e6e6" d="M881.637262 174.159492H150.311927c-44.081863 0-79.491884 35.410021-79.491885 79.491884v521.033169c0 44.081863 35.410021 79.491884 79.491885 79.491884H881.637262c44.081863 0 79.491884-35.410021 79.491884-79.491884V253.651376c0-43.35921-35.410021-79.491884-79.491884-79.491884z m28.90614 601.247706c0 15.898377-13.007763 28.90614-28.90614 28.90614H150.311927c-15.898377 0-28.90614-13.007763-28.90614-28.90614V253.651376c0-15.898377 13.007763-28.90614 28.90614-28.90614H881.637262c15.898377 0 28.90614 13.007763 28.90614 28.90614v521.755822z"  /><path fill="#e6e6e6" d="M757.340861 432.146789c-10.117149-10.117149-26.015526-10.117149-36.132675 0L629.431193 523.923783 509.470713 403.963303c-10.117149-10.117149-26.015526-10.117149-35.410021 0L166.932957 710.368384c-10.117149 10.117149-10.117149 26.015526 0 36.132675 5.058574 5.058574 11.562456 7.226535 18.066337 7.226535s13.007763-2.16796 18.066338-7.226535l288.338743-289.061398 166.210304 166.210304c10.117149 10.117149 26.015526 10.117149 35.410021 0 10.117149-10.117149 10.117149-26.015526 0-36.132675l-28.90614-28.90614 73.710657-73.710656 88.886379 88.88638c5.058574 5.058574 11.562456 7.226535 18.066338 7.226535s13.007763-2.16796 18.066337-7.226535c10.117149-10.117149 10.117149-26.015526 0-36.132675l-105.50741-105.50741z"  /><path fill="#e6e6e6" d="M346.873677 699.528582m-27.460833 0a27.460833 27.460833 0 1 0 54.921666 0 27.460833 27.460833 0 1 0-54.921666 0Z"  /><path fill="#e6e6e6" d="M414.803105 631.599153m-27.460833 0a27.460833 27.460833 0 1 0 54.921666 0 27.460833 27.460833 0 1 0-54.921666 0Z"  /><path fill="#e6e6e6" d="M482.732534 562.947071m-27.460833 0a27.460833 27.460833 0 1 0 54.921665 0 27.460833 27.460833 0 1 0-54.921665 0Z"  /></svg>