<?xml version="1.0" standalone="no"?><!DOCTYPE svg PUBLIC "-//W3C//DTD SVG 1.1//EN" "http://www.w3.org/Graphics/SVG/1.1/DTD/svg11.dtd"><svg class="icon" width="200px" height="200.00px" viewBox="0 0 1024 1024" version="1.1" xmlns="http://www.w3.org/2000/svg"><path fill="#e6e6e6" d="M909.820748 369.275935C903.316867 252.928723 811.539873 161.874382 701.696542 161.874382H700.973888c-55.644319 0-108.398024 19.511644-147.421312 54.199012-15.175723 13.730416-28.183486 28.90614-37.577982 46.249824-34.687368-60.702893-102.616796-100.448836-184.999294-100.448836C221.131969 161.874382 130.077629 252.928723 122.851094 369.275935c-2.16796 32.519407-10.839802 322.303458 352.654905 486.345801 4.335921 2.16796 18.788991 7.949188 38.300635 7.949188 11.562456 0 25.292872-2.16796 40.468595-8.671841 23.124912-10.117149 45.52717-21.679605 66.484122-33.242061 0.722653-0.722653 23.124912-13.007763 49.863091-31.796754 11.562456-7.949188 14.45307-23.847565 6.503881-35.410021-7.949188-11.562456-23.847565-14.45307-35.410021-6.503881-25.292872 17.343684-46.249824 29.628793-46.249824 29.628793-19.511644 10.839802-40.468596 21.679605-62.1482 31.0741-20.956951 8.671842-36.855328 1.445307-36.855328 1.445307-0.722653 0-0.722653-0.722653-1.445307-0.722654C164.042343 659.782639 171.268878 401.795342 173.436838 372.166549c5.058574-89.609033 74.43331-159.706422 158.261115-159.706422 91.776994 0 158.983769 60.702893 158.983769 144.530699v5.058574c2.16796 13.007763 13.730416 22.402258 26.738179 21.679605 13.007763-0.722653 23.124912-12.285109 23.124912-25.292872 0-40.468596 16.62103-78.046577 46.972477-104.784757 29.628793-26.738179 70.097389-41.191249 113.456598-41.191249h0.722654c83.105152 0 152.479887 70.097389 157.538462 160.429076 0.722653 8.671842 1.445307 32.519407-3.613268 65.761467-2.16796 13.730416 7.226535 26.738179 20.956951 28.90614 13.730416 2.16796 26.738179-7.226535 28.90614-20.956951 5.781228-36.855328 5.058574-64.316161 4.335921-77.323924zM842.613973 551.384615m-25.292872 0a25.292872 25.292872 0 1 0 50.585744 0 25.292872 25.292872 0 1 0-50.585744 0ZM798.53211 629.431193m-25.292872 0a25.292872 25.292872 0 1 0 50.585744 0 25.292872 25.292872 0 1 0-50.585744 0ZM734.938603 702.419195m-25.292873 0a25.292872 25.292872 0 1 0 50.585745 0 25.292872 25.292872 0 1 0-50.585745 0Z" /></svg>