<?xml version="1.0" standalone="no"?><!DOCTYPE svg PUBLIC "-//W3C//DTD SVG 1.1//EN" "http://www.w3.org/Graphics/SVG/1.1/DTD/svg11.dtd"><svg class="icon" width="200px" height="200.00px" viewBox="0 0 1024 1024" version="1.1" xmlns="http://www.w3.org/2000/svg"><path fill="#e6e6e6" d="M729.157375 820.934368H127.909668c-2.890614 0-5.058574-2.16796-5.058574-5.058574V415.525759h786.247001v229.081157c0 13.730416 11.562456 25.292872 25.292872 25.292872s25.292872-11.562456 25.292872-25.292872V297.010586c0-30.351447-24.570219-55.644319-55.644319-55.644319H531.872971L436.48271 164.764996c-4.335921-3.613267-10.117149-5.781228-15.898377-5.781227H127.909668c-30.351447 0-55.644319 24.570219-55.644319 55.644319v601.247706c0 30.351447 24.570219 55.644319 55.644319 55.644319h601.247707c13.730416 0 25.292872-11.562456 25.292872-25.292872s-11.562456-25.292872-25.292872-25.292873zM123.573747 215.350741c0-2.890614 2.16796-5.058574 5.058575-5.058574H411.912491l95.390261 76.60127c4.335921 3.613267 10.117149 5.781228 15.898377 5.781228h381.561045c2.890614 0 5.058574 2.16796 5.058574 5.058574v67.929429H123.573747V215.350741z"  /><path fill="#e6e6e6" d="M821.657022 846.227241m-27.460833 0a27.460833 27.460833 0 1 0 54.921666 0 27.460833 27.460833 0 1 0-54.921666 0Z"  /><path fill="#e6e6e6" d="M930.777699 846.227241m-27.460832 0a27.460833 27.460833 0 1 0 54.921665 0 27.460833 27.460833 0 1 0-54.921665 0Z"  /><path fill="#e6e6e6" d="M932.94566 752.282287m-27.460833 0a27.460833 27.460833 0 1 0 54.921666 0 27.460833 27.460833 0 1 0-54.921666 0Z"  /></svg>