<?xml version="1.0" standalone="no"?><!DOCTYPE svg PUBLIC "-//W3C//DTD SVG 1.1//EN" "http://www.w3.org/Graphics/SVG/1.1/DTD/svg11.dtd"><svg class="icon" width="200px" height="200.00px" viewBox="0 0 1024 1024" version="1.1" xmlns="http://www.w3.org/2000/svg"><path fill="#e6e6e6" d="M888.141143 711.091037m-33.24206 0a33.242061 33.242061 0 1 0 66.484121 0 33.242061 33.242061 0 1 0-66.484121 0Z"  /><path fill="#e6e6e6" d="M850.563162 816.598447m-33.242061 0a33.242061 33.242061 0 1 0 66.484121 0 33.242061 33.242061 0 1 0-66.484121 0Z"  /><path fill="#e6e6e6" d="M755.895554 872.96542m-33.242061 0a33.242061 33.242061 0 1 0 66.484122 0 33.242061 33.242061 0 1 0-66.484122 0Z"  /><path fill="#e6e6e6" d="M412.635145 693.0247c16.62103 0 31.0741-13.730416 31.0741-31.0741V310.018349c0-12.285109-7.226535-23.847565-18.788991-28.183487-11.562456-5.058574-24.570219-2.16796-33.242061 6.503882L285.44813 393.846154c-12.285109 12.285109-12.285109 31.796754 0 43.359209 12.285109 12.285109 31.796754 12.285109 43.359209 0l52.753705-52.753705v277.498942c0.722653 17.343684 14.45307 31.0741 31.074101 31.0741zM661.227946 535.486239l-52.753705 52.753705V310.018349c0-16.62103-13.730416-31.0741-31.0741-31.074101-16.62103 0-31.0741 13.730416-31.0741 31.074101v351.932251c0 12.285109 7.226535 23.847565 18.788991 28.183486 3.613267 1.445307 7.949188 2.16796 11.562456 2.167961 7.949188 0 15.898377-2.890614 21.679604-8.671842L703.864502 578.122795c12.285109-12.285109 12.285109-31.796754 0-43.35921-10.839802-11.562456-30.351447-11.562456-42.636556 0.722654z"  /><path fill="#e6e6e6" d="M856.34439 599.802399c0 16.62103 13.730416 30.351447 30.351446 30.351447s30.351447-13.730416 30.351447-30.351447V258.709951c0-106.952717-87.441073-194.39379-194.39379-194.39379H268.8271C161.151729 64.316161 74.43331 151.757234 74.43331 258.709951v454.549047c0 106.952717 87.441073 194.39379 194.39379 194.39379h373.611856c16.62103 0 30.351447-13.730416 30.351446-30.351447s-13.730416-30.351447-30.351446-30.351447H268.8271c-72.988003 0-132.968243-59.98024-132.968243-132.968243v-455.2717c0-72.988003 59.98024-132.968243 132.968243-132.968243h454.549047c72.988003 0 132.968243 59.98024 132.968243 132.968243V599.802399z"  /></svg>