<?xml version="1.0" standalone="no"?><!DOCTYPE svg PUBLIC "-//W3C//DTD SVG 1.1//EN" "http://www.w3.org/Graphics/SVG/1.1/DTD/svg11.dtd"><svg class="icon" width="200px" height="200.00px" viewBox="0 0 1024 1024" version="1.1" xmlns="http://www.w3.org/2000/svg"><path fill="#e6e6e6" d="M938.726888 460.330275c9.394495-4.335921 15.898377-13.730416 15.898377-24.570219v-143.808045c0-38.300635-31.0741-69.374735-69.374736-69.374735h-750.114326c-38.300635 0-69.374735 31.0741-69.374735 69.374735v145.253352c0 10.839802 7.226535 20.956951 17.343684 24.570219 13.730416 5.058574 23.124912 18.066337 23.124912 33.242061 0 15.175723-9.394495 28.183486-23.124912 33.242061-10.839802 3.613267-17.343684 13.730416-17.343684 24.570218v140.194778c0 38.300635 31.0741 69.374735 69.374735 69.374735h750.114326c38.300635 0 69.374735-31.0741 69.374736-69.374735v-144.530699c0-10.839802-6.503881-20.234298-15.898377-24.570218-13.007763-5.781228-21.679605-18.066337-21.679605-32.519408 0.722653-13.007763 8.671842-26.015526 21.679605-31.0741z m-403.240649 52.031052c14.45307 0 26.738179 11.562456 26.738179 26.738179s-11.562456 26.738179-26.738179 26.738179h-91.054341v70.820043c0 14.45307-11.562456 26.738179-26.738179 26.738179s-26.738179-11.562456-26.738179-26.738179v-70.820043h-91.05434c-14.45307 0-26.738179-11.562456-26.73818-26.738179s11.562456-26.738179 26.73818-26.738179h91.05434v-62.148201h-91.05434c-14.45307 0-26.738179-11.562456-26.73818-26.738179s11.562456-26.738179 26.73818-26.738179h41.913902l-15.898377-35.410021c-5.781228-13.007763 0-28.90614 13.730417-34.687368 13.007763-5.781228 28.90614 0 34.687368 13.730416l25.292872 57.089626h45.52717l25.292872-57.089626c5.781228-13.007763 21.679605-19.511644 34.687368-13.730416 13.007763 5.781228 19.511644 21.679605 13.730416 34.687368l-15.898377 35.410021h31.796754c14.45307 0 26.738179 11.562456 26.738179 26.738179s-11.562456 26.738179-26.738179 26.738179h-91.05434v62.148201h91.776994z m198.72971 109.120677c-15.898377 0-28.183486-13.007763-28.183486-28.183486 0-15.898377 13.007763-28.183486 28.183486-28.183486 15.898377 0 28.183486 13.007763 28.183486 28.183486 0 15.898377-13.007763 28.183486-28.183486 28.183486z m0-100.448835c-15.898377 0-28.183486-13.007763-28.183486-28.183487 0-15.898377 13.007763-28.183486 28.183486-28.183486 15.898377 0 28.183486 13.007763 28.183486 28.183486 0 15.898377-13.007763 28.183486-28.183486 28.183487z m0-100.448836c-15.898377 0-28.183486-13.007763-28.183486-28.183486 0-15.898377 13.007763-28.183486 28.183486-28.183486 15.898377 0 28.183486 13.007763 28.183486 28.183486 0 15.898377-13.007763 28.183486-28.183486 28.183486z"  /></svg>