<?xml version="1.0" standalone="no"?><!DOCTYPE svg PUBLIC "-//W3C//DTD SVG 1.1//EN" "http://www.w3.org/Graphics/SVG/1.1/DTD/svg11.dtd"><svg class="icon" width="200px" height="200.00px" viewBox="0 0 1024 1024" version="1.1" xmlns="http://www.w3.org/2000/svg"><path fill="#e6e6e6" d="M942.340155 469.002117c9.394495-4.335921 15.898377-13.730416 15.898377-24.570219V301.346507c0-38.300635-31.0741-69.374735-69.374735-69.374736h-750.114326c-38.300635 0-69.374735 31.0741-69.374736 69.374736v145.253352c0 10.839802 7.226535 20.956951 17.343684 24.570219 13.730416 5.058574 23.124912 18.066337 23.124912 33.24206s-9.394495 28.183486-23.124912 33.242061c-10.839802 3.613267-17.343684 13.730416-17.343684 24.570219v140.194777c0 38.300635 31.0741 69.374735 69.374736 69.374736H888.863797c38.300635 0 69.374735-31.0741 69.374735-69.374736v-144.530698c0-10.839802-6.503881-20.234298-15.898377-24.570219-13.007763-5.781228-21.679605-18.066337-21.679605-32.519407 0-13.007763 8.671842-26.015526 21.679605-31.796754z m-542.712773 156.093155c0 12.285109-10.117149 21.679605-21.679605 21.679604-12.285109 0-21.679605-10.117149-21.679605-21.679604v-192.948483l-41.191249 41.191249c-8.671842 8.671842-22.402258 8.671842-31.0741 0-8.671842-8.671842-8.671842-22.402258 0-31.0741l78.769231-78.769231c6.503881-6.503881 15.898377-7.949188 23.847565-5.058574 7.949188 3.613267 13.730416 11.562456 13.730416 20.234297v246.424842z m171.991531-63.593508l-78.769231 78.769231c-4.335921 4.335921-10.117149 6.503881-15.898376 6.503881-2.890614 0-5.781228-0.722653-8.671842-1.445306-7.949188-3.613267-13.730416-11.562456-13.730417-20.234298v-245.702188c0-12.285109 10.117149-21.679605 21.679605-21.679605 12.285109 0 21.679605 10.117149 21.679605 21.679605v192.948483l41.191249-41.191249c8.671842-8.671842 22.402258-8.671842 31.0741 0 9.394495 7.949188 9.394495 22.402258 1.445307 30.351446z m165.48765 69.374736c-15.898377 0-28.183486-13.007763-28.183486-28.183487 0-15.898377 13.007763-28.183486 28.183486-28.183486 15.898377 0 28.183486 13.007763 28.183486 28.183486 0 15.175723-12.285109 28.183486-28.183486 28.183487z m0-100.448836c-15.898377 0-28.183486-13.007763-28.183486-28.183486s13.007763-28.183486 28.183486-28.183486c15.898377 0 28.183486 13.007763 28.183486 28.183486s-12.285109 28.183486-28.183486 28.183486z m0-100.448835c-15.898377 0-28.183486-13.007763-28.183486-28.183487s13.007763-28.183486 28.183486-28.183486c15.898377 0 28.183486 13.007763 28.183486 28.183486s-12.285109 28.183486-28.183486 28.183487z"  /></svg>