<?xml version="1.0" standalone="no"?><!DOCTYPE svg PUBLIC "-//W3C//DTD SVG 1.1//EN" "http://www.w3.org/Graphics/SVG/1.1/DTD/svg11.dtd"><svg class="icon" width="200px" height="200.00px" viewBox="0 0 1024 1024" version="1.1" xmlns="http://www.w3.org/2000/svg"><path fill="#e6e6e6" d="M779.020466 590.407904c-33.964714-33.964714-88.88638-33.964714-122.851094 0l-44.804517 46.249824-203.065631-196.561751 45.52717-55.644319 13.007763-15.898376c8.671842-10.839802 7.226535-26.738179-4.335921-35.410022-10.839802-8.671842-26.738179-7.226535-35.410021 4.335921L354.822865 426.365561c-8.671842 10.117149-7.226535 25.292872 2.167961 33.964714l237.752999 230.526465c5.058574 4.335921 11.562456 7.226535 18.066337 7.226535 6.503881 0 13.007763-2.890614 18.066338-7.949189l62.1482-64.316161c13.730416-13.730416 36.855328-13.730416 50.585745 0l119.960479 119.96048c13.730416 13.730416 13.730416 36.855328 0 50.585745-1.445307 1.445307-133.690896 131.522936-205.956245 59.257586l-471.170078-469.724771c-72.265349-72.265349 57.812279-205.233592 59.257587-205.956245 2.16796-2.16796 5.058574-4.335921 7.949188-5.781228 12.285109-6.503881 16.62103-22.402258 10.117149-34.687368-6.503881-12.285109-22.402258-16.62103-34.687368-10.117149-7.226535 3.613267-13.730416 8.671842-19.511644 14.45307-1.445307 1.445307-40.468596 41.191249-67.929428 92.499647-50.585745 94.667608-23.124912 153.202541 8.671842 184.999295L621.482004 892.477064c19.511644 19.511644 47.695131 36.855328 88.163726 36.855328 26.738179 0 58.534933-7.949188 96.835569-28.183486 52.031052-27.460833 91.05434-66.484121 92.499647-67.929428 33.964714-33.964714 33.964714-88.88638 0-122.128441l-119.96048-120.683133z"  /><path fill="#e6e6e6" d="M321.580805 127.187015m-27.460833 0a27.460833 27.460833 0 1 0 54.921665 0 27.460833 27.460833 0 1 0-54.921665 0Z"  /><path fill="#e6e6e6" d="M389.510233 195.116443m-27.460833 0a27.460833 27.460833 0 1 0 54.921666 0 27.460833 27.460833 0 1 0-54.921666 0Z"  /><path fill="#e6e6e6" d="M457.439661 263.045872m-27.460832 0a27.460833 27.460833 0 1 0 54.921665 0 27.460833 27.460833 0 1 0-54.921665 0Z"  /></svg>