<?xml version="1.0" standalone="no"?><!DOCTYPE svg PUBLIC "-//W3C//DTD SVG 1.1//EN" "http://www.w3.org/Graphics/SVG/1.1/DTD/svg11.dtd"><svg class="icon" width="200px" height="200.00px" viewBox="0 0 1024 1024" version="1.1" xmlns="http://www.w3.org/2000/svg"><path fill="#e6e6e6" d="M788.8 656.571429c-100.342857 0-181.828571 81.6-181.828571 181.828571 0 28.914286 6.857143 56.342857 18.857142 80.685714-5.6-2.742857-11.314286-5.714286-17.257142-8.8-70.628571-36.8-176.114286-103.314286-277.942858-210.628571-101.942857-107.542857-170.971429-214.285714-210.971428-284.8-2.857143-4.914286-5.485714-9.828571-8.114286-14.514286 21.6 9.142857 45.371429 14.171429 70.285714 14.171429 100.228571 0 181.828571-81.6 181.828572-181.828572 0-100.342857-81.6-181.828571-181.828572-181.828571S0 132.228571 0 232.571429c0 25.142857 5.142857 49.028571 14.4 70.857142 3.542857 9.257143 23.542857 59.771429 64.914286 132.914286 41.257143 73.028571 112.685714 183.428571 218.171428 294.857143 106.057143 112 216.228571 181.257143 289.942857 219.771429 73.257143 38.171429 125.371429 54.171429 135.771429 57.257142 20.342857 7.885714 42.514286 12.228571 65.6 12.228572 12.571429 0 22.857143-10.285714 22.857143-22.857143s-10.285714-22.857143-22.857143-22.857143c-75.085714 0-136.114286-61.028571-136.114286-136.114286s61.028571-136.114286 136.114286-136.114285 136.114286 61.028571 136.114286 136.114285c0 45.257143-22.4 87.542857-60 112.914286-10.514286 7.085714-13.257143 21.257143-6.171429 31.771429 7.085714 10.514286 21.257143 13.257143 31.771429 6.171428 50.171429-33.942857 80.114286-90.285714 80.114285-150.742857 0-100.571429-81.6-182.171429-181.828571-182.171428zM181.828571 96.457143c75.085714 0 136.114286 61.028571 136.114286 136.114286 0 75.085714-61.028571 136.114286-136.114286 136.114285-56 0-104.342857-34.057143-125.142857-82.514285 0-0.114286 0-0.114286-0.114285-0.114286-7.085714-16.457143-10.971429-34.514286-10.971429-53.485714 0.114286-75.085714 61.142857-136.114286 136.228571-136.114286zM818.285714 506.4c-9.6 0-18.514286-6.057143-21.714285-15.657143-20.8-62.4-57.371429-119.428571-105.714286-164.685714-48.571429-45.485714-108-78.171429-172-94.742857-12.228571-3.2-19.542857-15.657143-16.457143-27.885715 3.2-12.228571 15.657143-19.542857 27.885714-16.457142 71.428571 18.514286 137.714286 54.971429 191.771429 105.714285 53.942857 50.514286 94.628571 113.942857 117.828571 183.657143 4 12-2.514286 24.914286-14.514285 28.914286-2.285714 0.8-4.685714 1.142857-7.085715 1.142857zM1002.057143 484.342857c-10.057143 0-19.314286-6.742857-22.057143-17.028571-26.971429-101.371429-81.257143-193.942857-157.028571-267.428572-76-73.6-170.285714-125.028571-272.685715-148.8-12.342857-2.857143-20-15.085714-17.142857-27.428571s15.085714-20 27.428572-17.142857c110.514286 25.6 212.228571 81.142857 294.171428 160.571428 81.714286 79.314286 140.342857 179.085714 169.371429 288.457143 3.2 12.228571-4 24.685714-16.228572 28-1.942857 0.571429-3.885714 0.8-5.828571 0.8z" /></svg>