<?xml version="1.0" standalone="no"?><!DOCTYPE svg PUBLIC "-//W3C//DTD SVG 1.1//EN" "http://www.w3.org/Graphics/SVG/1.1/DTD/svg11.dtd"><svg class="icon" width="200px" height="200.00px" viewBox="0 0 1024 1024" version="1.1" xmlns="http://www.w3.org/2000/svg"><path fill="#e6e6e6" d="M926.239482 1023.200089H97.189153c-13.255663 0-23.997322-10.741658-23.997322-23.997321V23.997322c0-13.255663 10.741658-23.997322 23.997322-23.997322h829.050329c13.255663 0 23.997322 10.741658 23.997322 23.997322v122.157795h-45.709184V45.709184H118.901016v931.781721h785.626604V219.518357h45.709184v779.684411c0 13.255663-10.741658 23.997322-23.997322 23.997321zM269.055686 472.290146v255.971432c0 13.14139 10.627385 23.768776 23.768776 23.768776h57.479299v-45.709184h-35.538891V494.230555h35.538891v-45.709185h-57.479299c-13.14139 0-23.768776 10.627385-23.768776 23.768776zM730.718447 448.52137h-142.841201c2.628278-10.970204 5.370829-24.225868 7.542015-38.395714 8.227653-53.479746 3.885281-90.847004-13.14139-114.158688-11.884388-16.22676-29.596697-24.797232-51.080014-24.797232-12.112934 0-29.253878 4.2281-41.481084 24.568686-6.513559 10.855931-10.513112 24.111595-14.626939 38.167169-5.485102 18.51222-11.19875 37.710077-22.968865 53.136927-36.567347 48.223189-75.305881 73.020422-75.6487 73.248967-1.257003 0.799911-2.399732 1.714094-3.428189 2.628278-5.713648 4.113827-9.370383 10.855931-9.370383 18.397947v246.943868c0 13.14139 10.627385 23.768776 23.768776 23.768776h280.083026c11.541569 0 21.140498-8.227653 23.311684-19.197858l63.535766-257.799799v-2.742551c0-13.14139-10.627385-23.768776-23.654502-23.768776zM650.384555 706.32117H409.382881V492.973552c15.084031-10.970204 47.766098-37.024439 79.191162-78.391251 16.798125-22.054681 24.340141-47.423279 30.396608-67.763866 2.971097-10.056021 7.999107-26.854146 11.770115-29.939515h0.571364c8.456199 0 11.884388 2.971097 14.169847 6.17074 4.2281 5.827921 13.255663 25.140051 4.913738 79.648253-3.542462 23.083138-8.913291 43.99509-11.884388 54.508202-3.08537 3.885281-4.913737 8.799018-4.913737 14.169848 0 12.570026 10.284566 22.854592 22.854592 22.854592h146.269389L650.384555 706.32117z" /></svg>