<?xml version="1.0" standalone="no"?><!DOCTYPE svg PUBLIC "-//W3C//DTD SVG 1.1//EN" "http://www.w3.org/Graphics/SVG/1.1/DTD/svg11.dtd"><svg class="icon" width="200px" height="200.00px" viewBox="0 0 1024 1024" version="1.1" xmlns="http://www.w3.org/2000/svg"><path fill="#e6e6e6" d="M739.885714 529.028571c-2.4 0-4.8 0-7.2-0.114285-35.2-1.257143-70.4-11.771429-104.914285-31.428572-34.857143-19.885714-69.942857-49.6-104.342858-88.571428-8.228571-9.257143-7.542857-23.314286 1.485715-31.771429 9.028571-8.457143 23.085714-8.228571 31.885714 0.571429 43.657143 43.885714 79.314286 59.314286 119.314286 51.314285 39.085714-7.771429 84.571429-37.828571 145.942857-96.685714l-53.6-53.6c-6.514286-6.514286-8.8-16-6.057143-24.685714 2.742857-8.8 10.171429-15.2 19.2-16.685714 1.257143-0.228571 2.628571-0.342857 3.885714-0.342858l206.514286-0.228571c6.742857-0.342857 13.485714 2.285714 18.4 7.2 4.8 4.8 7.314286 11.314286 7.2 17.942857l5.028571 211.657143c0 1.485714-0.114286 2.971429-0.342857 4.457143-1.6 9.028571-8 16.342857-16.685714 19.2-8.8 2.742857-18.171429 0.457143-24.685714-6.057143l-50.514286-50.514286c-64.8 59.314286-127.428571 88.342857-190.514286 88.342857z m-54.628571-55.314285c16.457143 5.714286 32.8 8.914286 49.028571 9.485714 57.485714 1.942857 116.228571-27.428571 179.771429-90.057143 9.371429-9.142857 24.457143-9.142857 33.714286 0.114286l28 28-3.314286-138.742857-135.314286 0.114285 32.914286 32.914286c4.571429 4.571429 6.971429 10.514286 6.971428 16.914286 0 6.4-2.514286 12.457143-7.085714 16.914286-76.114286 75.657143-133.028571 114.057143-184.685714 124.342857z m260.8-48s0 0.114286 0 0c0 0.114286 0 0 0 0z m-16-16.228572z m66.628571-127.314285zM794.514286 645.714286c-100.342857 0-181.828571 81.6-181.828572 181.828571 0 28.914286 6.857143 56.342857 18.857143 80.685714-5.6-2.742857-11.314286-5.714286-17.257143-8.8-70.628571-36.8-176.114286-103.314286-277.942857-210.628571-101.942857-107.657143-170.971429-214.285714-210.971428-284.8-2.857143-4.914286-5.485714-9.828571-8.114286-14.514286 21.6 9.142857 45.371429 14.171429 70.285714 14.171429 100.342857 0 181.828571-81.6 181.828572-181.828572S287.885714 39.885714 187.542857 39.885714C87.314286 39.885714 5.714286 121.485714 5.714286 221.714286c0 25.142857 5.142857 49.028571 14.4 70.857143 3.542857 9.257143 23.542857 59.771429 64.914285 132.914285 41.257143 73.028571 112.685714 183.428571 218.171429 294.857143 106.057143 112 216.228571 181.257143 289.942857 219.771429 73.257143 38.171429 125.371429 54.171429 135.771429 57.257143 20.342857 7.885714 42.514286 12.228571 65.6 12.228571 12.571429 0 22.857143-10.285714 22.857143-22.857143s-10.285714-22.857143-22.857143-22.857143c-75.085714 0-136.114286-61.028571-136.114286-136.114285S719.428571 691.428571 794.514286 691.428571s136.114286 61.028571 136.114285 136.114286c0 45.257143-22.4 87.542857-60 112.914286-10.514286 7.085714-13.257143 21.257143-6.171428 31.771428 7.085714 10.514286 21.257143 13.257143 31.771428 6.171429 50.171429-33.942857 80.114286-90.285714 80.114286-150.742857 0-100.342857-81.485714-181.942857-181.828571-181.942857zM187.542857 85.6c75.085714 0 136.114286 61.028571 136.114286 136.114286s-61.028571 136.114286-136.114286 136.114285c-56 0-104.342857-34.057143-125.142857-82.514285 0-0.114286 0-0.114286-0.114286-0.114286-6.971429-16.457143-10.857143-34.514286-10.857143-53.485714 0-75.085714 61.028571-136.114286 136.114286-136.114286z" /></svg>