<?xml version="1.0" standalone="no"?><!DOCTYPE svg PUBLIC "-//W3C//DTD SVG 1.1//EN" "http://www.w3.org/Graphics/SVG/1.1/DTD/svg11.dtd"><svg class="icon" width="200px" height="200.00px" viewBox="0 0 1024 1024" version="1.1" xmlns="http://www.w3.org/2000/svg"><path fill="#e6e6e6" d="M434.314749 474.783345c0-79.491884-65.038814-144.530699-144.530698-144.530699s-144.530699 65.038814-144.530699 144.530699c0 37.577982 14.45307 71.542696 37.577982 96.835568-70.097389 43.35921-116.347212 118.515173-122.128441 201.620325-0.722653 13.730416 9.394495 26.015526 23.847566 26.738179h1.445307c13.007763 0 24.570219-10.117149 25.292872-23.847565 5.058574-73.710656 49.140438-139.472124 115.624559-171.991532 18.788991 9.394495 39.745942 14.45307 62.1482 14.45307 80.214538 0.722653 145.253352-64.316161 145.253352-143.808045z m-144.530698 93.944954c-52.031052 0-93.944954-41.913903-93.944954-93.944954s41.913903-93.944954 93.944954-93.944954 93.944954 41.913903 93.944954 93.944954-41.913903 93.944954-93.944954 93.944954z"  /><path fill="#e6e6e6" d="M815.875794 385.174312c0-99.726182-80.937191-180.663373-180.663373-180.663373s-180.663373 80.937191-180.663374 180.663373c0 64.316161 33.964714 120.683133 84.550459 152.479887-115.624559 34.687368-208.124206 130.800282-233.417078 253.651376-2.890614 13.730416 5.781228 26.738179 19.511644 29.628793 1.445307 0.722653 3.613267 0.722653 5.058574 0.722654 11.562456 0 22.402258-7.949188 24.570219-20.234298 27.460833-131.522936 145.253352-227.63585 280.389556-227.63585 41.913903 0 82.382498 8.671842 119.960479 26.015525 13.007763 5.781228 27.460833 0 33.242061-12.285109 5.781228-13.007763 0-27.460833-12.285109-33.242061-14.45307-6.503881-29.628793-12.285109-44.804517-16.62103 50.585745-31.796754 84.550459-88.163726 84.550459-152.479887z m-180.663373 130.077629c-71.542696 0-130.077629-58.534933-130.077629-130.077629s58.534933-130.077629 130.077629-130.077629 130.077629 58.534933 130.077628 130.077629-58.534933 130.077629-130.077628 130.077629z"  /><path fill="#e6e6e6" d="M859.957657 630.8765m-27.460833 0a27.460833 27.460833 0 1 0 54.921666 0 27.460833 27.460833 0 1 0-54.921666 0Z"  /><path fill="#e6e6e6" d="M920.66055 709.64573m-27.460832 0a27.460833 27.460833 0 1 0 54.921665 0 27.460833 27.460833 0 1 0-54.921665 0Z"  /><path fill="#e6e6e6" d="M944.508116 798.53211m-27.460833 0a27.460833 27.460833 0 1 0 54.921665 0 27.460833 27.460833 0 1 0-54.921665 0Z"  /></svg>