<?xml version="1.0" standalone="no"?><!DOCTYPE svg PUBLIC "-//W3C//DTD SVG 1.1//EN" "http://www.w3.org/Graphics/SVG/1.1/DTD/svg11.dtd"><svg class="icon" width="200px" height="200.00px" viewBox="0 0 1024 1024" version="1.1" xmlns="http://www.w3.org/2000/svg"><path fill="#e6e6e6" d="M839.723359 507.302752m-28.90614 0a28.90614 28.90614 0 1 0 57.81228 0 28.90614 28.90614 0 1 0-57.81228 0Z"  /><path fill="#e6e6e6" d="M839.723359 610.642202m-28.90614 0a28.90614 28.90614 0 1 0 57.81228 0 28.90614 28.90614 0 1 0-57.81228 0Z"  /><path fill="#e6e6e6" d="M839.723359 713.258998m-28.90614 0a28.90614 28.90614 0 1 0 57.81228 0 28.90614 28.90614 0 1 0-57.81228 0Z"  /><path fill="#e6e6e6" d="M834.664785 772.516584c-15.175723 0-27.460833 12.285109-27.460833 27.460833 0 39.023289-31.796754 70.820042-70.820042 70.820042H294.119972c-39.023289 0-70.820042-31.796754-70.820043-70.820042V419.86168c0-39.023289 31.796754-70.820042 70.820043-70.820043H737.106563c39.023289 0 70.820042 31.796754 70.820043 70.820043 0 15.175723 12.285109 27.460833 27.460832 27.460832s27.460833-12.285109 27.460833-27.460832c0-68.652082-55.644319-125.019054-125.019054-125.019055h-13.007763v-123.573747c0-62.870854-50.585745-113.456598-113.456599-113.456599h-188.612561c-62.870854 0-113.456598 50.585745-113.456599 113.456599v123.573747H296.287932c-68.652082 0-125.019054 55.644319-125.019054 125.019055v380.115737C171.268878 868.629499 226.913197 924.996471 296.287932 924.996471h13.730417v28.90614c0 15.175723 12.285109 27.460833 27.460832 27.460833s27.460833-12.285109 27.460833-27.460833v-29.628793h306.405081V953.902611c0 15.175723 12.285109 27.460833 27.460833 27.460833s27.460833-12.285109 27.460833-27.460833v-29.628793h13.730416c68.652082 0 125.019054-55.644319 125.019054-125.019054-3.613267-14.45307-15.898377-26.738179-30.351446-26.73818zM362.0494 171.268878c0-32.519407 26.738179-59.257586 59.257587-59.257587h188.612561c32.519407 0 59.257586 26.738179 59.257587 59.257587v123.573747H362.0494v-123.573747z"  /><path fill="#e6e6e6" d="M463.220889 763.844742c13.007763 0 23.124912-10.117149 23.124912-23.124911V483.455187c0-9.394495-5.781228-17.343684-14.45307-20.956951s-18.788991-1.445307-25.292872 5.058574L364.940014 549.939308c-8.671842 8.671842-8.671842 23.847565 0 32.519408 8.671842 8.671842 23.847565 8.671842 32.519407 0l42.636556-42.636557v201.620325c0.722653 11.562456 10.839802 22.402258 23.124912 22.402258zM567.282992 461.052929c-13.007763 0-23.124912 10.117149-23.124912 23.124912v256.54199c0 9.394495 5.781228 17.343684 14.45307 20.956951 2.890614 1.445307 5.781228 1.445307 8.671842 1.445307 5.781228 0 11.562456-2.16796 16.621031-6.503882l82.382498-82.382498c8.671842-8.671842 8.671842-23.847565 0-32.519407-8.671842-8.671842-23.847565-8.671842-32.519407 0l-42.636556 42.636556V483.455187c-0.722653-12.285109-10.839802-22.402258-23.847566-22.402258z"  /></svg>