<?xml version="1.0" standalone="no"?><!DOCTYPE svg PUBLIC "-//W3C//DTD SVG 1.1//EN" "http://www.w3.org/Graphics/SVG/1.1/DTD/svg11.dtd"><svg class="icon" width="200px" height="200.00px" viewBox="0 0 1024 1024" version="1.1" xmlns="http://www.w3.org/2000/svg"><path fill="#e6e6e6" d="M434.314749 792.028229H257.264644c-5.058574 0-9.394495-4.335921-9.394496-9.394496V607.751588c0-13.730416-11.562456-25.292872-25.292872-25.292872s-25.292872 11.562456-25.292872 25.292872v174.882145c0 33.242061 26.738179 59.98024 59.98024 59.98024h177.050105c13.730416 0 25.292872-11.562456 25.292873-25.292872s-10.839802-25.292872-25.292873-25.292872z"  /><path fill="#e6e6e6" d="M222.577276 455.994354c13.730416 0 25.292872-11.562456 25.292872-25.292872V255.819337c0-5.058574 4.335921-9.394495 9.394496-9.394496h177.050105c13.730416 0 25.292872-11.562456 25.292873-25.292872s-11.562456-25.292872-25.292873-25.292872H257.264644c-33.242061 0-59.98024 26.738179-59.98024 59.98024v174.882145c0 13.730416 11.562456 25.292872 25.292872 25.292872z"  /><path fill="#e6e6e6" d="M581.736062 246.424841H758.786168c5.058574 0 9.394495 4.335921 9.394495 9.394496v174.882145c0 13.730416 11.562456 25.292872 25.292873 25.292872s25.292872-11.562456 25.292872-25.292872V255.819337c0-33.242061-26.738179-59.98024-59.98024-59.98024H581.736062c-13.730416 0-25.292872 11.562456-25.292872 25.292872s10.839802 25.292872 25.292872 25.292872z"  /><path fill="#e6e6e6" d="M836.832745 490.681722H188.612562c-13.730416 0-25.292872 11.562456-25.292873 25.292872s11.562456 25.292872 25.292873 25.292872h648.220183c13.730416 0 25.292872-11.562456 25.292873-25.292872s-11.562456-25.292872-25.292873-25.292872z"  /><path fill="#e6e6e6" d="M676.40367 818.043754m-28.183487 0a28.183486 28.183486 0 1 0 56.366973 0 28.183486 28.183486 0 1 0-56.366973 0Z"  /><path fill="#e6e6e6" d="M788.414961 818.043754m-28.183486 0a28.183486 28.183486 0 1 0 56.366972 0 28.183486 28.183486 0 1 0-56.366972 0Z"  /><path fill="#e6e6e6" d="M791.305575 704.587156m-28.183486 0a28.183486 28.183486 0 1 0 56.366972 0 28.183486 28.183486 0 1 0-56.366972 0Z"  /></svg>