<?xml version="1.0" standalone="no"?><!DOCTYPE svg PUBLIC "-//W3C//DTD SVG 1.1//EN" "http://www.w3.org/Graphics/SVG/1.1/DTD/svg11.dtd"><svg class="icon" width="200px" height="200.00px" viewBox="0 0 1024 1024" version="1.1" xmlns="http://www.w3.org/2000/svg"><path fill="#e6e6e6" d="M838.278052 585.34933c-13.007763-5.058574-27.460833 1.445307-32.519407 14.453069-37.577982 99.003529-96.835568 177.772759-176.327452 234.139732-49.140438 34.687368-90.331687 49.863091-104.062103 54.199012C505.134792 881.637262 426.365561 852.731122 350.486944 773.239238 238.475653 653.278758 186.444601 473.338038 200.175018 251.483416c174.882145-14.45307 282.557516-78.769231 321.580804-106.952717 41.191249 28.90614 157.538462 98.280875 343.983063 108.398024 13.730416 0.722653 26.015526-10.117149 26.738179-23.847566 0.722653-13.730416-10.117149-26.015526-23.847565-26.738179-213.182781-11.562456-329.529993-107.675371-330.252646-108.398024-9.394495-7.949188-23.847565-7.949188-33.242061 0-1.445307 0.722653-114.179252 96.835568-330.252647 108.398024-13.007763 0.722653-23.124912 10.839802-23.847565 23.124912-24.570219 312.186309 75.155963 488.513761 162.597036 581.736062 96.835568 102.616796 198.729711 129.354975 203.065632 130.800282 2.16796 0.722653 4.335921 0.722653 5.781228 0.722654h2.890614c2.16796 0 4.335921 0 6.503881-0.722654 8.671842-2.16796 221.131969-58.534933 320.135498-320.135497 5.781228-13.007763-0.722653-27.460833-13.730417-32.519407z"  /><path fill="#e6e6e6" d="M875.13338 419.86168m-27.460832 0a27.460833 27.460833 0 1 0 54.921665 0 27.460833 27.460833 0 1 0-54.921665 0Z"  /><path fill="#e6e6e6" d="M859.957657 516.697248m-27.460833 0a27.460833 27.460833 0 1 0 54.921666 0 27.460833 27.460833 0 1 0-54.921666 0Z"  /><path fill="#e6e6e6" d="M876.578687 320.858151m-27.460832 0a27.460833 27.460833 0 1 0 54.921665 0 27.460833 27.460833 0 1 0-54.921665 0Z"  /></svg>