<?xml version="1.0" standalone="no"?><!DOCTYPE svg PUBLIC "-//W3C//DTD SVG 1.1//EN" "http://www.w3.org/Graphics/SVG/1.1/DTD/svg11.dtd"><svg class="icon" width="200px" height="200.00px" viewBox="0 0 1024 1024" version="1.1" xmlns="http://www.w3.org/2000/svg"><path fill="#e6e6e6" d="M578.845448 451.658433m-27.460833 0a27.460833 27.460833 0 1 0 54.921666 0 27.460833 27.460833 0 1 0-54.921666 0Z"  /><path fill="#e6e6e6" d="M510.91602 520.310515m-27.460833 0a27.460833 27.460833 0 1 0 54.921666 0 27.460833 27.460833 0 1 0-54.921666 0Z"  /><path fill="#e6e6e6" d="M442.986591 588.239944m-27.460832 0a27.460833 27.460833 0 1 0 54.921665 0 27.460833 27.460833 0 1 0-54.921665 0Z"  /><path fill="#e6e6e6" d="M817.321101 247.147495l-34.687368-34.687368c-42.636556-42.636556-112.011291-42.636556-154.647847 0l-132.24559 132.245589c-18.788991 18.788991-30.351447 43.35921-31.796753 70.097389-0.722653 13.730416 9.394495 26.015526 23.847565 26.738179 13.730416 0.722653 26.015526-9.394495 26.738179-23.847565 0.722653-14.45307 7.226535-27.460833 17.343684-37.577982l132.245589-132.245589c23.124912-23.124912 60.702893-23.124912 83.105152 0l34.687368 34.687368c23.124912 23.124912 23.124912 60.702893 0 83.105152l-132.24559 132.245589c-12.285109 12.285109-28.90614 18.066337-46.249823 17.343684-13.730416-0.722653-26.015526 9.394495-26.738179 23.124912-0.722653 13.730416 9.394495 26.015526 23.124911 26.738179h7.949189c28.90614 0 57.089626-11.562456 77.323924-31.796754l132.245589-132.245589c42.636556-41.913903 42.636556-111.288638 0-153.925194zM543.435427 587.51729c-13.730416-0.722653-26.015526 9.394495-26.738179 23.847565-0.722653 14.45307-7.226535 27.460833-17.343684 37.577982l-132.245589 132.245589c-10.839802 10.839802-26.015526 17.343684-41.913903 17.343684s-30.351447-5.781228-41.913903-17.343684l-34.687367-34.687367c-10.839802-10.839802-17.343684-26.015526-17.343684-41.913903 0-15.898377 5.781228-30.351447 17.343684-41.913903l132.245589-132.245589c12.285109-12.285109 28.90614-18.066337 46.249824-17.343684 13.730416 0.722653 26.015526-9.394495 26.738179-23.124912s-9.394495-26.015526-23.124912-26.738179c-31.796754-2.16796-62.870854 9.394495-85.273112 31.796754l-132.245589 132.245589c-20.956951 20.956951-31.796754 48.417784-31.796754 77.323924 0 29.628793 11.562456 57.089626 31.796754 77.323924l34.687367 34.687367c20.956951 20.956951 48.417784 31.796754 77.323924 31.796754s57.089626-11.562456 77.323924-31.796754l132.245589-132.245589c18.788991-18.788991 30.351447-43.35921 31.796754-70.097389 0.722653-13.730416-9.394495-26.015526-23.124912-26.738179z"  /></svg>