<?xml version="1.0" standalone="no"?><!DOCTYPE svg PUBLIC "-//W3C//DTD SVG 1.1//EN" "http://www.w3.org/Graphics/SVG/1.1/DTD/svg11.dtd"><svg class="icon" width="200px" height="200.00px" viewBox="0 0 1024 1024" version="1.1" xmlns="http://www.w3.org/2000/svg"><path fill="#e6e6e6" d="M505.968219 1011.936438C226.542466 1011.936438 0 785.422027 0 505.968219 0 226.542466 226.542466 0 505.968219 0c279.439781 0 505.968219 226.542466 505.968219 505.968219 0 279.439781-226.528438 505.968219-505.968219 505.968219z m183.800986-548.527342a44.270466 44.270466 0 0 0 44.158247-44.382685 44.270466 44.270466 0 0 0-44.158247-44.396712h-53.163835l26.30137-59.77074a44.466849 44.466849 0 0 0-22.485918-58.550356 44.060055 44.060055 0 0 0-58.255781 22.612164L540.054795 374.629699h-76.224877l-42.138302-95.708932a44.08811 44.08811 0 0 0-58.241753-22.612164 44.494904 44.494904 0 0 0-22.499945 58.564383l26.329424 59.756713h-70.627945A44.270466 44.270466 0 0 0 252.493151 419.026411a44.270466 44.270466 0 0 0 44.144219 44.382685h152.127123v104.896877H296.63737A44.270466 44.270466 0 0 0 252.493151 612.702685a44.270466 44.270466 0 0 0 44.144219 44.382685h152.127123v118.419288a44.270466 44.270466 0 0 0 44.158247 44.382684 44.270466 44.270466 0 0 0 44.144219-44.382684v-118.419288h152.702246a44.270466 44.270466 0 0 0 44.158247-44.382685 44.270466 44.270466 0 0 0-44.158247-44.396712H537.066959v-104.896877h152.702246z"  /></svg>