<?xml version="1.0" standalone="no"?><!DOCTYPE svg PUBLIC "-//W3C//DTD SVG 1.1//EN" "http://www.w3.org/Graphics/SVG/1.1/DTD/svg11.dtd"><svg class="icon" width="200px" height="200.00px" viewBox="0 0 1024 1024" version="1.1" xmlns="http://www.w3.org/2000/svg"><path fill="#e6e6e6" d="M154.628571 993.714286c-7.542857 0-14.742857-3.771429-18.971428-10.171429-5.142857-7.657143-5.142857-17.6-0.114286-25.257143l58.514286-89.028571c9.371429-14.514286 5.142857-34.4-9.485714-45.142857-10.171429-7.542857-12.342857-21.828571-4.8-32 7.542857-10.171429 21.828571-12.342857 32-4.8 34.057143 25.028571 43.2 72 20.685714 106.742857 0 0-0.114286 0.114286-0.114286 0.228571l-29.028571 44.114286 165.371428-31.2c0.114286 0 0.228571 0 0.342857-0.114286L508.228571 883.428571c1.257143-0.228571 2.514286-0.342857 3.885715-0.342857 63.085714 0 124.342857-10.857143 181.942857-32.114285 55.428571-20.571429 105.257143-49.942857 147.885714-87.2 87.085714-76.228571 135.085714-177.371429 135.085714-284.685715s-48-208.457143-135.085714-284.685714c-42.742857-37.371429-92.457143-66.742857-147.885714-87.2-57.6-21.371429-118.857143-32.114286-181.942857-32.114286-63.085714 0-124.342857 10.857143-181.942857 32.114286-55.428571 20.571429-105.257143 49.942857-147.885715 87.2C95.085714 270.628571 47.085714 371.771429 47.085714 479.085714c0 47.885714 9.6 94.857143 28.457143 139.428572 18.285714 43.2 44.914286 83.2 78.971429 118.742857 8.685714 9.142857 8.457143 23.542857-0.685715 32.342857-9.142857 8.685714-23.542857 8.457143-32.342857-0.685714-37.942857-39.657143-67.542857-84.228571-88-132.571429-21.257143-50.285714-32.114286-103.085714-32.114285-157.257143 0-61.142857 13.714286-120.342857 40.571428-176.114285 25.942857-53.6 62.971429-101.714286 110.057143-142.971429 46.857143-41.028571 101.485714-73.257143 162.171429-95.771429C376.914286 41.028571 443.428571 29.257143 512 29.257143s135.085714 11.771429 197.828571 34.971428C770.514286 86.742857 825.142857 118.971429 872 160c47.085714 41.257143 84.114286 89.371429 110.057143 142.971429 26.971429 55.771429 40.571429 114.971429 40.571428 176.114285s-13.714286 120.342857-40.571428 176.114286c-25.942857 53.6-62.971429 101.714286-110.057143 142.971429-46.857143 41.028571-101.485714 73.257143-162.171429 95.771428-62.057143 22.971429-128 34.742857-195.885714 34.971429l-137.142857 23.428571-218.057143 41.142857c-1.371429 0.114286-2.742857 0.228571-4.114286 0.228572z m58.514286-112zM276.228571 509.257143m-45.714285 0a45.714286 45.714286 0 1 0 91.428571 0 45.714286 45.714286 0 1 0-91.428571 0ZM513.6 509.257143m-45.714286 0a45.714286 45.714286 0 1 0 91.428572 0 45.714286 45.714286 0 1 0-91.428572 0ZM750.971429 511.085714m-45.714286 0a45.714286 45.714286 0 1 0 91.428571 0 45.714286 45.714286 0 1 0-91.428571 0Z" /></svg>