<?xml version="1.0" standalone="no"?><!DOCTYPE svg PUBLIC "-//W3C//DTD SVG 1.1//EN" "http://www.w3.org/Graphics/SVG/1.1/DTD/svg11.dtd"><svg class="icon" width="200px" height="199.80px" viewBox="0 0 1025 1024" version="1.1" xmlns="http://www.w3.org/2000/svg"><path fill="#e6e6e6" d="M750.628571 410.742857c-56.685714 0-102.857143-46.171429-102.857142-102.857143s46.171429-102.857143 102.857142-102.857143 102.857143 46.171429 102.857143 102.857143-46.171429 102.857143-102.857143 102.857143z m0-160.114286c-31.542857 0-57.142857 25.6-57.142857 57.142858s25.6 57.142857 57.142857 57.142857 57.142857-25.6 57.142858-57.142857-25.6-57.142857-57.142858-57.142858zM877.828571 570.628571H623.428571c-12.685714 0-23.085714-10.4-23.085714-23.085714 0-44.114286 12.8-88.457143 35.2-121.714286 26.628571-39.428571 65.028571-61.142857 108.114286-61.142857 12.571429 0 22.857143 10.285714 22.857143 22.857143s-10.285714 22.857143-22.857143 22.857143c-35.2 0-57.6 22.285714-70.171429 41.028571-13.714286 20.228571-22.742857 46.171429-26.057143 73.485715H853.942857c-4.914286-38.857143-21.942857-74.742857-46.285714-95.2-9.6-8.114286-10.857143-22.514286-2.742857-32.228572 8.114286-9.6 22.514286-10.857143 32.228571-2.742857 39.428571 33.257143 63.885714 91.771429 63.885714 152.8 0 12.685714-10.4 23.085714-23.2 23.085714zM547.771429 550.4c-12.685714 0-23.085714-10.4-23.085715-23.085714 0-33.714286 8.342857-67.885714 23.657143-96.342857 17.371429-32.342857 42.057143-54.971429 71.542857-65.6 11.885714-4.342857 25.028571 1.828571 29.257143 13.714285s-1.828571 25.028571-13.714286 29.257143c-31.771429 11.542857-64 54.971429-64.914285 116.114286 0.114286 1.028571 0.228571 1.942857 0.228571 2.971428-0.114286 12.8-10.4 22.971429-22.971428 22.971429zM628 409.828571c-2.285714 0-4.571429-0.342857-6.857143-1.028571-40.228571-12.685714-67.314286-49.6-67.314286-91.885714 0-45.828571 32.571429-85.485714 77.485715-94.4 12.342857-2.514286 24.457143 5.6 26.857143 17.942857s-5.6 24.457143-17.942858 26.857143c-23.542857 4.685714-40.685714 25.485714-40.685714 49.6 0 22.171429 14.171429 41.6 35.314286 48.228571 12 3.771429 18.742857 16.571429 14.971428 28.685714-3.085714 9.828571-12.114286 16-21.828571 16zM1000.571429 947.428571H24c-13.257143 0-24-10.742857-24-24V94.971429c0-13.257143 10.742857-24 24-24h976.571429c13.257143 0 24 10.742857 24 24v48.8h-45.714286v-27.085715H45.714286V901.714286h933.142857V217.142857h45.714286v706.285714c0 13.257143-10.742857 24-24 24zM146.514286 610.285714h361.714285v45.714286H146.514286zM146.514286 756.571429h361.714285v45.714285H146.514286z" /></svg>