<?xml version="1.0" standalone="no"?><!DOCTYPE svg PUBLIC "-//W3C//DTD SVG 1.1//EN" "http://www.w3.org/Graphics/SVG/1.1/DTD/svg11.dtd"><svg class="icon" width="200px" height="200.00px" viewBox="0 0 1024 1024" version="1.1" xmlns="http://www.w3.org/2000/svg"><path fill="#e6e6e6" d="M529.705011 545.603387m-27.460833 0a27.460833 27.460833 0 1 0 54.921665 0 27.460833 27.460833 0 1 0-54.921665 0Z"  /><path fill="#e6e6e6" d="M433.592096 545.603387m-27.460833 0a27.460833 27.460833 0 1 0 54.921666 0 27.460833 27.460833 0 1 0-54.921666 0Z"  /><path fill="#e6e6e6" d="M337.479181 545.603387m-27.460832 0a27.460833 27.460833 0 1 0 54.921665 0 27.460833 27.460833 0 1 0-54.921665 0Z"  /><path fill="#e6e6e6" d="M806.481299 131.522936H227.63585c-25.292872 0-45.52717 20.234298-45.52717 45.52717v671.345095c0 25.292872 20.234298 45.52717 45.52717 45.52717h578.845449c25.292872 0 45.52717-20.234298 45.52717-45.52717V177.772759c0.722653-25.292872-20.234298-46.249824-45.52717-46.249823z m-4.335921 712.536344H232.694425V182.10868H802.145378v661.9506z"  /><path fill="#e6e6e6" d="M333.865914 301.346507H700.973888c13.730416 0 25.292872-11.562456 25.292873-25.292873s-11.562456-25.292872-25.292873-25.292872H333.865914c-13.730416 0-25.292872 11.562456-25.292872 25.292872s10.839802 25.292872 25.292872 25.292873z"  /><path fill="#e6e6e6" d="M333.865914 438.65067H700.973888c13.730416 0 25.292872-11.562456 25.292873-25.292872s-11.562456-25.292872-25.292873-25.292872H333.865914c-13.730416 0-25.292872 11.562456-25.292872 25.292872s10.839802 25.292872 25.292872 25.292872z"  /></svg>