<?xml version="1.0" standalone="no"?><!DOCTYPE svg PUBLIC "-//W3C//DTD SVG 1.1//EN" "http://www.w3.org/Graphics/SVG/1.1/DTD/svg11.dtd"><svg class="icon" width="200px" height="200.00px" viewBox="0 0 1024 1024" version="1.1" xmlns="http://www.w3.org/2000/svg"><path fill="#e6e6e6" d="M506.580099 630.153846c13.730416 0 25.292872-11.562456 25.292872-25.292872V273.885674c0-13.730416-11.562456-25.292872-25.292872-25.292872s-25.292872 11.562456-25.292872 25.292872v331.697953c0 13.730416 10.839802 24.570219 25.292872 24.570219z"  /><path fill="#e6e6e6" d="M916.324629 486.345801c-0.722653-13.730416-12.285109-24.570219-26.738179-23.847565-13.730416 0.722653-24.570219 12.285109-23.847565 26.738179 0 6.503881 0.722653 12.285109 0.722653 18.788991 0 198.729711-161.151729 359.88144-359.881439 359.881439S145.976006 706.755116 145.976006 508.025406c0-198.729711 161.151729-359.88144 359.881439-359.88144 52.753705 0 103.33945 10.839802 151.03458 33.242061 5.058574 2.16796 10.839802 5.058574 15.898377 7.949188 12.285109 6.503881 27.460833 1.445307 33.964714-10.839802 6.503881-12.285109 1.445307-27.460833-10.839802-33.964714-5.781228-2.890614-12.285109-6.503881-18.788991-9.394496-54.199012-25.292872-112.011291-37.577982-171.991531-37.577981-226.190543 0-410.467184 184.276641-410.467184 410.467184s184.276641 410.467184 410.467184 410.467184 410.467184-184.276641 410.467184-410.467184c1.445307-7.226535 1.445307-14.45307 0.722653-21.679605z"  /><path fill="#e6e6e6" d="M506.580099 706.755116m-28.183486 0a28.183486 28.183486 0 1 0 56.366972 0 28.183486 28.183486 0 1 0-56.366972 0Z"  /><path fill="#e6e6e6" d="M873.688073 389.510233m-27.460832 0a27.460833 27.460833 0 1 0 54.921665 0 27.460833 27.460833 0 1 0-54.921665 0Z"  /><path fill="#e6e6e6" d="M833.219478 300.623853m-27.460833 0a27.460833 27.460833 0 1 0 54.921666 0 27.460833 27.460833 0 1 0-54.921666 0Z"  /><path fill="#e6e6e6" d="M767.45801 224.745236m-27.460833 0a27.460833 27.460833 0 1 0 54.921666 0 27.460833 27.460833 0 1 0-54.921666 0Z"  /></svg>