<?xml version="1.0" standalone="no"?><!DOCTYPE svg PUBLIC "-//W3C//DTD SVG 1.1//EN" "http://www.w3.org/Graphics/SVG/1.1/DTD/svg11.dtd"><svg class="icon" width="200px" height="200.00px" viewBox="0 0 1024 1024" version="1.1" xmlns="http://www.w3.org/2000/svg"><path fill="#e6e6e6" d="M935.836274 515.251941c-10.839802-215.350741-183.553987-388.064926-398.182075-401.072689v-18.066337c0-13.730416-11.562456-25.292872-25.292872-25.292873s-25.292872 11.562456-25.292873 25.292873v18.066337c-221.854622 13.007763-398.904728 198.007057-398.904728 423.474947 0 1.445307 0 3.613267 0.722654 5.058574 0.722653 13.007763 11.562456 23.847565 25.292872 23.847566s25.292872-10.839802 25.292872-25.292873v-3.613267c0.722653-49.140438 26.015526-127.187015 174.159492-127.187015 146.698659 0 172.714185 77.323924 174.159492 125.741708v249.315455c0 13.730416 11.562456 25.292872 25.292872 25.292872s25.292872-11.562456 25.292873-25.292872V529.705011c3.613267-49.140438 33.242061-119.237826 173.436838-119.237827 151.757234 0 174.159492 81.659845 174.159492 130.077629 0 13.730416 10.839802 25.292872 25.292872 25.292872 13.730416 0 25.292872-10.839802 25.292872-24.570219l0.722654-19.511644c0-1.445307-0.722653-4.335921-1.445307-6.503881z m-224.022583-154.647848c-95.390261 0-164.764996 31.0741-199.452364 85.995766-34.687368-54.921665-104.062103-85.995766-199.452364-85.995766-59.98024 0-109.120677 12.285109-146.69866 35.410021 55.644319-135.858857 190.057869-231.249118 345.42837-231.249118 155.370501 0 289.061397 95.390261 345.42837 231.249118-36.855328-23.124912-85.995766-35.410021-145.253352-35.410021z"  /><path fill="#e6e6e6" d="M513.08398 868.629499m-27.460833 0a27.460833 27.460833 0 1 0 54.921666 0 27.460833 27.460833 0 1 0-54.921666 0Z"  /><path fill="#e6e6e6" d="M443.709245 932.94566m-27.460833 0a27.460833 27.460833 0 1 0 54.921666 0 27.460833 27.460833 0 1 0-54.921666 0Z"  /><path fill="#e6e6e6" d="M368.553282 868.629499m-27.460833 0a27.460833 27.460833 0 1 0 54.921665 0 27.460833 27.460833 0 1 0-54.921665 0Z"  /></svg>