<?xml version="1.0" standalone="no"?><!DOCTYPE svg PUBLIC "-//W3C//DTD SVG 1.1//EN" "http://www.w3.org/Graphics/SVG/1.1/DTD/svg11.dtd"><svg class="icon" width="200px" height="200.00px" viewBox="0 0 1024 1024" version="1.1" xmlns="http://www.w3.org/2000/svg"><path fill="#e6e6e6" d="M512.571429 1021.942857c-37.485714 0-74.971429-4.114286-112.114286-12.457143-64.571429-14.514286-124.8-40.914286-179.085714-78.514285-56.114286-38.857143-103.2-88.114286-140-146.285715C44.571429 726.514286 20.228571 662.857143 9.028571 595.542857c-10.742857-65.028571-8.914286-130.742857 5.6-195.428571 14.514286-64.571429 40.914286-124.8 78.514286-179.085715 38.857143-56.114286 88.114286-103.2 146.285714-140C297.6 44.228571 361.257143 19.885714 428.571429 8.685714c65.028571-10.742857 130.742857-8.914286 195.428571 5.6 64.571429 14.514286 124.8 40.914286 179.085714 78.514286 56.114286 38.857143 103.2 88.114286 140 146.285714 55.771429 88 82.971429 189.371429 78.742857 293.142857-0.571429 12.571429-11.2 22.4-23.771428 21.942858-12.571429-0.571429-22.4-11.2-21.942857-23.771429 3.885714-94.4-20.914286-186.628571-71.657143-266.857143-33.485714-52.914286-76.457143-97.714286-127.428572-133.142857-49.371429-34.171429-104.114286-58.285714-162.971428-71.428571-58.971429-13.257143-118.742857-14.971429-177.942857-5.142858C374.857143 64 316.914286 86.171429 263.885714 119.657143c-52.914286 33.485714-97.714286 76.457143-133.142857 127.428571-34.171429 49.371429-58.285714 104.114286-71.428571 162.971429-13.257143 58.857143-14.971429 118.742857-5.142857 177.942857 10.171429 61.257143 32.342857 119.2 65.828571 172.228571s76.457143 97.714286 127.428571 133.142858c49.371429 34.171429 104.114286 58.285714 162.971429 71.428571 58.857143 13.257143 118.742857 14.971429 177.942857 5.142857 61.257143-10.171429 119.2-32.342857 172.228572-65.828571C838.4 854.857143 899.2 784.457143 936.457143 700.571429c5.142857-11.542857 18.628571-16.8 30.171428-11.657143 11.542857 5.142857 16.8 18.628571 11.657143 30.171428-40.914286 92.114286-107.657143 169.485714-193.257143 223.657143-58.171429 36.8-121.828571 61.142857-189.142857 72.342857-27.771429 4.571429-55.542857 6.857143-83.314285 6.857143zM781.828571 536.228571H242.628571c-12.571429 0-22.857143-10.285714-22.857142-22.857142s10.285714-22.857143 22.857142-22.857143h539.2c12.571429 0 22.857143 10.285714 22.857143 22.857143s-10.171429 22.857143-22.857143 22.857142z" /></svg>