<?xml version="1.0" standalone="no"?><!DOCTYPE svg PUBLIC "-//W3C//DTD SVG 1.1//EN" "http://www.w3.org/Graphics/SVG/1.1/DTD/svg11.dtd"><svg class="icon" width="200px" height="200.00px" viewBox="0 0 1024 1024" version="1.1" xmlns="http://www.w3.org/2000/svg"><path fill="#e6e6e6" d="M300.571429 155.542857c12.571429 0 22.857143-10.285714 22.857142-22.857143s-10.285714-22.857143-22.857142-22.857143c-106.971429 0-194.057143 87.085714-194.057143 194.057143 0 52 18.628571 100.228571 52.457143 135.771429 9.828571 10.285714 20.685714 19.314286 32.342857 26.857143C136.914286 494.857143 93.6 534.171429 62.285714 584 21.714286 648.457143 1.142857 730.857143 1.142857 828.914286c0 12.571429 10.285714 22.857143 22.857143 22.857143s22.857143-10.285714 22.857143-22.857143c0-89.257143 18.171429-163.428571 54.057143-220.571429 33.371429-53.142857 83.085714-92.685714 147.771428-117.6 14.171429 3.314286 28.914286 5.028571 44 5.028572 12.571429 0 22.857143-10.285714 22.857143-22.857143s-10.285714-22.857143-22.857143-22.857143c-38.971429 0-74.742857-14.971429-100.457143-42.057143-25.714286-27.085714-39.885714-64.114286-39.885714-104.228571 0-81.714286 66.514286-148.228571 148.228572-148.228572zM962.514286 584c-31.314286-49.828571-74.628571-89.257143-129.142857-117.6 11.657143-7.542857 22.514286-16.571429 32.342857-26.857143 33.828571-35.542857 52.457143-83.771429 52.457143-135.771428 0-106.971429-87.085714-194.057143-194.057143-194.057143-12.571429 0-22.857143 10.285714-22.857143 22.857143s10.285714 22.857143 22.857143 22.857142c81.828571 0 148.342857 66.514286 148.342857 148.342858 0 40.228571-14.171429 77.257143-39.885714 104.228571-25.828571 27.085714-61.485714 42.057143-100.457143 42.057143-12.571429 0-22.857143 10.285714-22.857143 22.857143s10.285714 22.857143 22.857143 22.857143c15.085714 0 29.828571-1.714286 44-5.028572 64.571429 24.914286 114.285714 64.457143 147.771428 117.6 35.885714 57.028571 54.057143 131.314286 54.057143 220.571429 0 12.571429 10.285714 22.857143 22.857143 22.857143s22.857143-10.285714 22.857143-22.857143c0-98.057143-20.571429-180.457143-61.142857-244.914286zM828.342857 727.542857c-27.428571-68.571429-67.542857-126.514286-116-167.314286-9.6-8.114286-24.114286-6.857143-32.228571 2.742858-8.114286 9.6-6.857143 24.114286 2.742857 32.228571 42.742857 36 78.4 87.657143 103.085714 149.371429 21.142857 53.028571 33.485714 111.085714 36 169.257142H193.485714c3.885714-93.142857 32-184.342857 78.514286-253.371428 38.514286-57.028571 107.428571-125.142857 217.142857-125.142857l18.285714-0.457143h0.228572c129.485714 0 234.742857-105.371429 234.742857-234.742857 0-129.485714-105.371429-234.742857-234.742857-234.742857-129.485714 0-234.742857 105.371429-234.742857 234.742857 0 88.228571 48.914286 165.257143 121.142857 205.371428-18.171429 6.4-35.771429 14.628571-52.685714 24.8-41.028571 24.685714-77.142857 59.885714-107.2 104.571429-55.2 81.828571-86.857143 191.542857-86.857143 301.142857 0 12.914286 10.514286 23.542857 23.542857 23.542857H844.571429c12.914286 0 23.542857-10.514286 23.542857-23.542857 0-71.314286-13.828571-143.428571-39.771429-208.457143z m-509.714286-427.428571c0-104.228571 84.8-189.028571 189.028572-189.028572s189.028571 84.8 189.028571 189.028572S611.885714 489.142857 507.657143 489.142857s-189.028571-84.8-189.028572-189.028571z" /></svg>