<?xml version="1.0" standalone="no"?><!DOCTYPE svg PUBLIC "-//W3C//DTD SVG 1.1//EN" "http://www.w3.org/Graphics/SVG/1.1/DTD/svg11.dtd"><svg class="icon" width="200px" height="200.00px" viewBox="0 0 1024 1024" version="1.1" xmlns="http://www.w3.org/2000/svg"><path fill="#e6e6e6" d="M738.55187 740.719831c-26.015526 0-49.863091 10.117149-67.929428 26.015525L400.350035 570.89626c5.781228-13.730416 8.671842-28.183486 8.671842-43.35921 0-62.1482-50.585745-113.456598-113.456598-113.456598s-113.456598 50.585745-113.456599 113.456598 50.585745 113.456598 113.456599 113.456599c28.90614 0 54.921665-10.839802 75.155963-28.183487L641.716302 809.371912c-4.335921 10.839802-6.503881 23.124912-6.503881 35.410022 0 57.089626 46.249824 103.33945 103.339449 103.339449s103.33945-46.249824 103.33945-103.339449c0-57.812279-46.249824-104.062103-103.33945-104.062103zM296.287932 589.685251c-34.687368 0-62.870854-28.183486-62.870854-62.870854s28.183486-62.870854 62.870854-62.870854c34.687368 0 62.870854 28.183486 62.870854 62.870854s-28.90614 62.870854-62.870854 62.870854z m442.263938 307.127734c-28.90614 0-52.753705-23.847565-52.753705-52.753705s23.847565-52.753705 52.753705-52.753705 52.753705 23.847565 52.753705 52.753705-23.847565 52.753705-52.753705 52.753705z"  /><path fill="#e6e6e6" d="M738.55187 283.280169c57.089626 0 103.33945-46.249824 103.33945-103.339449s-46.249824-103.33945-103.33945-103.33945S635.212421 122.851094 635.212421 179.94072s46.249824 103.33945 103.339449 103.339449z m0-155.370501c28.90614 0 52.753705 23.847565 52.753705 52.753705s-23.847565 52.753705-52.753705 52.753705-52.753705-23.847565-52.753705-52.753705 23.847565-52.753705 52.753705-52.753705z"  /><path fill="#e6e6e6" d="M446.599859 409.744531m-27.460833 0a27.460833 27.460833 0 1 0 54.921666 0 27.460833 27.460833 0 1 0-54.921666 0Z"  /><path fill="#e6e6e6" d="M518.865208 352.654905m-27.460833 0a27.460833 27.460833 0 1 0 54.921666 0 27.460833 27.460833 0 1 0-54.921666 0Z"  /><path fill="#e6e6e6" d="M590.407904 294.842625m-27.460833 0a27.460833 27.460833 0 1 0 54.921666 0 27.460833 27.460833 0 1 0-54.921666 0Z"  /></svg>